<?xml version="1.0" encoding="UTF-8" standalone="no"?>
<!-- Created with Inkscape (http://www.inkscape.org/) -->

<svg
   xmlns:dc="http://purl.org/dc/elements/1.1/"
   xmlns:cc="http://creativecommons.org/ns#"
   xmlns:rdf="http://www.w3.org/1999/02/22-rdf-syntax-ns#"
   xmlns:svg="http://www.w3.org/2000/svg"
   xmlns="http://www.w3.org/2000/svg"
   xmlns:sodipodi="http://sodipodi.sourceforge.net/DTD/sodipodi-0.dtd"
   xmlns:inkscape="http://www.inkscape.org/namespaces/inkscape"
   width="297mm"
   height="210mm"
   viewBox="0 0 297 210"
   version="1.1"
   id="svg8"
   inkscape:version="0.92.2 (5c3e80d, 2017-08-06)"
   sodipodi:docname="gato.svg">
  <defs
     id="defs2">
    <inkscape:path-effect
       effect="bspline"
       id="path-effect1236"
       is_visible="true"
       weight="33.333333"
       steps="2"
       helper_size="0"
       apply_no_weight="true"
       apply_with_weight="true"
       only_selected="false" />
    <inkscape:path-effect
       effect="bspline"
       id="path-effect1230"
       is_visible="true"
       weight="33.333333"
       steps="2"
       helper_size="0"
       apply_no_weight="true"
       apply_with_weight="true"
       only_selected="false" />
    <inkscape:path-effect
       effect="bspline"
       id="path-effect1218"
       is_visible="true"
       weight="33.333333"
       steps="2"
       helper_size="0"
       apply_no_weight="true"
       apply_with_weight="true"
       only_selected="false" />
    <inkscape:path-effect
       effect="bspline"
       id="path-effect1063"
       is_visible="true"
       weight="33.333333"
       steps="2"
       helper_size="0"
       apply_no_weight="true"
       apply_with_weight="true"
       only_selected="false" />
    <inkscape:path-effect
       effect="bspline"
       id="path-effect1054"
       is_visible="true"
       weight="33.333333"
       steps="2"
       helper_size="0"
       apply_no_weight="true"
       apply_with_weight="true"
       only_selected="false" />
    <inkscape:path-effect
       effect="bspline"
       id="path-effect1035"
       is_visible="true"
       weight="33.333333"
       steps="2"
       helper_size="0"
       apply_no_weight="true"
       apply_with_weight="true"
       only_selected="false" />
    <inkscape:path-effect
       effect="bspline"
       id="path-effect1023"
       is_visible="true"
       weight="33.333333"
       steps="2"
       helper_size="0"
       apply_no_weight="true"
       apply_with_weight="true"
       only_selected="false" />
    <inkscape:path-effect
       effect="bspline"
       id="path-effect1015"
       is_visible="true"
       weight="33.333333"
       steps="2"
       helper_size="0"
       apply_no_weight="true"
       apply_with_weight="true"
       only_selected="false" />
    <inkscape:path-effect
       effect="bspline"
       id="path-effect1011"
       is_visible="true"
       weight="33.333333"
       steps="2"
       helper_size="0"
       apply_no_weight="true"
       apply_with_weight="true"
       only_selected="false" />
    <inkscape:path-effect
       effect="simplify"
       id="path-effect1009"
       is_visible="true"
       steps="1"
       threshold="9.90099e-005"
       smooth_angles="360"
       helper_size="0"
       simplify_individual_paths="false"
       simplify_just_coalesce="false"
       simplifyindividualpaths="false"
       simplifyJustCoalesce="false" />
    <inkscape:path-effect
       effect="bspline"
       id="path-effect985"
       is_visible="true"
       weight="33.333333"
       steps="2"
       helper_size="0"
       apply_no_weight="true"
       apply_with_weight="true"
       only_selected="false" />
    <inkscape:path-effect
       effect="simplify"
       id="path-effect983"
       is_visible="true"
       steps="1"
       threshold="9.90099e-005"
       smooth_angles="360"
       helper_size="0"
       simplify_individual_paths="false"
       simplify_just_coalesce="false"
       simplifyindividualpaths="false"
       simplifyJustCoalesce="false" />
    <inkscape:path-effect
       effect="spiro"
       id="path-effect965"
       is_visible="true" />
    <inkscape:path-effect
       effect="simplify"
       id="path-effect963"
       is_visible="true"
       steps="1"
       threshold="9.90099e-005"
       smooth_angles="360"
       helper_size="0"
       simplify_individual_paths="false"
       simplify_just_coalesce="false"
       simplifyindividualpaths="false"
       simplifyJustCoalesce="false" />
    <inkscape:path-effect
       effect="spiro"
       id="path-effect915"
       is_visible="true" />
    <inkscape:path-effect
       effect="simplify"
       id="path-effect913"
       is_visible="true"
       steps="1"
       threshold="9.90099e-005"
       smooth_angles="360"
       helper_size="0"
       simplify_individual_paths="false"
       simplify_just_coalesce="false"
       simplifyindividualpaths="false"
       simplifyJustCoalesce="false" />
    <inkscape:path-effect
       effect="spiro"
       id="path-effect907"
       is_visible="true" />
    <inkscape:path-effect
       effect="simplify"
       id="path-effect905"
       is_visible="true"
       steps="1"
       threshold="9.90099e-005"
       smooth_angles="360"
       helper_size="0"
       simplify_individual_paths="false"
       simplify_just_coalesce="false"
       simplifyindividualpaths="false"
       simplifyJustCoalesce="false" />
    <inkscape:path-effect
       effect="spiro"
       id="path-effect899"
       is_visible="true" />
    <inkscape:path-effect
       effect="simplify"
       id="path-effect897"
       is_visible="true"
       steps="1"
       threshold="9.90099e-005"
       smooth_angles="360"
       helper_size="0"
       simplify_individual_paths="false"
       simplify_just_coalesce="false"
       simplifyindividualpaths="false"
       simplifyJustCoalesce="false" />
    <inkscape:path-effect
       effect="spiro"
       id="path-effect887"
       is_visible="true" />
    <inkscape:path-effect
       effect="simplify"
       id="path-effect885"
       is_visible="true"
       steps="1"
       threshold="9.90099e-005"
       smooth_angles="360"
       helper_size="0"
       simplify_individual_paths="false"
       simplify_just_coalesce="false"
       simplifyindividualpaths="false"
       simplifyJustCoalesce="false" />
    <inkscape:path-effect
       effect="spiro"
       id="path-effect881"
       is_visible="true" />
    <inkscape:path-effect
       effect="simplify"
       id="path-effect879"
       is_visible="true"
       steps="1"
       threshold="0.0002"
       smooth_angles="360"
       helper_size="0"
       simplify_individual_paths="false"
       simplify_just_coalesce="false"
       simplifyindividualpaths="false"
       simplifyJustCoalesce="false" />
  </defs>
  <sodipodi:namedview
     id="base"
     pagecolor="#ffffff"
     bordercolor="#666666"
     borderopacity="1.0"
     inkscape:pageopacity="0.0"
     inkscape:pageshadow="2"
     inkscape:zoom="0.57848045"
     inkscape:cx="615.73369"
     inkscape:cy="438.74678"
     inkscape:document-units="mm"
     inkscape:current-layer="layer1"
     showgrid="false"
     inkscape:window-width="1366"
     inkscape:window-height="705"
     inkscape:window-x="-8"
     inkscape:window-y="-8"
     inkscape:window-maximized="1"
     inkscape:measure-start="0,0"
     inkscape:measure-end="0,0" />
  <metadata
     id="metadata5">
    <rdf:RDF>
      <cc:Work
         rdf:about="">
        <dc:format>image/svg+xml</dc:format>
        <dc:type
           rdf:resource="http://purl.org/dc/dcmitype/StillImage" />
        <dc:title></dc:title>
      </cc:Work>
    </rdf:RDF>
  </metadata>
  <g
     inkscape:label="Capa 1"
     inkscape:groupmode="layer"
     id="layer1"
     transform="translate(0,-87)">
    <path
       style="opacity:1;fill:#2b1100;fill-opacity:1;fill-rule:nonzero;stroke:none;stroke-width:0.26499999;stroke-linecap:round;stroke-linejoin:round;stroke-miterlimit:4;stroke-dasharray:none;stroke-dashoffset:0;stroke-opacity:1;paint-order:markers fill stroke"
       d="m 247.74207,192.96226 c 13.82896,50.18935 -32.4333,86.77406 -95.41601,85.39993 -57.6433,-1.25763 -118.266063,-32.12656 -99.667376,-88.49183 13.842757,-41.95193 43.238311,-79.9891 96.575476,-79.9891 53.33716,0 86.77294,40.49137 98.50791,83.081 z"
       id="path1073"
       inkscape:connector-curvature="0"
       sodipodi:nodetypes="sssss" />
    <path
       style="opacity:1;fill:#ffffff;fill-opacity:1;fill-rule:nonzero;stroke:none;stroke-width:0.26499999;stroke-linecap:round;stroke-linejoin:round;stroke-miterlimit:4;stroke-dasharray:none;stroke-dashoffset:0;stroke-opacity:1;paint-order:markers fill stroke"
       d="m 148.43159,183.1823 c 0,12.70636 -11.97737,23.0069 -26.7522,23.0069 -14.77484,0 -26.752215,-10.30054 -26.752214,-23.0069 -10e-7,-12.70636 9.302154,-7.65655 24.076994,-7.65655 14.77483,0 29.42742,-5.04981 29.42742,7.65655 z"
       id="path1075"
       inkscape:connector-curvature="0"
       sodipodi:nodetypes="sssss" />
    <path
       style="opacity:1;fill:#ffffff;fill-opacity:1;fill-rule:nonzero;stroke:none;stroke-width:0.26499999;stroke-linecap:round;stroke-linejoin:round;stroke-miterlimit:4;stroke-dasharray:none;stroke-dashoffset:0;stroke-opacity:1;paint-order:markers fill stroke"
       d="m 213.17194,185.5977 c 0,12.70636 -11.97737,23.00691 -26.75219,23.00691 -14.77485,0 -26.75222,-10.30055 -26.75222,-23.00691 0,-12.70636 12.50225,-19.54265 27.27709,-19.54265 14.77484,0 26.22732,6.83629 26.22732,19.54265 z"
       id="path1075-4"
       inkscape:connector-curvature="0"
       sodipodi:nodetypes="sssss" />
    <ellipse
       style="opacity:1;fill:#000000;fill-opacity:1;fill-rule:nonzero;stroke:none;stroke-width:0.26499999;stroke-linecap:round;stroke-linejoin:round;stroke-miterlimit:4;stroke-dasharray:none;stroke-dashoffset:0;stroke-opacity:1;paint-order:markers fill stroke"
       id="path1093"
       cx="133.18283"
       cy="186.39256"
       rx="7.7581396"
       ry="8.0256624" />
    <ellipse
       style="opacity:1;fill:#000000;fill-opacity:1;fill-rule:nonzero;stroke:none;stroke-width:0.26499999;stroke-linecap:round;stroke-linejoin:round;stroke-miterlimit:4;stroke-dasharray:none;stroke-dashoffset:0;stroke-opacity:1;paint-order:markers fill stroke"
       id="path1093-0"
       cx="173.45175"
       cy="187.40451"
       rx="7.7581401"
       ry="8.0256624" />
    <path
       style="opacity:1;fill:#ff2a2a;fill-opacity:1;fill-rule:nonzero;stroke:none;stroke-width:0.26499999;stroke-linecap:round;stroke-linejoin:round;stroke-miterlimit:4;stroke-dasharray:none;stroke-dashoffset:0;stroke-opacity:1;paint-order:markers fill stroke"
       d="m 153.5352,196.00245 c -9.75137,-1.2e-4 -18.06651,2.19448 -18.06673,8.1044 6.3e-4,4.69933 3.8302,2.83615 11.24231,4.21598 -1.51465,0.87605 0.13664,8.19864 0.13664,8.19864 3.68962,3.56789 3.93849,2.4857 7.4842,2.48585 3.5459,1.6e-4 6.28393,0.7123 6.28415,-3.12909 -0.002,-0.68386 0.59502,-7.13492 0.40993,-7.78872 6.3481,-1.72066 9.74642,0.23191 9.75586,-3.98266 -2.2e-4,-5.9098 -7.49519,-8.10435 -17.24636,-8.1044 z"
       id="path1110"
       inkscape:connector-curvature="0"
       sodipodi:nodetypes="ccccccccc" />
    <path
       style="fill:#2b1100;stroke:none;stroke-width:0.26458332px;stroke-linecap:butt;stroke-linejoin:miter;stroke-opacity:1"
       d="m 62.121612,167.10803 c -3.691191,-21.975 -22.094738,-40.07238 -22.416297,-62.22454 26.381789,2.92534 40.452398,12.49644 59.132645,19.71088 -15.024287,11.38572 -25.673849,27.14616 -36.716348,42.51366 z"
       id="path1134"
       inkscape:connector-curvature="0"
       sodipodi:nodetypes="cccc" />
    <path
       style="fill:#2b1100;stroke:none;stroke-width:0.26458332px;stroke-linecap:butt;stroke-linejoin:miter;stroke-opacity:1"
       d="m 230.1179,163.72935 c 3.69119,-21.975 37.94074,-22.68043 38.2623,-44.83258 -26.38179,2.92533 -56.2984,-4.89551 -74.97865,2.31892 15.02429,11.38572 25.67385,27.14616 36.71635,42.51366 z"
       id="path1134-7"
       inkscape:connector-curvature="0"
       sodipodi:nodetypes="cccc" />
    <path
       style="opacity:1;fill:#000000;fill-opacity:1;fill-rule:nonzero;stroke:none;stroke-width:0.26499999;stroke-linecap:round;stroke-linejoin:round;stroke-miterlimit:4;stroke-dasharray:none;stroke-dashoffset:0;stroke-opacity:1;paint-order:markers fill stroke"
       d="m 201.64374,240.92722 c -2e-5,4.48248 -19.55314,8.11624 -43.67313,8.11624 -24.11999,0 -43.67312,-3.63376 -43.67313,-8.11624 -10e-6,-4.48248 16.14671,5.50936 43.67313,-8.11625 21.61664,-10.70027 43.67314,3.63377 43.67313,8.11625 z"
       id="path1166"
       inkscape:connector-curvature="0"
       sodipodi:nodetypes="sssss" />
    <path
       style="fill:#ffffff;stroke:#000000;stroke-width:0.26458332px;stroke-linecap:butt;stroke-linejoin:miter;stroke-opacity:1"
       d="m 174.29972,229.13934 0.96622,7.0534 6.5703,-6.57029 c -2.69948,-0.30743 -5.09676,-0.67489 -7.53652,-0.48311 z"
       id="path1169"
       inkscape:connector-curvature="0"
       sodipodi:nodetypes="cccc" />
    <ellipse
       style="opacity:1;fill:#ffffff;fill-opacity:1;fill-rule:nonzero;stroke:none;stroke-width:0.26499999;stroke-linecap:round;stroke-linejoin:round;stroke-miterlimit:4;stroke-dasharray:none;stroke-dashoffset:0;stroke-opacity:1;paint-order:markers fill stroke"
       id="path1171"
       cx="176.32877"
       cy="183.00235"
       rx="1.2560855"
       ry="1.2077746" />
    <ellipse
       style="opacity:1;fill:#ffffff;fill-opacity:1;fill-rule:nonzero;stroke:none;stroke-width:0.26499999;stroke-linecap:round;stroke-linejoin:round;stroke-miterlimit:4;stroke-dasharray:none;stroke-dashoffset:0;stroke-opacity:1;paint-order:markers fill stroke"
       id="path1173"
       cx="137.19687"
       cy="182.18106"
       rx="0.96621966"
       ry="0.86959773" />
    <path
       style="fill:#ffd5d5;stroke:#000000;stroke-width:0.26458332px;stroke-linecap:butt;stroke-linejoin:miter;stroke-opacity:1"
       d="m 71.317425,154.82516 19.657767,-20.11493 c 0,0 -36.115432,-20.11492 -36.572589,-17.37198 -0.457158,2.74295 16.914822,37.48691 16.914822,37.48691 z"
       id="path1175"
       inkscape:connector-curvature="0" />
    <path
       style="fill:#ffd5d5;stroke:#000000;stroke-width:0.26458332px;stroke-linecap:butt;stroke-linejoin:miter;stroke-opacity:1"
       d="m 223.54916,152.60547 c -3.86413,-8.72132 -10.92865,-15.04235 -19.65777,-20.11493 -1.50113,-4.50339 50.75397,-8.20033 52.11594,-2.74294 0.67334,2.69803 -32.45817,22.85787 -32.45817,22.85787 z"
       id="path1175-5"
       inkscape:connector-curvature="0"
       sodipodi:nodetypes="ccsc" />
    <path
       style="fill:none;stroke:#0e0e0e;stroke-width:0.26458332px;stroke-linecap:butt;stroke-linejoin:miter;stroke-opacity:1"
       d="m 128.91926,222.02729 c -3.35249,0 -6.70498,0 -10.05747,0 -0.91431,0 -1.84337,-0.16356 -2.74294,0 -0.80739,0.1468 -1.47633,0.7794 -2.28579,0.91431 -1.05218,0.17537 -2.1334,0 -3.2001,0 -1.0667,0 -2.1334,0 -3.2001,0 -3.65726,0 -7.31452,0 -10.971779,0 -1.676244,0 -3.352488,0 -5.028732,0 -0.457157,0 -0.914315,0 -1.371473,0 -0.457157,0 -0.923192,-0.0897 -1.37147,0 -0.334129,0.0668 -0.578207,0.40114 -0.914315,0.45716 -0.60125,0.10021 -1.219087,0 -1.828631,0 -1.066699,0 -2.133401,0 -3.200101,0 -3.809645,0 -7.619288,0 -11.428934,0 -7.924061,0 -15.848123,0 -23.772182,0 -2.285788,0 -4.571574,0 -6.857362,0 -0.609542,0 -1.219086,0 -1.828628,0 -0.304771,0 -0.609545,0 -0.914316,0 -0.152386,0 -0.32086,0.0681 -0.457157,0 -0.192755,-0.0964 -0.264404,-0.36078 -0.457158,-0.45716 -0.136297,-0.0682 -0.304771,0 -0.457158,0 -0.152384,0 -0.30477,0 -0.457155,0"
       id="path1192"
       inkscape:connector-curvature="0" />
    <path
       style="fill:none;stroke:#000000;stroke-width:0.26458332px;stroke-linecap:butt;stroke-linejoin:miter;stroke-opacity:1"
       d="m 174.17784,218.37003 c 1.8136,-0.33111 3.66476,0.16556 5.48588,0 1.07311,-0.0976 2.1263,-0.36768 3.2001,-0.45716 0.7593,-0.0633 1.52386,0 2.28579,0 0.91432,0 1.82863,0 2.74295,0 1.98101,0 3.96203,0 5.94304,0 6.85736,0 13.71472,0 20.57208,0 21.33401,0 42.66802,0 64.00203,0"
       id="path1196"
       inkscape:connector-curvature="0" />
    <path
       style="fill:none;stroke:#000000;stroke-width:0.26458332px;stroke-linecap:butt;stroke-linejoin:miter;stroke-opacity:1"
       d="m 38.402095,253.11399 c 5.181116,0 10.362234,0 15.54335,0 1.523857,0 3.047717,0 4.571574,0 0.914315,0 1.859502,0.23558 2.742943,0 1.450152,-0.38671 2.701026,-1.32385 4.114417,-1.82863 0.05429,-0.0194 4.507727,-0.89303 4.571573,-0.91431 0.204449,-0.0682 0.272363,-0.34629 0.457158,-0.45716 0.584372,-0.35063 1.195882,-0.66122 1.828631,-0.91432 0.282972,-0.11319 0.625181,0.0964 0.914312,0 0.64652,-0.2155 1.182114,-0.69881 1.828631,-0.91431 0.144566,-0.0482 0.312592,0.0482 0.457158,0 0.32326,-0.10775 0.609542,-0.30477 0.914315,-0.45716 0.761929,-0.30477 1.496737,-0.68887 2.285786,-0.91431 0.293044,-0.0837 0.61546,0.0598 0.914315,0 0.472527,-0.0945 0.914315,-0.30478 1.371473,-0.45716 0.457155,-0.15239 0.940459,-0.24165 1.37147,-0.45716 2.09223,-1.04611 -1.939909,0.18948 1.371473,-0.91431 0.09843,-0.0328 0.846254,0.034 0.914316,0 0.192754,-0.0964 0.2644,-0.36078 0.457155,-0.45716 0.1363,-0.0682 0.304773,0 0.457157,0 0.304774,-0.30477 0.555692,-0.67523 0.914316,-0.91432 0.126793,-0.0845 0.312592,0.0482 0.457157,0 0.32326,-0.10775 0.609545,-0.30477 0.914316,-0.45715 0.304771,-0.15239 0.609541,-0.30478 0.914315,-0.45716 0.304771,-0.15239 0.59794,-0.33061 0.914313,-0.45716 0.447421,-0.17897 0.924052,-0.27819 1.371473,-0.45715 0.316373,-0.12656 0.597939,-0.33061 0.914315,-0.45716 0.447418,-0.17897 0.924052,-0.27819 1.37147,-0.45716 0.316376,-0.12655 0.609545,-0.30477 0.914316,-0.45716 0.304771,-0.15238 0.630798,-0.26814 0.914315,-0.45716 0.179311,-0.11954 0.264403,-0.36078 0.457158,-0.45715 0.431011,-0.21551 0.924052,-0.27819 1.371473,-0.45716 0.316372,-0.12655 0.591055,-0.3494 0.914312,-0.45716 0.144566,-0.0482 0.304774,0 0.457158,0 0.457158,-0.15238 0.924052,-0.27819 1.371473,-0.45715 0.02236,-0.009 1.815148,-0.90983 1.828628,-0.91432 0.14457,-0.0482 0.31259,0.0482 0.45716,0 0.32326,-0.10775 0.58375,-0.37451 0.91432,-0.45716 0.29567,-0.0739 0.60954,0 0.91431,0 0.15239,0 0.30477,0 0.45716,0 0.15238,0 0.33036,0.0845 0.45716,0 0.35862,-0.23908 0.5288,-0.72156 0.91431,-0.91431 0.2726,-0.1363 0.61864,0.0739 0.91432,0 0.33057,-0.0826 0.59105,-0.34941 0.91431,-0.45716 0.14457,-0.0482 0.32086,0.0682 0.45716,0 0.19275,-0.0964 0.25271,-0.38901 0.45716,-0.45716 0.28913,-0.0964 0.64171,0.1363 0.91431,0 0.1363,-0.0682 -0.10775,-0.3494 0,-0.45715 0.10775,-0.10776 0.30477,0 0.45716,0 0.30477,0 0.60954,0 0.91431,0 0.15239,0 0.31259,0.0482 0.45716,0 0.32326,-0.10776 0.59105,-0.34941 0.91431,-0.45716 0.14457,-0.0482 0.30478,0 0.45716,0 0.30477,0 0.60954,0 0.91432,0 0.45715,0 0.92796,0.11088 1.37147,0 0.20907,-0.0523 0.2644,-0.36078 0.45716,-0.45716 0.13629,-0.0682 0.30477,0 0.45715,0 0.30477,0 0.62519,0.0964 0.91432,0 0.20444,-0.0682 0.25271,-0.38901 0.45716,-0.45716 0.28913,-0.0964 0.64171,0.1363 0.91431,0 0.1363,-0.0681 -0.10775,-0.3494 0,-0.45715 0.10775,-0.10776 0.30477,0 0.45716,0 0.30477,0 0.64172,0.13629 0.91431,0 0.1363,-0.0682 -0.1363,-0.38901 0,-0.45716 0.2726,-0.1363 0.64172,0.1363 0.91432,0 0.13629,-0.0682 -0.0682,-0.32086 0,-0.45716 0.0964,-0.19275 0.30477,-0.30477 0.45716,-0.45716"
       id="path1200"
       inkscape:connector-curvature="0" />
    <path
       style="fill:none;stroke:#000000;stroke-width:0.26458332px;stroke-linecap:butt;stroke-linejoin:miter;stroke-opacity:1"
       d="m 37.48778,195.055 c 1.066702,0.76193 2.133401,1.52386 3.200101,2.28579 0.152386,0 0.32086,-0.0682 0.457157,0 0.49143,0.24571 0.850234,0.74057 1.371473,0.91431 0.879359,0.29313 1.826797,0.31622 2.742944,0.45716 1.065001,0.16385 2.12531,0.38039 3.200103,0.45716 1.063988,0.076 2.157079,-0.22351 3.200101,0 1.134774,0.24316 2.074217,1.09 3.200101,1.37147 4.131379,1.03285 3.143269,0.18575 6.400202,0.45716 1.073809,0.0895 2.126999,0.3596 3.200104,0.45716 0.607039,0.0552 1.219086,0 1.828628,0 0.457158,0 0.914315,0 1.371473,0 0.152384,0 0.320857,-0.0682 0.457157,0 0.192755,0.0964 0.257064,0.37712 0.457158,0.45716 2.418556,0.96742 1.632654,0.0373 4.571571,0.45715 1.243979,0.17771 2.422179,0.68274 3.657262,0.91432 1.207529,0.22641 2.457939,0.19064 3.657258,0.45715 1.553068,0.34513 3.045267,0.92256 4.571572,1.37148 1.064307,0.31303 2.147646,0.56349 3.200103,0.91431 0.77851,0.2595 1.531514,0.59106 2.285786,0.91431 0.313195,0.13423 0.591055,0.34941 0.914315,0.45716 0.289132,0.0964 0.618644,-0.0739 0.914316,0 0.467497,0.11688 0.940458,0.24165 1.37147,0.45716 0.491429,0.24572 0.900337,0.63163 1.371473,0.91431 0.292187,0.17531 0.609544,0.30478 0.914315,0.45716 1.216107,0.60805 1.638806,0.85104 3.200101,1.37147 0.596062,0.19869 1.224506,0.28455 1.828626,0.45716 0.46335,0.13238 0.90398,0.34028 1.37148,0.45716 0.14784,0.037 0.30477,0 0.45716,0 0.60954,0.15238 1.23257,0.25847 1.82863,0.45716 0.32325,0.10775 0.63079,0.26814 0.91431,0.45715 0.17931,0.11954 0.25271,0.38901 0.45716,0.45716 0.28913,0.0964 0.62518,-0.0964 0.91431,0 0.20445,0.0682 0.25271,0.38901 0.45716,0.45716 0.28913,0.0964 0.60954,0 0.91432,0 0.15238,0 0.3494,-0.10776 0.45715,0 0.10776,0.10775 -0.1363,0.38901 0,0.45716 0.91432,0.45715 0.68574,-0.22858 1.37147,0 0.32326,0.10775 0.59106,0.3494 0.91432,0.45715 0.14457,0.0482 0.30477,0 0.45716,0 0.30477,0 0.60954,0 0.91431,0 1.0667,0 2.1334,0 3.2001,0"
       id="path1202"
       inkscape:connector-curvature="0" />
    <path
       style="fill:none;stroke:#000000;stroke-width:0.26458332px;stroke-linecap:butt;stroke-linejoin:miter;stroke-opacity:1"
       d="m 174.17784,218.37003 c 1.52385,1.67624 2.79026,3.62913 4.57157,5.02873 0.47929,0.37659 1.22064,0.0434 1.82863,0 1.52757,-0.10911 3.0454,-0.32998 4.57157,-0.45716 0.30372,-0.0253 0.60954,0 0.91432,0 0.45715,0 0.91431,0 1.37147,0 1.21908,0 2.43817,0 3.65726,0 12.49563,0 24.99127,0 37.4869,0 4.72396,0 9.44792,0 14.17188,0 0.60954,0 1.21909,0 1.82863,0 1.37147,0 2.74975,-0.13647 4.11442,0 1.69527,0.16953 3.34385,0.66159 5.02873,0.91432 1.36464,0.20469 2.7466,0.27478 4.11441,0.45715 0.0132,0.002 5.47927,0.91366 5.48589,0.91432 0.60652,0.0607 1.21909,0 1.82863,0 0.45716,0 0.93778,-0.14457 1.37147,0 0.14457,0.0482 -0.13629,0.38901 0,0.45716 0.2726,0.1363 0.60955,0 0.91432,0 1.0667,0 2.13339,0 3.20011,0 0.15237,0 0.30477,0 0.45715,0 0.30477,0 0.61865,-0.0739 0.91432,0 2.10121,0.5253 0.10371,0.45716 1.37147,0.45716"
       id="path1204"
       inkscape:connector-curvature="0" />
    <path
       style="fill:none;stroke:#000000;stroke-width:0.26458332px;stroke-linecap:butt;stroke-linejoin:miter;stroke-opacity:1"
       d="m 174.17784,218.37003 c 1.98101,-1.37147 3.91628,-2.8115 5.94304,-4.11442 0.12818,-0.0824 0.30477,0 0.45716,0 0.60954,0 1.21909,0 1.82863,0 0.30477,0 0.64172,0.1363 0.91431,0 2.87721,-1.4386 -1.30819,-0.57281 2.28579,-1.37147 0.90485,-0.20108 1.82062,-0.36492 2.74294,-0.45716 0.60652,-0.0606 1.24254,0.16746 1.82863,0 0.5283,-0.15094 0.89443,-0.64171 1.37147,-0.91431 0.59171,-0.33812 1.19054,-0.67503 1.82864,-0.91432 0.58829,-0.22061 1.23256,-0.25847 1.82862,-0.45715 0.32326,-0.10776 0.58669,-0.36355 0.91432,-0.45716 0.74712,-0.21346 1.53866,-0.24369 2.28579,-0.45716 0.32763,-0.0936 0.59794,-0.33061 0.91431,-0.45716 3.49239,-1.39695 -0.85339,0.68358 2.74295,-1.37147 0.59169,-0.33811 1.26159,-0.53629 1.82862,-0.91431 2.09223,-1.39482 -0.57171,-0.72375 2.74295,-1.82863 0.73714,-0.24572 1.53866,-0.2437 2.28579,-0.45716 0.32763,-0.0936 0.58374,-0.37451 0.91431,-0.45716 0.29567,-0.0739 0.61546,0.0598 0.91432,0 0.0163,-0.003 2.71698,-0.90782 2.74294,-0.91431 3.77083,-0.94271 0.82933,0.0243 4.11442,-0.91431 0.46334,-0.13239 0.93111,-0.26145 1.37147,-0.45716 0.93413,-0.41517 1.79934,-0.97831 2.74294,-1.37148 2.77081,-1.1545 2.17837,-0.65351 4.57158,-1.37147 0.92312,-0.27694 1.82862,-0.60954 2.74294,-0.91431 0.91431,-0.30477 1.79789,-0.72531 2.74294,-0.91432 0.59771,-0.11954 1.2336,0.13223 1.82863,0 0.4956,-0.11013 2.82124,-1.23213 3.65726,-1.37147 0.45094,-0.0752 0.91891,0.0647 1.37147,0 0.62199,-0.0889 1.20888,-0.35386 1.82863,-0.45716 0.60125,-0.10021 1.23093,0.11954 1.82863,0 0.47253,-0.0945 0.89895,-0.36265 1.37147,-0.45715 1.17702,-0.23541 0.65162,0.2354 1.82863,0 0.47253,-0.0945 0.89443,-0.38901 1.37148,-0.45716 0.60341,-0.0862 1.22738,0.10021 1.82863,0 0.3361,-0.056 0.58374,-0.37451 0.91431,-0.45716 0.29567,-0.0739 0.61546,0.0598 0.91432,0 0.47252,-0.0945 0.90397,-0.34028 1.37147,-0.45716 0.14783,-0.037 0.30477,0 0.45715,0 0.30478,0 0.60955,0 0.91432,0 0.45716,0 0.91431,0 1.37147,0 0.15239,0 0.60943,0.006 0.45716,0 -2.45066,-0.0939 -4.90175,-0.17607 -7.35262,-0.26411"
       id="path1206"
       inkscape:connector-curvature="0" />
    <path
       style="fill:none;stroke:#000000;stroke-width:0.26458332px;stroke-linecap:butt;stroke-linejoin:miter;stroke-opacity:1"
       d="m 24.230217,207.85541 c 1.676243,-0.15239 3.348852,-0.35217 5.02873,-0.45716 0.760447,-0.0475 1.52386,0 2.285788,0 1.0667,0 2.133399,0 3.200101,0 0.914316,0 1.828628,0 2.742944,0 0.609544,0 1.237287,-0.14783 1.82863,0 0.661141,0.16529 1.182111,0.69881 1.828628,0.91432 0.737145,0.24571 1.527273,0.2886 2.285789,0.45715 0.613341,0.1363 1.205177,0.37923 1.828628,0.45716 0.604837,0.0756 1.222814,-0.0673 1.82863,0 5.190287,0.5767 -0.300831,0.45716 4.114417,0.45716 1.066699,0 2.133401,0 3.200101,0 0.457157,0 0.923192,-0.0897 1.371473,0 3.052884,0.61058 -1.224257,0.30374 1.828628,0.91431 0.44828,0.0897 0.918911,-0.0647 1.371473,0 0.621987,0.0889 1.20664,0.36831 1.828628,0.45716 0.452564,0.0647 0.920535,-0.0752 1.371473,0 1.654923,0.27582 2.91665,1.55281 4.571574,1.82863 0.450937,0.0752 0.923192,-0.0897 1.371472,0 0.334127,0.0668 0.591056,0.3494 0.914313,0.45716 0.596061,0.19868 1.21253,0.33393 1.828631,0.45716 0.149426,0.0299 0.312592,-0.0482 0.457157,0 0.32326,0.10775 0.609542,0.30477 0.914316,0.45715 0.457157,0.15239 0.908127,0.32477 1.37147,0.45716 0.01143,0.003 3.652348,0.91268 3.657259,0.91431 0.778512,0.25951 1.499775,0.67852 2.285788,0.91432 0.616746,0.18502 4.59467,0.87091 5.028732,0.91431 0.606517,0.0607 1.219086,0 1.828628,0 0.914315,0 1.82863,0 2.742943,0 0.457158,0 0.918911,-0.0647 1.371473,0 0.621988,0.0889 1.20518,0.37923 1.828631,0.45716 0.604834,0.0756 1.242539,-0.16745 1.828628,0 0.528296,0.15094 0.880043,0.6686 1.371473,0.91432 0.136297,0.0681 0.304771,0 0.457157,0 0.304771,0 0.615461,-0.0598 0.914316,0 0.472527,0.0945 0.903972,0.34028 1.37147,0.45715 0.147836,0.037 0.304771,0 0.457158,0 0.457157,0 0.914315,0 1.371473,0 1.52386,0 3.04772,0 4.57158,0 4.87634,0 9.75269,0 14.62903,0 1.37148,0 2.74295,0 4.11442,0 0.30477,0 0.60954,0 0.91431,0 0.15239,0 0.32649,-0.0784 0.45716,0 1.41341,0.84805 2.74294,1.82863 4.11442,2.74295"
       id="path1208"
       inkscape:connector-curvature="0" />
    <path
       style="fill:none;stroke:#000000;stroke-width:0.26458332px;stroke-linecap:butt;stroke-linejoin:miter;stroke-opacity:1"
       d="m 24.230217,243.05653 c 1.552221,-0.69539 3.455839,0.57948 5.02873,0 6.757771,-2.48971 4.94965,-3.30813 10.971779,-5.02873 0.157929,-0.0451 3.477871,0.0448 3.657258,0 0.661141,-0.16529 1.219087,-0.60955 1.828628,-0.91432 0.304771,-0.15239 0.583745,-0.37451 0.914316,-0.45716 0.295672,-0.0739 0.61369,0.0501 0.914315,0 0.619752,-0.10329 1.20664,-0.3683 1.828628,-0.45715 0.452564,-0.0647 0.937776,0.14456 1.371473,0 5.13226,-1.71076 -2.864363,-0.26885 3.200101,-1.37148 1.060151,-0.19275 2.135103,-0.29331 3.200101,-0.45715 0.916149,-0.14095 1.818748,-0.38607 2.742946,-0.45716 1.063559,-0.0818 2.14412,0.15085 3.200101,0 1.098235,-0.15689 2.109716,-0.70987 3.200101,-0.91432 1.356278,-0.2543 2.761303,-0.18653 4.114416,-0.45715 6.826218,-1.36525 -2.207302,-0.69555 6.85736,-1.82863 1.058465,-0.13231 2.136545,0.0818 3.200103,0 0.924195,-0.0711 1.826795,-0.31621 2.742944,-0.45716 1.065001,-0.16385 2.148231,-0.22341 3.200101,-0.45716 0.332631,-0.0739 0.578207,-0.40114 0.914315,-0.45715 0.60125,-0.10021 1.219086,0 1.828628,0 0.304774,0 0.609544,0 0.914315,0 0.304774,0 0.625184,0.0964 0.914316,0 0.204446,-0.0682 0.248086,-0.40489 0.457157,-0.45716 0.443508,-0.11088 0.914316,0 1.371473,0 0.609542,0 1.219087,0 1.828628,0 0.152387,0 0.309322,0.037 0.457158,0 0.467498,-0.11688 0.896144,-0.37794 1.371473,-0.45716 0.450937,-0.0752 0.914313,0 1.37147,0 0.761929,0 1.53615,0.1363 2.285789,0 5.30836,-0.96515 0.18849,-0.77224 5.48589,-2.28578 0.67131,-0.19181 8.05115,-0.90247 8.22883,-0.91432 0.76025,-0.0507 1.53615,0.1363 2.28579,0 5.82384,-1.05888 0.5235,-0.91432 4.11442,-0.91432 0.15238,0 0.30477,0 0.45716,0 0.15238,0 0.45715,-0.15238 0.45715,0 0,2.29086 -0.30477,4.57157 -0.45715,6.85736"
       id="path1210"
       inkscape:connector-curvature="0" />
    <text
       xml:space="preserve"
       style="font-style:normal;font-weight:normal;font-size:10.58333302px;line-height:1.25;font-family:sans-serif;letter-spacing:0px;word-spacing:0px;fill:#000000;fill-opacity:1;stroke:none;stroke-width:0.26458332"
       x="242.33424"
       y="277.62854"
       id="text1244"><tspan
         sodipodi:role="line"
         id="tspan1242"
         x="242.33424"
         y="277.62854"
         style="font-style:normal;font-variant:normal;font-weight:normal;font-stretch:normal;font-size:16.93333244px;font-family:'Showcard Gothic';-inkscape-font-specification:'Showcard Gothic';stroke-width:0.26458332">Gato</tspan></text>
  </g>
</svg>
