<?xml version="1.0" encoding="UTF-8" standalone="no"?>
<!-- Created with Inkscape (http://www.inkscape.org/) -->

<svg
   xmlns:dc="http://purl.org/dc/elements/1.1/"
   xmlns:cc="http://creativecommons.org/ns#"
   xmlns:rdf="http://www.w3.org/1999/02/22-rdf-syntax-ns#"
   xmlns:svg="http://www.w3.org/2000/svg"
   xmlns="http://www.w3.org/2000/svg"
   xmlns:sodipodi="http://sodipodi.sourceforge.net/DTD/sodipodi-0.dtd"
   xmlns:inkscape="http://www.inkscape.org/namespaces/inkscape"
   width="297mm"
   height="210mm"
   viewBox="0 0 297 210"
   version="1.1"
   id="svg8"
   inkscape:version="0.92.2 (5c3e80d, 2017-08-06)"
   sodipodi:docname="hamg.svg">
  <defs
     id="defs2">
    <inkscape:path-effect
       effect="bspline"
       id="path-effect985"
       is_visible="true"
       weight="33.333333"
       steps="2"
       helper_size="0"
       apply_no_weight="true"
       apply_with_weight="true"
       only_selected="false" />
    <inkscape:path-effect
       effect="simplify"
       id="path-effect983"
       is_visible="true"
       steps="1"
       threshold="9.90099e-005"
       smooth_angles="360"
       helper_size="0"
       simplify_individual_paths="false"
       simplify_just_coalesce="false"
       simplifyindividualpaths="false"
       simplifyJustCoalesce="false" />
    <inkscape:path-effect
       effect="spiro"
       id="path-effect965"
       is_visible="true" />
    <inkscape:path-effect
       effect="simplify"
       id="path-effect963"
       is_visible="true"
       steps="1"
       threshold="9.90099e-005"
       smooth_angles="360"
       helper_size="0"
       simplify_individual_paths="false"
       simplify_just_coalesce="false"
       simplifyindividualpaths="false"
       simplifyJustCoalesce="false" />
    <inkscape:path-effect
       effect="spiro"
       id="path-effect915"
       is_visible="true" />
    <inkscape:path-effect
       effect="simplify"
       id="path-effect913"
       is_visible="true"
       steps="1"
       threshold="9.90099e-005"
       smooth_angles="360"
       helper_size="0"
       simplify_individual_paths="false"
       simplify_just_coalesce="false"
       simplifyindividualpaths="false"
       simplifyJustCoalesce="false" />
    <inkscape:path-effect
       effect="spiro"
       id="path-effect907"
       is_visible="true" />
    <inkscape:path-effect
       effect="simplify"
       id="path-effect905"
       is_visible="true"
       steps="1"
       threshold="9.90099e-005"
       smooth_angles="360"
       helper_size="0"
       simplify_individual_paths="false"
       simplify_just_coalesce="false"
       simplifyindividualpaths="false"
       simplifyJustCoalesce="false" />
    <inkscape:path-effect
       effect="spiro"
       id="path-effect899"
       is_visible="true" />
    <inkscape:path-effect
       effect="simplify"
       id="path-effect897"
       is_visible="true"
       steps="1"
       threshold="9.90099e-005"
       smooth_angles="360"
       helper_size="0"
       simplify_individual_paths="false"
       simplify_just_coalesce="false"
       simplifyindividualpaths="false"
       simplifyJustCoalesce="false" />
    <inkscape:path-effect
       effect="spiro"
       id="path-effect887"
       is_visible="true" />
    <inkscape:path-effect
       effect="simplify"
       id="path-effect885"
       is_visible="true"
       steps="1"
       threshold="9.90099e-005"
       smooth_angles="360"
       helper_size="0"
       simplify_individual_paths="false"
       simplify_just_coalesce="false"
       simplifyindividualpaths="false"
       simplifyJustCoalesce="false" />
    <inkscape:path-effect
       effect="spiro"
       id="path-effect881"
       is_visible="true" />
    <inkscape:path-effect
       effect="simplify"
       id="path-effect879"
       is_visible="true"
       steps="1"
       threshold="0.0002"
       smooth_angles="360"
       helper_size="0"
       simplify_individual_paths="false"
       simplify_just_coalesce="false"
       simplifyindividualpaths="false"
       simplifyJustCoalesce="false" />
  </defs>
  <sodipodi:namedview
     id="base"
     pagecolor="#ffffff"
     bordercolor="#666666"
     borderopacity="1.0"
     inkscape:pageopacity="0.0"
     inkscape:pageshadow="2"
     inkscape:zoom="0.5344007"
     inkscape:cx="655.56513"
     inkscape:cy="391.91359"
     inkscape:document-units="mm"
     inkscape:current-layer="layer1"
     showgrid="false"
     inkscape:window-width="1366"
     inkscape:window-height="705"
     inkscape:window-x="-8"
     inkscape:window-y="-8"
     inkscape:window-maximized="1" />
  <metadata
     id="metadata5">
    <rdf:RDF>
      <cc:Work
         rdf:about="">
        <dc:format>image/svg+xml</dc:format>
        <dc:type
           rdf:resource="http://purl.org/dc/dcmitype/StillImage" />
        <dc:title></dc:title>
      </cc:Work>
    </rdf:RDF>
  </metadata>
  <g
     inkscape:label="Capa 1"
     inkscape:groupmode="layer"
     id="layer1"
     transform="translate(0,-87)">
    <path
       style="opacity:1;fill:#d45500;fill-opacity:1;fill-rule:nonzero;stroke:none;stroke-width:0.26499999;stroke-linecap:round;stroke-linejoin:round;stroke-miterlimit:4;stroke-dasharray:none;stroke-dashoffset:0;stroke-opacity:1;paint-order:markers fill stroke"
       d="m 66.061306,123.25166 172.480654,0.49223 c 8.13596,3.14279 12.12193,5.16504 23.28249,13.92999 12.14494,12.90094 13.75928,18.97013 9.84475,34.16194 -0.49668,1.92756 -1.60248,3.593 -3.593,3.593 H 26.682314 c -1.990524,0 -3.654408,-1.60343 -3.593004,-3.593 l 0.492238,-15.94915 c 0.245131,-7.94259 22.580946,-32.6918 42.479758,-32.63501 z"
       id="rect815"
       inkscape:connector-curvature="0"
       sodipodi:nodetypes="sccssssss" />
    <path
       style="opacity:1;fill:#ffd42a;fill-opacity:1;fill-rule:nonzero;stroke:none;stroke-width:0.26499999;stroke-linecap:round;stroke-linejoin:round;stroke-miterlimit:4;stroke-dasharray:none;stroke-dashoffset:0;stroke-opacity:1;paint-order:markers fill stroke"
       d="M 15.360864,175.42882 H 277.42871 c 1.99157,0 2.26026,0.86952 3.24495,4.98528 l 4.00274,16.73059 c 0.46315,1.93589 -4.21922,-9.26894 -6.2035,-9.11134 -85.10294,6.75902 -175.66835,-4.95774 -263.112036,-5.22097 -1.990521,-0.006 -3.962838,7.44136 -4.115112,5.45666 l -0.696128,-9.07317 c -0.152275,-1.9847 2.82071,-3.76705 4.81124,-3.76705 z"
       id="rect842"
       inkscape:connector-curvature="0"
       sodipodi:nodetypes="sssssssss" />
    <path
       style="opacity:1;fill:#338000;fill-opacity:1;fill-rule:nonzero;stroke:none;stroke-width:0.26499999;stroke-linecap:round;stroke-linejoin:round;stroke-miterlimit:4;stroke-dasharray:none;stroke-dashoffset:0;stroke-opacity:1;paint-order:markers fill stroke"
       d="m 15.360864,182.81238 c 92.952196,-5.34721 176.912906,7.68406 259.606626,0 1.98199,-0.18417 3.59302,1.60248 3.59302,3.59302 v 7.58109 c 0,1.99054 -1.60279,3.55863 -3.59302,3.59302 -85.06562,1.46992 -170.65345,2.41764 -259.606626,0 -1.989795,-0.0541 -3.593015,-1.60248 -3.593015,-3.59302 v -7.58109 c 0,-1.99054 1.60577,-3.4787 3.593015,-3.59302 z"
       id="rect847"
       inkscape:connector-curvature="0"
       sodipodi:nodetypes="sssssssss" />
    <path
       style="opacity:1;fill:#ff5555;fill-opacity:1;fill-rule:nonzero;stroke:none;stroke-width:0.26499999;stroke-linecap:round;stroke-linejoin:round;stroke-miterlimit:4;stroke-dasharray:none;stroke-dashoffset:0;stroke-opacity:1;paint-order:markers fill stroke"
       d="m 30.127985,198.56398 c 21.616922,-5.54427 45.387926,-3.54926 69.602999,0 1.969486,0.28867 3.593016,1.60249 3.593016,3.59302 v 0.68977 c 0,1.99053 -1.60249,3.59301 -3.593016,3.59301 H 30.127985 c -1.990531,0 -3.593016,-1.60248 -3.593016,-3.59301 V 202.157 c 0,-1.99053 1.664892,-3.0985 3.593016,-3.59302 z"
       id="rect851"
       inkscape:connector-curvature="0"
       sodipodi:nodetypes="sssssssss" />
    <rect
       style="opacity:1;fill:#ff5555;fill-opacity:1;fill-rule:nonzero;stroke:none;stroke-width:0.26499999;stroke-linecap:round;stroke-linejoin:round;stroke-miterlimit:4;stroke-dasharray:none;stroke-dashoffset:0;stroke-opacity:1;paint-order:markers fill stroke"
       id="rect853"
       width="78.75798"
       height="8.3680353"
       x="108.73862"
       y="198.07175"
       ry="3.5930152" />
    <path
       style="opacity:1;fill:#ff5555;fill-opacity:1;fill-rule:nonzero;stroke:none;stroke-width:0.26499999;stroke-linecap:round;stroke-linejoin:round;stroke-miterlimit:4;stroke-dasharray:none;stroke-dashoffset:0;stroke-opacity:1;paint-order:markers fill stroke"
       d="m 194.04304,198.56398 c 29.68763,-4.48266 50.03111,-3.35883 66.64958,0 1.95108,0.39434 3.59301,1.60249 3.59301,3.59302 v 1.182 c 0,1.99053 -1.60248,3.59302 -3.59301,3.59302 h -66.64958 c -1.99053,0 -3.59302,-1.60249 -3.59302,-3.59302 v -1.182 c 0,-1.99053 1.6248,-3.29583 3.59302,-3.59302 z"
       id="rect855"
       inkscape:connector-curvature="0"
       sodipodi:nodetypes="sssssssss" />
    <path
       style="opacity:1;fill:#ff0000;fill-opacity:1;fill-rule:nonzero;stroke:none;stroke-width:0.26499999;stroke-linecap:round;stroke-linejoin:round;stroke-miterlimit:4;stroke-dasharray:none;stroke-dashoffset:0;stroke-opacity:1;paint-order:markers fill stroke"
       d="m 17.822053,205.45531 c 87.745447,0.0598 182.392187,1.10492 256.160967,0 1.99031,-0.0298 3.59302,1.60248 3.59302,3.59301 v 5.61215 c 0,1.99053 -1.60818,3.44258 -3.59302,3.59301 -86.0956,6.52529 -165.86768,1.69237 -253.207543,-0.49224 -1.989909,-0.0498 -5.561964,-3.59301 -5.561964,-3.59301 -3.15417,-1.51509 7.802986,-1.28024 -0.492238,-3.15096 -1.941765,-0.4379 1.110247,-5.56332 3.100778,-5.56196 z"
       id="rect859"
       inkscape:connector-curvature="0"
       sodipodi:nodetypes="sssssssss" />
    <path
       style="opacity:1;fill:#d45500;fill-opacity:1;fill-rule:nonzero;stroke:none;stroke-width:0.26499999;stroke-linecap:round;stroke-linejoin:round;stroke-miterlimit:4;stroke-dasharray:none;stroke-dashoffset:0;stroke-opacity:1;paint-order:markers fill stroke"
       d="m 67.328428,268.95389 172.480652,-0.49223 c 8.13596,-3.14279 12.12193,-5.16504 23.28249,-13.93 12.14494,-12.90094 13.75928,-18.97013 9.84475,-34.16194 -0.49668,-1.92756 -1.60248,-3.593 -3.593,-3.593 H 27.949435 c -1.990524,0 -3.654408,1.60343 -3.593004,3.593 l 0.492238,15.94915 c 0.245131,7.94259 22.580946,32.69181 42.479759,32.63502 z"
       id="rect815-9"
       inkscape:connector-curvature="0"
       sodipodi:nodetypes="sccssssss" />
    <path
       style="opacity:1;fill:#803300;fill-opacity:1;fill-rule:nonzero;stroke:none;stroke-width:0.26499999;stroke-linecap:round;stroke-linejoin:round;stroke-miterlimit:4;stroke-dasharray:none;stroke-dashoffset:0;stroke-opacity:1;paint-order:markers fill stroke"
       d="m 25.823576,175.30338 c -1.29405,-0.31333 -2.341779,-1.37353 -2.633363,-2.6647 -0.08903,-0.39424 -0.08902,-0.69674 7.9e-5,-3.46912 0.05369,-1.67047 0.09753,-3.21736 0.09742,-3.43753 -1.88e-4,-0.3777 0.0093,-0.40451 0.169008,-0.47476 0.109619,-0.0482 2.227694,-0.18345 6.014524,-0.38393 3.214926,-0.17021 9.243325,-0.48957 13.396441,-0.70969 4.153117,-0.22011 7.67646,-0.4002 7.829651,-0.4002 0.25608,0 0.278529,0.0124 0.278529,0.15382 0,0.0846 0.05843,0.21225 0.129842,0.28366 0.104532,0.10454 0.175879,0.12248 0.366062,0.0921 0.226118,-0.0362 0.244382,-0.0259 0.426831,0.23926 0.266147,0.38683 0.479867,0.48404 0.980665,0.44603 0.291142,-0.0221 0.54144,-0.0946 0.896202,-0.25959 0.270729,-0.12591 1.018315,-0.46437 1.6613,-0.75214 l 1.169064,-0.52323 8.021457,-0.42634 8.021455,-0.42635 0.461071,0.28737 c 0.65478,0.40811 1.321787,0.94873 1.902669,1.54215 0.275836,0.28179 0.547616,0.51235 0.603962,0.51235 0.309152,0 0.440703,-0.2795 0.237323,-0.50423 -0.07296,-0.0806 -0.08397,-0.13315 -0.03762,-0.1795 0.127799,-0.1278 1.930958,0.30604 5.303385,1.27599 2.546683,0.73246 4.537911,1.24782 5.466633,1.41483 l 0.630679,0.11342 v 4.16977 4.16976 l -30.534101,-0.005 c -24.5744,-0.004 -30.597546,-0.0206 -30.859164,-0.0839 z"
       id="path891"
       inkscape:connector-curvature="0" />
    <path
       style="opacity:1;fill:#803300;fill-opacity:1;fill-rule:nonzero;stroke:none;stroke-width:0.26499999;stroke-linecap:round;stroke-linejoin:round;stroke-miterlimit:4;stroke-dasharray:none;stroke-dashoffset:0;stroke-opacity:1;paint-order:markers fill stroke"
       d="m 87.203993,171.23138 v -3.97844 l 1.066782,0.30595 c 0.624207,0.17902 2.248722,0.17003 3.915724,-0.0217 1.566918,-0.18018 3.832905,-0.32879 5.035524,-0.33025 1.202621,-0.001 2.74888,-0.23758 3.436137,-0.52473 1.0107,-0.4223 3.13007,-0.5221 11.08759,-0.5221 h 9.83804 l 2.95651,-1.57278 c 1.62609,-0.86503 3.7395,-1.8053 4.69646,-2.08949 0.95696,-0.28418 1.92321,-0.73753 2.14721,-1.00744 0.22401,-0.26991 1.22171,-0.60239 2.21712,-0.73884 0.9954,-0.13645 2.98454,-0.63421 4.42031,-1.10614 2.22154,-0.73021 3.37247,-0.87054 7.72493,-0.94189 3.51938,-0.0577 5.09339,0.0336 5.04693,0.29274 -0.0371,0.20712 0.27711,0.36498 0.69833,0.35081 0.4212,-0.0142 0.6985,0.0832 0.6162,0.21633 -0.17519,0.28347 2.99556,1.07932 4.58883,1.15177 0.60388,0.0275 1.01895,0.17779 0.92237,0.33406 -0.0966,0.15627 1.47017,0.23459 3.48167,0.17403 2.01151,-0.0606 3.5762,0.0204 3.47709,0.17979 -0.0991,0.15944 0.99736,0.23776 2.4366,0.17404 1.53509,-0.068 2.53449,0.0165 2.41771,0.20434 -0.10948,0.17611 0.0597,0.2209 0.37595,0.0995 0.35454,-0.13605 0.54326,-0.0586 0.49218,0.2019 -0.0554,0.28273 0.45352,0.42255 1.53806,0.42255 0.89149,0 1.54792,0.11747 1.45873,0.26105 -0.12454,0.20048 6.1413,0.45229 8.83783,0.35518 0.23724,-0.009 0.34546,0.12341 0.24051,0.29323 -0.10691,0.17299 1.84623,0.32682 4.44156,0.34982 2.54782,0.0226 9.80116,0.0909 16.11853,0.15188 6.31736,0.0609 12.73915,-0.0421 14.27064,-0.22903 1.53148,-0.18692 7.77763,-0.42609 13.88033,-0.5315 11.90562,-0.20564 13.01663,-0.37059 14.62788,-2.17181 0.69056,-0.77198 1.59936,-0.99539 1.59936,-0.39317 0,0.19143 -0.16588,0.34806 -0.36861,0.34806 -0.20273,0 -0.28188,0.14033 -0.17588,0.31183 0.21886,0.35414 2.09568,1.7e-4 3.23658,-0.61043 0.53691,-0.28734 3.30034,-0.38035 9.37361,-0.31548 l 8.61227,0.092 0.53803,-1.0442 c 0.29591,-0.5743 0.65551,-1.0964 0.79907,-1.16021 0.14359,-0.0638 0.26104,-0.71734 0.26104,-1.45228 0,-1.20693 0.11279,-1.37348 1.16512,-1.72078 1.5921,-0.52545 2.1936,-0.20329 2.44361,1.30879 0.53761,3.25154 0.10417,8.11914 -1.22891,13.80035 -0.55134,2.34978 -0.97113,3.35787 -1.70302,4.08976 l -0.97131,0.9713 H 178.24961 87.203993 Z"
       id="path901"
       inkscape:connector-curvature="0" />
    <path
       style="opacity:1;fill:#803300;fill-opacity:1;fill-rule:nonzero;stroke:none;stroke-width:0.26499999;stroke-linecap:round;stroke-linejoin:round;stroke-miterlimit:4;stroke-dasharray:none;stroke-dashoffset:0;stroke-opacity:1;paint-order:markers fill stroke"
       d="m 62.956973,268.46845 c -10.894644,-1.83856 -24.795622,-11.3407 -33.294436,-22.75871 -2.011817,-2.70284 -4.433591,-7.03047 -4.432781,-7.92123 2.65e-4,-0.33641 1.172334,-0.4537 4.844333,-0.48481 3.77394,-0.032 4.806632,0.0562 4.675084,0.39897 -0.09286,0.242 0.137546,0.65461 0.512019,0.9169 0.374476,0.26229 0.929915,1.07296 1.234313,1.80148 0.310917,0.74413 0.712954,1.22601 0.917432,1.09964 0.200189,-0.12373 0.341554,-0.0958 0.31414,0.062 -0.16882,0.97183 0.07764,1.56234 0.57277,1.37234 0.297095,-0.114 0.455449,-0.0702 0.351896,0.0974 -0.250187,0.40481 0.649991,1.13036 1.246693,1.00484 0.259445,-0.0546 0.43412,0.0919 0.388167,0.32546 -0.07536,0.38303 0.723268,1.01977 1.388793,1.10728 0.143576,0.0189 0.22189,0.0886 0.174032,0.15486 -0.213159,0.29527 0.899827,1.24069 1.224426,1.04007 0.200821,-0.12411 0.259355,-0.0572 0.131278,0.15 -0.289131,0.46782 1.467194,1.89311 1.958581,1.58942 0.198514,-0.12269 0.262112,-0.0632 0.14133,0.13225 -0.307991,0.49834 1.017717,1.61925 1.536149,1.29884 0.270632,-0.16726 0.333881,-0.11645 0.175019,0.14059 -0.23764,0.38451 1.343248,1.29203 1.994408,1.1449 0.157806,-0.0357 0.192577,0.0878 0.07727,0.2744 -0.259918,0.42056 1.086559,1.18277 1.565984,0.88647 0.192223,-0.1188 0.306457,-0.0353 0.253855,0.18559 -0.09203,0.38644 2.58272,1.64703 3.93143,1.85286 0.359625,0.0549 0.775367,0.23335 0.923878,0.3966 0.14851,0.16325 0.05003,0.16919 -0.218842,0.0132 -0.341831,-0.19831 -0.40853,-0.15364 -0.221766,0.14855 0.146902,0.23769 0.56289,0.35482 0.92442,0.26027 0.361529,-0.0945 0.569552,-0.0299 0.462274,0.14371 -0.10728,0.17358 0.271024,0.31561 0.840674,0.31561 0.569651,0 1.08794,0.15546 1.151752,0.34548 0.06919,0.20602 4.049898,0.48894 9.861823,0.7009 10.953951,0.39948 10.971244,0.40067 10.758765,0.74448 -0.349464,0.56544 0.645959,0.77427 5.305978,1.11315 0.412448,0.03 0.68203,0.16436 0.599064,0.2986 -0.08296,0.13424 0.519354,0.42398 1.338482,0.64387 0.819124,0.21988 2.115834,0.61326 2.881577,0.87418 3.030832,1.0327 6.289887,1.31955 13.922573,1.22539 4.21158,-0.0519 10.94663,-0.13277 14.96677,-0.17958 7.33123,-0.0854 9.84223,-0.29353 11.13806,-0.92336 0.38287,-0.18609 2.02748,-0.48582 3.65468,-0.66607 4.02717,-0.44608 7.14432,-0.90197 9.22371,-1.34897 0.95717,-0.20576 5.60277,-0.4384 10.32354,-0.51697 4.72078,-0.0786 8.77817,-0.26334 9.01644,-0.4106 0.26277,-0.1624 0.34509,-0.12516 0.20923,0.0947 -0.33974,0.54972 0.50775,1.08045 2.14278,1.3419 0.80834,0.12926 1.5538,0.37108 1.65657,0.53736 0.10278,0.1663 0.55995,0.30235 1.01594,0.30235 0.45599,0 0.92588,0.15663 1.04419,0.34807 0.34169,0.55285 6.11069,0.42435 7.23311,-0.16113 0.53237,-0.27769 1.18603,-0.4212 1.45258,-0.31892 0.27114,0.10405 0.65512,-0.13259 0.87164,-0.53715 0.21285,-0.39772 0.68551,-0.72313 1.05034,-0.72313 0.36484,0 0.76858,-0.17027 0.8972,-0.37838 0.12862,-0.20812 0.55541,-0.2943 0.94842,-0.19153 0.94821,0.24796 10.67419,-0.42672 11.56316,-0.80213 0.88907,-0.37545 5.72982,-0.97652 5.55239,-0.68942 -0.0734,0.11876 1.65721,0.3119 3.84579,0.42919 2.18859,0.11729 5.33651,0.46758 6.99539,0.77842 2.80205,0.52507 3.12419,0.52391 4.53858,-0.0162 0.83735,-0.31978 1.42805,-0.73417 1.31267,-0.92086 -0.3814,-0.61713 0.59678,-2.31932 1.56275,-2.71944 1.09516,-0.45363 4.58629,-0.34651 4.29347,0.13173 -0.10835,0.17697 0.0711,0.21768 0.40122,0.091 0.40251,-0.15445 0.51601,-0.0977 0.34806,0.17404 -0.16794,0.27174 -0.0544,0.32849 0.34807,0.17403 0.34261,-0.13147 0.50987,-0.0878 0.39228,0.10249 -0.27131,0.43899 3.22791,2.19948 3.87683,1.95046 0.28196,-0.1082 0.41103,-0.0418 0.29228,0.15032 -0.1199,0.194 0.19377,0.34408 0.71912,0.34408 0.83252,0 1.94982,-0.72506 4.14756,-2.69152 0.37809,-0.3383 1.12208,-0.80332 1.6533,-1.03337 0.53123,-0.23006 0.96587,-0.5685 0.96587,-0.7521 0,-0.1836 0.73191,-0.68813 1.62647,-1.12118 0.89457,-0.43305 1.91265,-1.07354 2.26242,-1.42331 0.34977,-0.34977 0.79079,-0.63594 0.98003,-0.63594 0.18925,0 0.63393,-0.24818 0.98819,-0.5515 0.51961,-0.44491 1.83166,-0.579 6.78858,-0.69378 3.37946,-0.0782 6.77098,-0.28305 7.53669,-0.45509 0.81242,-0.18254 1.31231,-0.18352 1.20034,-0.002 -0.10553,0.17073 0.0523,0.31044 0.35076,0.31044 0.29845,0 0.54264,-0.22549 0.54264,-0.50109 0,-0.32778 0.45142,-0.53844 1.30524,-0.60911 1.05974,-0.0877 1.32668,-0.25933 1.41926,-0.91245 0.0627,-0.44244 0.32724,-0.88626 0.58785,-0.98626 0.26059,-0.1 0.56835,-0.59947 0.6839,-1.10992 0.11554,-0.51046 1.10402,-2.06443 2.19667,-3.45327 3.92795,-4.99283 4.5575,-5.89826 4.79751,-6.89998 0.13398,-0.55923 0.37097,-1.18021 0.52662,-1.37996 0.15566,-0.19974 0.38484,-1.45278 0.50927,-2.78451 0.25046,-2.68038 0.80095,-4.3357 1.44182,-4.3357 0.23093,0 0.5451,-0.21236 0.69819,-0.47191 0.15308,-0.25956 0.82656,-0.71268 1.49656,-1.00693 2.40353,-1.05557 2.35437,-1.07135 2.77535,0.89005 2.26229,10.54026 0.59663,16.81718 -6.80075,25.62809 -3.21627,3.83084 -4.38338,4.90902 -8.98599,8.30126 -4.98104,3.67115 -9.98425,6.61321 -14.48569,8.51809 l -3.65467,1.54655 -87.5382,0.1874 c -48.41337,0.10364 -88.332726,0.0533 -89.315886,-0.1126 z"
       id="path909"
       inkscape:connector-curvature="0" />
    <path
       style="opacity:1;fill:#803300;fill-opacity:1;fill-rule:nonzero;stroke:none;stroke-width:0.26499999;stroke-linecap:round;stroke-linejoin:round;stroke-miterlimit:4;stroke-dasharray:none;stroke-dashoffset:0;stroke-opacity:1;paint-order:markers fill stroke"
       d="m 151.05463,225.66872 c -1.14861,-0.15161 -3.8113,-0.67028 -5.91709,-1.1526 -5.1183,-1.1723 -9.34048,-1.71319 -11.28531,-1.44571 -0.87886,0.12088 -2.29972,0.0369 -3.16105,-0.18686 -1.55066,-0.40281 -3.98716,-0.75404 -8.35186,-1.20394 -1.27153,-0.13106 -7.52172,0.0845 -14.27064,0.49209 -22.528474,1.36072 -31.863585,1.31716 -43.547921,-0.20323 -2.414873,-0.31423 -4.685993,-0.45488 -5.046932,-0.31255 -0.753478,0.2971 -4.311015,0.46235 -4.310775,0.20024 9e-5,-0.0959 -0.900528,-0.20092 -2.001369,-0.23344 -3.741168,-0.1105 -7.914346,-0.71401 -9.310886,-1.3465 -1.147786,-0.51982 -2.400691,-0.63819 -7.13532,-0.67408 -5.820508,-0.0441 -7.414469,0.059 -7.168279,0.46352 0.07494,0.12316 -0.588039,0.26714 -1.473293,0.31995 -0.885251,0.0528 -1.762122,0.24861 -1.948601,0.43508 -0.687959,0.68796 -1.592079,0.37654 -1.592079,-0.54839 0,-1.5688 0.939379,-2.88316 2.35146,-3.29012 1.586537,-0.45724 235.942825,-0.33812 234.854435,0.11937 -0.38288,0.16093 -1.0877,0.45318 -1.56628,0.64945 -1.52395,0.62494 -1.91646,0.89827 -1.83153,1.27544 0.0469,0.20812 -0.16692,0.27209 -0.49218,0.14727 -0.41669,-0.15989 -0.49657,-0.0937 -0.29011,0.24034 0.17462,0.28255 0.1493,0.37718 -0.0655,0.24446 -0.1927,-0.1191 -0.95484,0.0916 -1.69366,0.46831 -1.22257,0.62331 -2.07517,0.68486 -9.48645,0.68486 -6.49293,0 -8.10836,0.0907 -7.9714,0.44759 0.12543,0.32688 -0.15476,0.40947 -1.03894,0.30625 -0.8524,-0.0995 -1.50607,0.077 -2.20881,0.5966 -0.54896,0.40587 -1.32801,0.73794 -1.73122,0.73794 -0.40321,0 -1.00135,0.14356 -1.3292,0.31902 -0.87036,0.4658 -33.26873,0.755 -35.20878,0.31429 -0.86146,-0.1957 -2.11449,-0.48243 -2.78451,-0.63719 -3.79802,-0.87725 -6.87597,-1.12512 -14.49816,-1.16755 -4.62386,-0.0257 -8.34854,0.048 -8.27706,0.16398 0.0715,0.11592 -0.23851,0.14033 -0.68887,0.0542 -0.45035,-0.0861 -0.92474,0.0148 -1.0542,0.22431 -0.12945,0.20946 -0.79108,0.38084 -1.47029,0.38084 -0.89242,0 -1.18502,0.13004 -1.05499,0.46888 0.14503,0.37796 -0.14423,0.40997 -1.49154,0.16509 -1.52729,-0.27759 -1.81772,-0.21287 -3.36722,0.75035 -1.75285,1.08963 -5.64211,2.1129 -7.77701,2.04614 -0.67003,-0.0209 -2.158,-0.16213 -3.30662,-0.31374 z"
       id="path917"
       inkscape:connector-curvature="0" />
    <path
       style="opacity:1;fill:#803300;fill-opacity:1;fill-rule:nonzero;stroke:none;stroke-width:0.26499999;stroke-linecap:round;stroke-linejoin:round;stroke-miterlimit:4;stroke-dasharray:none;stroke-dashoffset:0;stroke-opacity:1;paint-order:markers fill stroke"
       d="m 268.87443,220.44068 c -1.35308,-0.56367 -5.22097,-3.15556 -5.22097,-3.49859 0,-0.47777 5.97286,-0.35649 6.96129,0.14134 0.9149,0.4608 2.40557,2.83098 2.02179,3.21473 -0.41463,0.41463 -2.88433,0.50819 -3.76211,0.14252 z"
       id="path919"
       inkscape:connector-curvature="0" />
    <ellipse
       style="opacity:1;fill:#ffcc00;fill-opacity:1;fill-rule:nonzero;stroke:none;stroke-width:0.26499999;stroke-linecap:round;stroke-linejoin:round;stroke-miterlimit:4;stroke-dasharray:none;stroke-dashoffset:0;stroke-opacity:1;paint-order:markers fill stroke"
       id="path921"
       cx="70.91494"
       cy="133.47578"
       rx="5.743063"
       ry="1.2182255" />
    <ellipse
       style="opacity:1;fill:#ffcc00;fill-opacity:1;fill-rule:nonzero;stroke:none;stroke-width:0.26499999;stroke-linecap:round;stroke-linejoin:round;stroke-miterlimit:4;stroke-dasharray:none;stroke-dashoffset:0;stroke-opacity:1;paint-order:markers fill stroke"
       id="path923"
       cx="130.43396"
       cy="130.34322"
       rx="2.9585474"
       ry="1.2182255" />
    <ellipse
       style="opacity:1;fill:#ffcc00;fill-opacity:1;fill-rule:nonzero;stroke:none;stroke-width:0.26499999;stroke-linecap:round;stroke-linejoin:round;stroke-miterlimit:4;stroke-dasharray:none;stroke-dashoffset:0;stroke-opacity:1;paint-order:markers fill stroke"
       id="path925"
       cx="190.82314"
       cy="127.90677"
       rx="6.6132236"
       ry="0.52209657" />
    <ellipse
       style="opacity:1;fill:#ffcc00;fill-opacity:1;fill-rule:nonzero;stroke:none;stroke-width:0.26499999;stroke-linecap:round;stroke-linejoin:round;stroke-miterlimit:4;stroke-dasharray:none;stroke-dashoffset:0;stroke-opacity:1;paint-order:markers fill stroke"
       id="path927"
       cx="166.98071"
       cy="139.56691"
       rx="2.6104829"
       ry="1.3922576" />
    <ellipse
       style="opacity:1;fill:#ffcc00;fill-opacity:1;fill-rule:nonzero;stroke:none;stroke-width:0.26499999;stroke-linecap:round;stroke-linejoin:round;stroke-miterlimit:4;stroke-dasharray:none;stroke-dashoffset:0;stroke-opacity:1;paint-order:markers fill stroke"
       id="path929"
       cx="225.8036"
       cy="138.69675"
       rx="5.3949981"
       ry="1.5662898" />
    <ellipse
       style="opacity:1;fill:#ffcc00;fill-opacity:1;fill-rule:nonzero;stroke:none;stroke-width:0.26499999;stroke-linecap:round;stroke-linejoin:round;stroke-miterlimit:4;stroke-dasharray:none;stroke-dashoffset:0;stroke-opacity:1;paint-order:markers fill stroke"
       id="path931"
       cx="79.268486"
       cy="260.86737"
       rx="6.7872558"
       ry="1.2182255" />
    <ellipse
       style="opacity:1;fill:#ffcc00;fill-opacity:1;fill-rule:nonzero;stroke:none;stroke-width:0.26499999;stroke-linecap:round;stroke-linejoin:round;stroke-miterlimit:4;stroke-dasharray:none;stroke-dashoffset:0;stroke-opacity:1;paint-order:markers fill stroke"
       id="path933"
       cx="116.16331"
       cy="261.73752"
       rx="4.3508048"
       ry="1.3922576" />
    <ellipse
       style="opacity:1;fill:#ffcc00;fill-opacity:1;fill-rule:nonzero;stroke:none;stroke-width:0.26499999;stroke-linecap:round;stroke-linejoin:round;stroke-miterlimit:4;stroke-dasharray:none;stroke-dashoffset:0;stroke-opacity:1;paint-order:markers fill stroke"
       id="path935"
       cx="168.02492"
       cy="252.33978"
       rx="2.9585474"
       ry="1.740322" />
    <ellipse
       style="opacity:1;fill:#ffcc00;fill-opacity:1;fill-rule:nonzero;stroke:none;stroke-width:0.26499999;stroke-linecap:round;stroke-linejoin:round;stroke-miterlimit:4;stroke-dasharray:none;stroke-dashoffset:0;stroke-opacity:1;paint-order:markers fill stroke"
       id="path937"
       cx="152.9315"
       cy="262.42224"
       rx="3.1325796"
       ry="1.740322" />
    <ellipse
       style="opacity:1;fill:#ffcc00;fill-opacity:1;fill-rule:nonzero;stroke:none;stroke-width:0.26499999;stroke-linecap:round;stroke-linejoin:round;stroke-miterlimit:4;stroke-dasharray:none;stroke-dashoffset:0;stroke-opacity:1;paint-order:markers fill stroke"
       id="path939"
       cx="225.97763"
       cy="245.37849"
       rx="3.8287084"
       ry="0.69612879" />
    <ellipse
       style="opacity:1;fill:#ffcc00;fill-opacity:1;fill-rule:nonzero;stroke:none;stroke-width:0.26499999;stroke-linecap:round;stroke-linejoin:round;stroke-miterlimit:4;stroke-dasharray:none;stroke-dashoffset:0;stroke-opacity:1;paint-order:markers fill stroke"
       id="path941"
       cx="247.38359"
       cy="236.50284"
       rx="1.5662898"
       ry="1.9143542" />
    <ellipse
       style="opacity:1;fill:#ffcc00;fill-opacity:1;fill-rule:nonzero;stroke:none;stroke-width:0.26499999;stroke-linecap:round;stroke-linejoin:round;stroke-miterlimit:4;stroke-dasharray:none;stroke-dashoffset:0;stroke-opacity:1;paint-order:markers fill stroke"
       id="path945"
       cx="195.69603"
       cy="260.17123"
       rx="2.0883863"
       ry="1.2182255" />
    <ellipse
       style="opacity:1;fill:#ffcc00;fill-opacity:1;fill-rule:nonzero;stroke:none;stroke-width:0.26499999;stroke-linecap:round;stroke-linejoin:round;stroke-miterlimit:4;stroke-dasharray:none;stroke-dashoffset:0;stroke-opacity:1;paint-order:markers fill stroke"
       id="path947"
       cx="243.72891"
       cy="256.86462"
       rx="2.7845151"
       ry="4.1767726" />
    <ellipse
       style="opacity:1;fill:#ffcc00;fill-opacity:1;fill-rule:nonzero;stroke:none;stroke-width:0.26499999;stroke-linecap:round;stroke-linejoin:round;stroke-miterlimit:4;stroke-dasharray:none;stroke-dashoffset:0;stroke-opacity:1;paint-order:markers fill stroke"
       id="path951"
       cx="141.22395"
       cy="225.53882"
       rx="1.5662898"
       ry="0.34806439" />
    <ellipse
       style="opacity:1;fill:#ffcc00;fill-opacity:1;fill-rule:nonzero;stroke:none;stroke-width:0.26499999;stroke-linecap:round;stroke-linejoin:round;stroke-miterlimit:4;stroke-dasharray:none;stroke-dashoffset:0;stroke-opacity:1;paint-order:markers fill stroke"
       id="path955"
       cx="251.2123"
       cy="228.84543"
       rx="3.6546762"
       ry="0.870161" />
    <ellipse
       style="opacity:1;fill:#ffcc00;fill-opacity:1;fill-rule:nonzero;stroke:none;stroke-width:0.26499999;stroke-linecap:round;stroke-linejoin:round;stroke-miterlimit:4;stroke-dasharray:none;stroke-dashoffset:0;stroke-opacity:1;paint-order:markers fill stroke"
       id="path957"
       cx="47.072529"
       cy="251.29558"
       rx="4.1767726"
       ry="2.436451" />
    <ellipse
       style="opacity:1;fill:#ffcc00;fill-opacity:1;fill-rule:nonzero;stroke:none;stroke-width:0.26499999;stroke-linecap:round;stroke-linejoin:round;stroke-miterlimit:4;stroke-dasharray:none;stroke-dashoffset:0;stroke-opacity:1;paint-order:markers fill stroke"
       id="path959"
       cx="30.191406"
       cy="237.72107"
       rx="3.6546762"
       ry="2.0883863" />
    <path
       style="opacity:1;fill:#d45500;fill-opacity:1;fill-rule:nonzero;stroke:none;stroke-width:0.26499999;stroke-linecap:round;stroke-linejoin:round;stroke-miterlimit:4;stroke-dasharray:none;stroke-dashoffset:0;stroke-opacity:1;paint-order:markers fill stroke"
       d="m 267.83025,147.03812 c -0.67003,-0.34019 -2.588,-1.28548 -4.26215,-2.10065 -2.78156,-1.35436 -5.48367,-3.5752 -5.48367,-4.50697 0,-0.44407 -3.63021,-4.04164 -4.41422,-4.37454 -0.70328,-0.29862 -0.92587,-0.3439 -3.41722,-0.69526 -1.8583,-0.26208 -3.65468,-0.8881 -3.65468,-1.27364 0,-0.12909 -0.5482,-0.57351 -1.21822,-0.98761 -0.67003,-0.4141 -1.21823,-0.91529 -1.21823,-1.11376 0,-0.19847 -0.49136,-0.78986 -1.09191,-1.3142 -0.98483,-0.85985 -1.43312,-0.97413 -4.57149,-1.16533 -2.39525,-0.14592 -3.66341,-0.37834 -4.06945,-0.7458 -0.32443,-0.2936 -0.92132,-0.53381 -1.32644,-0.53381 -0.77228,0 -3.54253,-2.68364 -3.98328,-3.85875 -0.23852,-0.63593 -0.0336,-0.66596 4.52484,-0.66318 l 4.77467,0.003 3.90943,1.69077 c 10.24453,4.43061 20.11947,12.0199 25.70273,19.75357 2.04534,2.83312 2.02581,3.01672 -0.20071,1.88624 z"
       id="path967"
       inkscape:connector-curvature="0" />
    <path
       style="opacity:1;fill:#d45500;fill-opacity:1;fill-rule:nonzero;stroke:none;stroke-width:0.26499999;stroke-linecap:round;stroke-linejoin:round;stroke-miterlimit:4;stroke-dasharray:none;stroke-dashoffset:0;stroke-opacity:1;paint-order:markers fill stroke"
       d="m 88.403042,167.68544 c -0.38287,-0.0899 -1.009388,-0.29511 -1.392258,-0.45597 -1.845043,-0.77518 -10.391556,-2.81189 -10.995282,-2.62027 -0.478562,0.15189 -1.0703,-0.11974 -1.957168,-0.89843 l -1.271217,-1.11613 -2.982034,0.21231 c -1.640117,0.11677 -5.251455,0.3189 -8.02519,0.44917 -4.242589,0.19926 -5.344097,0.36996 -6.938936,1.07527 -1.66637,0.73695 -2.003783,0.78289 -2.788293,0.37967 -0.490882,-0.25231 -0.970828,-0.55488 -1.066546,-0.67238 -0.136909,-0.16808 -14.475352,0.47155 -25.890381,1.15495 l -1.699906,0.10178 0.182941,-5.395 c 0.210135,-6.19686 0.463005,-7.02406 3.563345,-11.65647 6.125146,-9.15196 17.902613,-18.79024 27.498053,-22.50347 1.531826,-0.59279 4.194802,-1.37212 5.917721,-1.73186 3.031778,-0.63302 5.770136,-0.64699 85.101749,-0.43417 45.08304,0.12094 82.14336,0.31652 82.35625,0.43463 0.21291,0.1181 1.19755,1.19367 2.1881,2.39014 1.36618,1.6502 2.01976,2.1754 2.70711,2.1754 0.49837,0 1.08001,0.23689 1.29255,0.52643 0.2855,0.38891 1.29567,0.56598 3.86708,0.67784 l 3.48065,0.15142 -3.29168,-0.34107 c -1.97368,-0.20451 -3.51769,-0.54561 -3.85612,-0.85188 -0.31044,-0.28094 -0.89589,-0.5108 -1.301,-0.5108 -0.77229,0 -3.54253,-2.68364 -3.98329,-3.85875 -0.23853,-0.63596 -0.0326,-0.66609 4.55183,-0.66609 h 4.80167 l 3.15686,1.36921 c 4.88119,2.11709 7.01235,3.26594 10.98003,5.91907 7.29254,4.87643 10.68056,7.93719 14.99266,13.54454 2.01009,2.61389 2.38686,3.41874 1.42806,3.05082 -0.30975,-0.11886 -0.44948,-0.0605 -0.32753,0.13679 0.11695,0.18924 0.51665,0.34408 0.88823,0.34408 0.37158,0 0.67665,0.11747 0.67797,0.26105 0.003,0.14357 -0.11895,0.82397 0.55997,1.28638 1.12569,0.83763 -1.41857,0.35732 1.57366,1.9587 l -0.70813,-0.37898 0.67831,1.97156 c 0.37309,1.08436 0.67834,1.99822 0.67834,2.03081 0,0.0326 -0.45191,-0.007 -1.00423,-0.0881 -1.44462,-0.21203 -2.47663,0.44893 -2.47547,1.58544 0,0.51971 -0.35186,1.62816 -0.78314,2.46323 l -0.78411,1.5183 -6.78726,-0.20237 c -6.09243,-0.18165 -8.77826,-0.0421 -12.96926,0.67387 -1.11164,0.18991 -1.27665,0.13908 -1.09397,-0.33699 0.30871,-0.80447 -0.34535,-0.69098 -1.48594,0.25782 -1.95172,1.62356 -2.35834,1.69563 -11.39892,2.02049 -4.80068,0.1725 -11.23457,0.4412 -14.29753,0.5971 -16.46354,0.83799 -46.72473,-0.0708 -49.77321,-1.49474 -0.64918,-0.30323 -3.34848,-0.62172 -7.13532,-0.84189 -6.55563,-0.38114 -8.87783,-0.75209 -11.35471,-1.8138 -2.03096,-0.87057 -9.37124,-0.96473 -12.32484,-0.1581 -1.04675,0.28587 -3.16985,0.8267 -4.71799,1.20185 -1.54814,0.37515 -3.27106,0.91679 -3.82871,1.20365 -0.55764,0.28685 -2.87355,1.39062 -5.14646,2.45282 l -4.13255,1.93127 -8.57179,0.0294 c -4.7145,0.0161 -9.51158,0.17344 -10.66019,0.34953 -1.88495,0.28897 -6.08223,0.71431 -11.312095,1.14634 -1.052894,0.087 -2.227612,0.0846 -2.610483,-0.005 z M 268.17831,147.23329 c 0,-0.0752 -0.23495,-0.22694 -0.5221,-0.33714 -0.28716,-0.11019 -0.52211,-0.0486 -0.52211,0.1368 0,0.18542 0.23495,0.33714 0.52211,0.33714 0.28715,0 0.5221,-0.0616 0.5221,-0.1368 z m -4.3321,-2.10655 c -2.90807,-1.45948 -5.76178,-3.7073 -5.76178,-4.53842 0,-0.20644 -0.90062,-1.26415 -2.00136,-2.35047 -1.65594,-1.63422 -2.35942,-2.06788 -4.07587,-2.51257 -1.14097,-0.2956 -2.4091,-0.53745 -2.81806,-0.53745 -1.26299,0 -2.78021,-0.97095 -5.0442,-3.22807 -1.19544,-1.19181 -2.04267,-1.93198 -1.88275,-1.64483 0.15993,0.28716 0.57446,0.72677 0.92119,0.97692 0.34673,0.25015 0.63042,0.66006 0.63042,0.91092 0,0.75545 4.08038,3.33313 5.27623,3.33313 0.36951,0 1.66654,0.24986 2.8823,0.55525 1.90474,0.47846 2.4562,0.81452 3.98725,2.42985 0.97724,1.03102 1.77748,1.99503 1.7783,2.14224 0,0.14721 0.66648,0.97609 1.47928,1.84195 1.40378,1.49548 3.98394,3.12458 4.94869,3.12458 0.24561,0 0.64156,0.23494 0.87987,0.52209 0.23831,0.28716 0.75957,0.5221 1.15832,0.5221 0.39878,0 -0.66225,-0.69625 -2.35783,-1.54722 z m -95.33349,-4.52954 c 1.95692,-0.55998 0.89715,-2.27679 -1.40546,-2.27679 -1.87358,0 -2.98748,0.74027 -2.44517,1.62501 0.40466,0.66018 1.71049,1.15396 2.57754,0.97465 0.28715,-0.0594 0.86004,-0.20467 1.27309,-0.32287 z m 61.67021,-1.0995 c 2.46842,-1.0012 0.13471,-2.17098 -4.39265,-2.20183 -2.81053,-0.0192 -5.2968,0.59679 -5.2968,1.31223 0,1.57952 6.51398,2.17757 9.68945,0.8896 z M 75.647456,134.07384 c 1.076738,-0.32834 1.123294,-0.39957 0.601967,-0.92089 -1.152483,-1.15249 -10.992665,-0.89468 -10.992665,0.28799 0,0.53849 0.65069,0.75487 3.061333,1.01801 2.662129,0.29059 5.62389,0.13497 7.329365,-0.38511 z m 57.611434,-3.40722 c 1.11815,-1.13532 -3.71543,-1.98519 -5.18386,-0.91145 -0.55185,0.40353 -0.5877,0.57456 -0.21464,1.02408 0.77709,0.93632 4.44069,0.85989 5.3985,-0.11263 z m 62.28152,-2.4376 c 1.02671,-0.002 1.59067,-0.13704 1.45873,-0.35054 -0.28239,-0.4569 -12.35629,-0.47244 -12.35629,-0.0159 0,0.39691 3.80319,0.66626 6.96129,0.49302 1.24433,-0.0683 3.01565,-0.12522 3.93627,-0.12658 z"
       id="path969"
       inkscape:connector-curvature="0"
       sodipodi:nodetypes="cccccsscccscssscscsscscssscscsscscsccsccsccccssccsssssscccccssccssssscscsssccssccccssscssccsssssssssssscsccscc" />
    <path
       style="opacity:1;fill:#668000;fill-opacity:1;fill-rule:nonzero;stroke:none;stroke-width:0.26499999;stroke-linecap:round;stroke-linejoin:round;stroke-miterlimit:4;stroke-dasharray:none;stroke-dashoffset:0;stroke-opacity:1;paint-order:markers fill stroke"
       d="m 185.4779,198.43754 -0.61888,-0.32012 -12.71796,-0.0327 -12.71795,-0.0326 v -3.15457 c 0,-2.92351 0.0159,-3.15425 0.2166,-3.15019 0.11914,0.002 0.35586,0.084 0.52605,0.18128 0.26406,0.15095 2.83582,0.17753 17.53637,0.18128 15.82344,0.004 17.24351,-0.0122 17.43045,-0.19915 0.17662,-0.17661 0.67286,-0.21087 3.75306,-0.25906 2.73058,-0.0427 3.69232,-0.0998 4.16841,-0.2472 0.49926,-0.15463 1.67147,-0.20749 6.06501,-0.27351 5.71684,-0.0859 6.53012,-0.16435 7.55032,-0.72834 0.32676,-0.18064 1.03983,-0.21063 5.94115,-0.2498 4.34504,-0.0347 5.64039,-0.081 5.89073,-0.21048 0.17651,-0.0913 0.76138,-0.20541 1.29973,-0.25363 0.53835,-0.0482 1.09561,-0.16356 1.23836,-0.2563 0.15768,-0.10244 0.81347,-0.19895 1.67097,-0.2459 0.93288,-0.0511 1.53734,-0.14489 1.78276,-0.27668 0.33361,-0.17915 1.50967,-0.1994 11.5785,-0.1994 10.06147,0 11.23825,0.0202 11.51114,0.19793 0.16719,0.10887 0.50737,0.23569 0.75597,0.28183 0.30917,0.0574 0.55208,0.2151 0.7687,0.49908 0.22106,0.28984 0.45831,0.44139 0.78576,0.50197 0.50755,0.0939 1.43232,0.65706 2.51137,1.52933 0.37441,0.30267 0.87569,0.63429 1.11397,0.73694 0.23826,0.10264 1.16838,0.54273 2.06693,0.97796 l 1.63369,0.79133 0.0373,0.63251 0.0373,0.63252 0.58102,0.14697 c 0.31957,0.0808 0.65376,0.2048 0.74266,0.27548 0.0889,0.0707 0.35658,0.16504 0.59484,0.20967 0.23828,0.0446 0.73697,0.27469 1.10826,0.51125 0.56853,0.36225 0.78679,0.43009 1.38361,0.43009 0.50961,0 0.76959,0.0608 0.92578,0.21661 0.20687,0.20632 0.12059,0.2204 -1.81684,0.29654 -1.11872,0.044 -4.84683,0.0997 -8.28469,0.12377 l -6.25068,0.0439 -2.41363,-0.39383 c -7.87389,-1.28479 -16.86116,-1.87148 -26.488,-1.72915 -9.90423,0.14643 -18.82653,0.87634 -30.44883,2.49094 -3.67333,0.51031 -4.09948,0.5446 -7.36466,0.59263 l -3.46571,0.051 z"
       id="path991"
       inkscape:connector-curvature="0" />
    <path
       style="opacity:1;fill:#668000;fill-opacity:1;fill-rule:nonzero;stroke:none;stroke-width:0.26499999;stroke-linecap:round;stroke-linejoin:round;stroke-miterlimit:4;stroke-dasharray:none;stroke-dashoffset:0;stroke-opacity:1;paint-order:markers fill stroke"
       d="m 100.5586,198.74137 c -0.40602,-0.14952 -3.171485,-0.56044 -9.1496,-1.35955 -17.283152,-2.31027 -32.987329,-2.86792 -45.42569,-1.61304 -3.038793,0.30658 -7.744172,1.01313 -10.735408,1.61201 -2.570395,0.51463 -2.882614,0.55096 -4.73442,0.55096 h -1.982549 l -14.605535,-0.35663 c -2.555445,-1.56293 -1.915957,-3.12586 -1.980412,-4.68878 0.07603,-1.44323 0.618481,-1.17094 4.912292,-3.36425 0.319077,-0.0803 14.118524,-0.81674 15.688572,-0.88003 1.570051,-0.0633 2.993885,-0.1426 3.164076,-0.17626 0.84724,-0.16752 4.514442,-0.67249 5.384244,-0.74139 0.544613,-0.0431 1.769991,-0.1564 2.723065,-0.25167 0.953074,-0.0953 2.262002,-0.21043 2.908729,-0.25591 0.646729,-0.0455 1.398666,-0.17361 1.670973,-0.28474 0.450337,-0.18377 2.173806,-0.20204 19.061461,-0.20204 16.965277,0 18.593044,0.0174 18.875799,0.20209 0.252177,0.16469 0.821695,0.21684 3.077741,0.28179 1.522569,0.0438 2.873076,0.13577 3.001129,0.2043 0.128051,0.0685 0.553286,0.18289 0.944965,0.25413 0.391681,0.0712 0.962792,0.20465 1.269137,0.29646 0.306346,0.0918 1.197531,0.19843 1.980412,0.23693 0.782881,0.0385 1.612664,0.12451 1.843966,0.19113 0.231301,0.0666 0.869505,0.18259 1.41823,0.25772 0.548723,0.0751 1.111413,0.20198 1.250423,0.2819 0.18871,0.10848 4.6347,0.16097 17.54817,0.20718 l 17.29542,0.0619 0.36715,0.44546 0.36716,0.44545 1.95587,0.0685 c 1.32298,0.0463 2.11609,0.13045 2.45098,0.25994 0.41208,0.15934 1.35823,0.19769 5.64216,0.22871 l 5.14705,0.0373 0.45606,0.40049 c 0.25085,0.22026 0.58038,0.42685 0.7323,0.45909 0.15193,0.0322 1.72441,0.0776 3.4944,0.10084 2.52688,0.0332 3.28463,0.0808 3.5276,0.22167 0.47036,0.27276 34.56509,0.27011 35.02854,-0.003 0.2434,-0.1433 1.07548,-0.19978 3.89893,-0.26465 2.18476,-0.0502 3.75903,-0.13913 4.02271,-0.22725 0.23827,-0.0796 1.44774,-0.17763 2.68772,-0.2178 l 2.25451,-0.073 0.0406,-1.12663 c 0.0223,-0.61966 0.0424,0.90637 0.0447,3.39117 0.002,2.4848 -0.0173,4.28109 -0.0433,3.99177 -0.0371,-0.41192 -0.097,-0.52605 -0.27601,-0.52605 -0.67269,0 -6.87895,0.756 -11.63961,1.41785 -2.65407,0.36898 -3.46742,0.43012 -6.5175,0.48989 l -3.485,0.0683 -0.5996,-0.33819 -0.5996,-0.33819 -36.59984,-0.0318 -36.59984,-0.0318 -0.67632,0.25304 c -0.37198,0.13918 -0.74392,0.3345 -0.82653,0.43404 -0.20972,0.25269 -8.97435,0.25306 -9.66043,2.6e-4 z"
       id="path993"
       inkscape:connector-curvature="0"
       sodipodi:nodetypes="csscsccccccscscscscccccscscccsssccccccccsccccsssccccccccc" />
  </g>
</svg>
