<?xml version="1.0" encoding="UTF-8" standalone="no"?>
<!-- Created with Inkscape (http://www.inkscape.org/) -->

<svg
   xmlns:dc="http://purl.org/dc/elements/1.1/"
   xmlns:cc="http://creativecommons.org/ns#"
   xmlns:rdf="http://www.w3.org/1999/02/22-rdf-syntax-ns#"
   xmlns:svg="http://www.w3.org/2000/svg"
   xmlns="http://www.w3.org/2000/svg"
   xmlns:xlink="http://www.w3.org/1999/xlink"
   xmlns:sodipodi="http://sodipodi.sourceforge.net/DTD/sodipodi-0.dtd"
   xmlns:inkscape="http://www.inkscape.org/namespaces/inkscape"
   width="297mm"
   height="210mm"
   viewBox="0 0 297 210"
   version="1.1"
   id="svg8"
   inkscape:version="0.92.2 (5c3e80d, 2017-08-06)"
   sodipodi:docname="luna.svg">
  <defs
     id="defs2">
    <inkscape:path-effect
       effect="spiro"
       id="path-effect878"
       is_visible="true" />
    <inkscape:path-effect
       effect="simplify"
       id="path-effect876"
       is_visible="true"
       steps="1"
       threshold="0.0002"
       smooth_angles="360"
       helper_size="0"
       simplify_individual_paths="false"
       simplify_just_coalesce="false"
       simplifyindividualpaths="false"
       simplifyJustCoalesce="false" />
    <linearGradient
       inkscape:collect="always"
       id="linearGradient870">
      <stop
         style="stop-color:#cccccc;stop-opacity:1;"
         offset="0"
         id="stop866" />
      <stop
         style="stop-color:#cccccc;stop-opacity:0;"
         offset="1"
         id="stop868" />
    </linearGradient>
    <linearGradient
       inkscape:collect="always"
       xlink:href="#linearGradient870"
       id="linearGradient872"
       x1="133.16025"
       y1="121.87794"
       x2="62.724876"
       y2="115.32983"
       gradientUnits="userSpaceOnUse"
       gradientTransform="matrix(1.5111615,0,0,1.5439283,-40.636561,0.61598576)" />
  </defs>
  <sodipodi:namedview
     id="base"
     pagecolor="#ffffff"
     bordercolor="#666666"
     borderopacity="1.0"
     inkscape:pageopacity="0.0"
     inkscape:pageshadow="2"
     inkscape:zoom="0.35355339"
     inkscape:cx="653.19959"
     inkscape:cy="642.50198"
     inkscape:document-units="mm"
     inkscape:current-layer="layer1"
     showgrid="false"
     inkscape:window-width="1366"
     inkscape:window-height="705"
     inkscape:window-x="-8"
     inkscape:window-y="-8"
     inkscape:window-maximized="1" />
  <metadata
     id="metadata5">
    <rdf:RDF>
      <cc:Work
         rdf:about="">
        <dc:format>image/svg+xml</dc:format>
        <dc:type
           rdf:resource="http://purl.org/dc/dcmitype/StillImage" />
        <dc:title></dc:title>
      </cc:Work>
    </rdf:RDF>
  </metadata>
  <g
     inkscape:label="Capa 1"
     inkscape:groupmode="layer"
     id="layer1"
     transform="translate(0,-87)">
    <ellipse
       style="opacity:1;fill:url(#linearGradient872);fill-opacity:1;fill-rule:nonzero;stroke:none;stroke-width:0.26499999;stroke-linecap:round;stroke-linejoin:round;stroke-miterlimit:4;stroke-dasharray:none;stroke-dashoffset:0;stroke-opacity:1;paint-order:markers fill stroke"
       id="path815"
       cx="148.08232"
       cy="187.92024"
       rx="66.371475"
       ry="63.725636" />
    <ellipse
       style="opacity:1;fill:#b3b3b3;fill-opacity:1;fill-rule:nonzero;stroke:none;stroke-width:0.26499999;stroke-linecap:round;stroke-linejoin:round;stroke-miterlimit:4;stroke-dasharray:none;stroke-dashoffset:0;stroke-opacity:1;paint-order:markers fill stroke"
       id="path823"
       cx="132.95424"
       cy="202.37369"
       rx="1.9790483"
       ry="2.888515" />
    <ellipse
       style="opacity:1;fill:#b3b3b3;fill-opacity:1;fill-rule:nonzero;stroke:none;stroke-width:0.26499999;stroke-linecap:round;stroke-linejoin:round;stroke-miterlimit:4;stroke-dasharray:none;stroke-dashoffset:0;stroke-opacity:1;paint-order:markers fill stroke"
       id="path825"
       cx="172.9593"
       cy="171.61104"
       rx="5.7957845"
       ry="5.3437524" />
    <ellipse
       style="opacity:1;fill:#b3b3b3;fill-opacity:1;fill-rule:nonzero;stroke:none;stroke-width:0.26499999;stroke-linecap:round;stroke-linejoin:round;stroke-miterlimit:4;stroke-dasharray:none;stroke-dashoffset:0;stroke-opacity:1;paint-order:markers fill stroke"
       id="path827"
       cx="184.97496"
       cy="217.39398"
       rx="4.5235391"
       ry="4.621624" />
    <ellipse
       style="opacity:1;fill:#b3b3b3;fill-opacity:1;fill-rule:nonzero;stroke:none;stroke-width:0.26499999;stroke-linecap:round;stroke-linejoin:round;stroke-miterlimit:4;stroke-dasharray:none;stroke-dashoffset:0;stroke-opacity:1;paint-order:markers fill stroke"
       id="path829"
       cx="202.50366"
       cy="170.02234"
       rx="3.1099331"
       ry="6.932435" />
    <ellipse
       style="opacity:1;fill:#b3b3b3;fill-opacity:1;fill-rule:nonzero;stroke:none;stroke-width:0.26499999;stroke-linecap:round;stroke-linejoin:round;stroke-miterlimit:4;stroke-dasharray:none;stroke-dashoffset:0;stroke-opacity:1;paint-order:markers fill stroke"
       id="path831"
       cx="183.7027"
       cy="197.46324"
       rx="3.2512939"
       ry="3.1773663" />
    <ellipse
       style="opacity:1;fill:#b3b3b3;fill-opacity:1;fill-rule:nonzero;stroke:none;stroke-width:0.26499999;stroke-linecap:round;stroke-linejoin:round;stroke-miterlimit:4;stroke-dasharray:none;stroke-dashoffset:0;stroke-opacity:1;paint-order:markers fill stroke"
       id="path833"
       cx="138.89139"
       cy="212.48351"
       rx="2.26177"
       ry="4.3327723" />
    <ellipse
       style="opacity:1;fill:#b3b3b3;fill-opacity:1;fill-rule:nonzero;stroke:none;stroke-width:0.26499999;stroke-linecap:round;stroke-linejoin:round;stroke-miterlimit:4;stroke-dasharray:none;stroke-dashoffset:0;stroke-opacity:1;paint-order:markers fill stroke"
       id="path838"
       cx="144.68716"
       cy="150.23602"
       rx="2.4031301"
       ry="2.7440891" />
    <ellipse
       style="opacity:1;fill:#b3b3b3;fill-opacity:1;fill-rule:nonzero;stroke:none;stroke-width:0.26499999;stroke-linecap:round;stroke-linejoin:round;stroke-miterlimit:4;stroke-dasharray:none;stroke-dashoffset:0;stroke-opacity:1;paint-order:markers fill stroke"
       id="path840"
       cx="190.20528"
       cy="153.26897"
       rx="3.8167365"
       ry="2.5996635" />
    <ellipse
       style="opacity:1;fill:#b3b3b3;fill-opacity:1;fill-rule:nonzero;stroke:none;stroke-width:0.26499999;stroke-linecap:round;stroke-linejoin:round;stroke-miterlimit:4;stroke-dasharray:none;stroke-dashoffset:0;stroke-opacity:1;paint-order:markers fill stroke"
       id="path842"
       cx="129.98567"
       cy="171.32219"
       rx="4.6648993"
       ry="3.3217924" />
    <ellipse
       style="opacity:1;fill:#b3b3b3;fill-opacity:1;fill-rule:nonzero;stroke:none;stroke-width:0.26499999;stroke-linecap:round;stroke-linejoin:round;stroke-miterlimit:4;stroke-dasharray:none;stroke-dashoffset:0;stroke-opacity:1;paint-order:markers fill stroke"
       id="path847"
       cx="164.90172"
       cy="232.5587"
       rx="5.0889816"
       ry="6.7880106" />
    <ellipse
       style="opacity:1;fill:#b3b3b3;fill-opacity:1;fill-rule:nonzero;stroke:none;stroke-width:0.26499999;stroke-linecap:round;stroke-linejoin:round;stroke-miterlimit:4;stroke-dasharray:none;stroke-dashoffset:0;stroke-opacity:1;paint-order:markers fill stroke"
       id="path852"
       cx="201.37276"
       cy="193.70818"
       rx="3.3926539"
       ry="6.0658808" />
    <ellipse
       style="opacity:1;fill:#b3b3b3;fill-opacity:1;fill-rule:nonzero;stroke:none;stroke-width:0.26499999;stroke-linecap:round;stroke-linejoin:round;stroke-miterlimit:4;stroke-dasharray:none;stroke-dashoffset:0;stroke-opacity:1;paint-order:markers fill stroke"
       id="path854"
       cx="124.33127"
       cy="141.85931"
       rx="2.9685724"
       ry="2.7440891" />
    <ellipse
       style="opacity:1;fill:#b3b3b3;fill-opacity:1;fill-rule:nonzero;stroke:none;stroke-width:0.26499999;stroke-linecap:round;stroke-linejoin:round;stroke-miterlimit:4;stroke-dasharray:none;stroke-dashoffset:0;stroke-opacity:1;paint-order:markers fill stroke"
       id="path856"
       cx="175.22105"
       cy="135.79343"
       rx="4.6648993"
       ry="4.7660494" />
    <path
       style="fill:#999999;fill-opacity:1;stroke:none;stroke-width:0.26458332px;stroke-linecap:butt;stroke-linejoin:miter;stroke-opacity:1"
       d="m 158.70703,163.37012 c 0.12381,0.074 0.22444,0.18618 0.28462,0.31726 0.0602,0.13108 0.0797,0.28051 0.0551,0.42264 -0.0118,0.0684 -0.0335,0.13469 -0.0479,0.20257 -0.0454,0.21343 -0.0178,0.43809 0.053,0.64447 0.0606,0.17659 0.15345,0.34745 0.15967,0.53406 0.004,0.12777 -0.0327,0.2528 -0.0523,0.37914 -0.01,0.0632 -0.0152,0.12743 -0.009,0.19104 0.006,0.0636 0.025,0.12676 0.0602,0.18009 0.0274,0.0415 0.064,0.0759 0.0978,0.1124 0.0338,0.0365 0.0657,0.0766 0.0806,0.12406 0.0113,0.036 0.0121,0.0745 0.008,0.11201 -0.004,0.0375 -0.0121,0.0744 -0.0189,0.11148 -0.0772,0.42295 0.0454,0.85941 -5.5e-4,1.2869 -0.007,0.0679 -0.0189,0.1356 -0.0198,0.20392 -9.8e-4,0.0683 0.009,0.13849 0.0429,0.19799 0.0402,0.0711 0.10921,0.12027 0.17312,0.1712 0.0319,0.0255 0.0633,0.0521 0.0898,0.0831 0.0266,0.031 0.0484,0.0668 0.0591,0.10623 0.01,0.0353 0.01,0.0726 0.007,0.109 -0.003,0.0365 -0.0104,0.0724 -0.0155,0.10868 -0.0372,0.26437 0.0297,0.53453 -0.002,0.7996 -0.0103,0.086 -0.0309,0.17062 -0.0378,0.25695 -0.007,0.0863 0.001,0.1769 0.0446,0.25189 0.0235,0.0407 0.0564,0.0751 0.0884,0.10962 0.032,0.0345 0.0639,0.07 0.0849,0.11213 0.0308,0.0618 0.0359,0.13356 0.0289,0.20223 -0.007,0.0687 -0.0252,0.13558 -0.0391,0.20319 -0.0366,0.17833 -0.0423,0.36364 -0.009,0.54268 0.0474,0.25815 0.17399,0.50155 0.18271,0.76388 0.004,0.13289 -0.0216,0.26866 0.0115,0.39743 0.0343,0.13311 0.12872,0.24532 0.15836,0.37953 0.0192,0.0869 0.01,0.17762 -0.007,0.2649 -0.0128,0.0643 -0.0298,0.12787 -0.0365,0.19305 -0.007,0.0652 -0.002,0.13321 0.0256,0.19243 0.0192,0.0405 0.0487,0.0752 0.078,0.10921 0.0293,0.034 0.0591,0.0683 0.0791,0.10848 0.0195,0.0391 0.029,0.0823 0.0385,0.12497 0.01,0.0427 0.0194,0.0858 0.0396,0.12458 0.0204,0.0392 0.0511,0.0733 0.065,0.11529 0.007,0.021 0.009,0.0439 0.004,0.0653 -0.003,0.0107 -0.008,0.0208 -0.0149,0.0293 -0.007,0.009 -0.0161,0.0154 -0.0264,0.0195 -0.0165,0.006 -0.0354,0.005 -0.0518,-0.001 -0.0164,-0.007 -0.0305,-0.0183 -0.0415,-0.032 -0.0222,-0.0276 -0.0326,-0.0624 -0.0456,-0.0953 -0.01,-0.0242 -0.0209,-0.048 -0.0367,-0.0688 -0.0157,-0.0208 -0.0361,-0.0385 -0.0603,-0.0482 -0.0348,-0.0139 -0.0757,-0.01 -0.10834,0.009 -0.0326,0.0184 -0.057,0.0501 -0.0688,0.0856 -0.0119,0.0355 -0.0117,0.0746 -0.002,0.1108 0.009,0.0362 0.028,0.0698 0.0515,0.099 0.0469,0.0584 0.11209,0.0989 0.1769,0.13649 0.0648,0.0376 0.13157,0.0742 0.18442,0.12726 0.0563,0.0566 0.0939,0.12906 0.12498,0.2026 0.0311,0.0735 0.0567,0.14957 0.0938,0.22031 0.0367,0.0702 0.0841,0.13411 0.12625,0.2012 0.0421,0.0671 0.0795,0.13898 0.0929,0.21705 0.0183,0.10665 -0.009,0.21529 -0.0128,0.32345 -0.008,0.23274 0.096,0.45367 0.20754,0.65808 0.17322,0.31741 0.37219,0.62233 0.50942,0.95687 0.0587,0.14298 0.10595,0.29191 0.12222,0.44559 0.01,0.0932 0.008,0.1871 0.0108,0.28074 0.007,0.27151 0.0557,0.55418 0.21914,0.77111 0.0476,0.0632 0.10384,0.11921 0.154,0.18032 0.12419,0.15132 0.2089,0.33106 0.27921,0.51376 0.12196,0.31691 0.20485,0.65359 0.19508,0.99302 -0.004,0.15225 -0.0273,0.30403 -0.0213,0.45623 0.007,0.18308 0.0603,0.37034 0.18241,0.50691 0.0565,0.0632 0.12577,0.11354 0.188,0.17115 0.0622,0.0576 0.11921,0.12583 0.14034,0.20796 0.0217,0.0845 0.003,0.17336 -0.014,0.25883 -0.0173,0.0855 -0.0333,0.17541 -0.007,0.25854 0.023,0.0727 0.0766,0.13249 0.13846,0.17696 0.0619,0.0445 0.13229,0.0753 0.20184,0.10646 0.0374,0.0168 0.075,0.0338 0.10852,0.0574 0.0335,0.0236 0.0631,0.0544 0.0789,0.0922 0.0154,0.0366 0.0171,0.0775 0.015,0.11711 -0.002,0.0396 -0.008,0.0792 -0.006,0.11886 0.004,0.0968 0.0506,0.18711 0.10815,0.26499 0.0576,0.0779 0.12673,0.14656 0.1854,0.22362 0.0784,0.10293 0.14022,0.22294 0.2456,0.29797 0.055,0.0391 0.12031,0.0648 0.16661,0.11383 0.0231,0.0245 0.041,0.0552 0.0454,0.0886 0.002,0.0167 0.001,0.034 -0.004,0.05 -0.005,0.0161 -0.0144,0.0309 -0.0271,0.0421 -0.0137,0.0121 -0.0307,0.0197 -0.0475,0.0269 -0.0168,0.007 -0.0338,0.0147 -0.0477,0.0266 -0.0129,0.0112 -0.0225,0.0259 -0.0282,0.042 -0.006,0.0161 -0.008,0.0333 -0.007,0.0504 0.002,0.0341 0.0158,0.0664 0.0332,0.0958 0.0173,0.0294 0.0383,0.0565 0.0565,0.0853 0.0182,0.0289 0.0338,0.0602 0.0388,0.0939 0.006,0.0415 -0.004,0.0836 -0.0161,0.12385 -0.012,0.0402 -0.0259,0.0806 -0.0272,0.12257 -6.5e-4,0.021 0.002,0.0422 0.009,0.0619 0.007,0.0197 0.0197,0.0377 0.0364,0.0504 0.0167,0.0127 0.038,0.0197 0.0589,0.0179 0.0209,-0.002 0.0411,-0.0131 0.0525,-0.0307 0.006,-0.009 0.01,-0.0205 0.0108,-0.0317 0.001,-0.0112 2.3e-4,-0.0226 -0.002,-0.0336 -0.005,-0.022 -0.0147,-0.0425 -0.0236,-0.0632 -0.009,-0.0206 -0.0171,-0.0422 -0.0178,-0.0647 -3.4e-4,-0.0113 0.001,-0.0226 0.005,-0.0331 0.004,-0.0105 0.0109,-0.02 0.02,-0.0267 0.009,-0.006 0.0191,-0.0102 0.0298,-0.0111 0.0107,-9e-4 0.0216,0.001 0.0315,0.005 0.0198,0.008 0.0354,0.025 0.045,0.0442 0.01,0.0192 0.0137,0.0407 0.0152,0.0622 0.001,0.0214 4.3e-4,0.0429 2.8e-4,0.0644 -4.9e-4,0.0684 0.009,0.13827 0.039,0.19955 0.0193,0.0389 0.0465,0.0731 0.072,0.10823 0.0255,0.0351 0.0498,0.072 0.062,0.1137 0.0111,0.0381 0.0116,0.0783 0.0128,0.11793 0.001,0.0396 0.003,0.08 0.0171,0.11716 0.0131,0.0348 0.0362,0.0653 0.0641,0.0899 0.0279,0.0246 0.0604,0.0434 0.0943,0.0587 0.0678,0.0305 0.14118,0.0467 0.20991,0.0751 0.12531,0.0516 0.23193,0.14239 0.31625,0.24849 0.0843,0.10609 0.14757,0.22741 0.202,0.35152 0.032,0.073 0.0617,0.1481 0.10888,0.21232 0.0236,0.0321 0.0516,0.0613 0.0845,0.0838 0.0329,0.0226 0.0707,0.0384 0.11031,0.043 0.0296,0.003 0.0595,7.7e-4 0.0891,0.004 0.0148,0.001 0.0296,0.004 0.0433,0.0101 0.0137,0.006 0.0265,0.0142 0.0359,0.0257 0.009,0.0114 0.0152,0.0254 0.0189,0.0397 0.004,0.0143 0.006,0.029 0.008,0.0436 0.002,0.0146 0.005,0.0293 0.01,0.0431 0.005,0.0139 0.0128,0.0271 0.0241,0.0366 0.009,0.008 0.0206,0.0129 0.0324,0.0155 0.0118,0.003 0.0241,0.003 0.0361,0.001 0.024,-0.003 0.0465,-0.0129 0.0687,-0.0224 0.0222,-0.01 0.0448,-0.0192 0.0688,-0.0222 0.012,-0.002 0.0243,-0.001 0.0361,0.001 0.0118,0.003 0.0231,0.008 0.0322,0.0159 0.0154,0.0134 0.0237,0.0337 0.0256,0.054 0.002,0.0203 -0.002,0.0408 -0.008,0.0602 -0.006,0.0194 -0.0145,0.0382 -0.0214,0.0574 -0.007,0.0192 -0.0124,0.0392 -0.0128,0.0596 -5.1e-4,0.0291 0.01,0.0577 0.0248,0.0826 0.0151,0.0249 0.0351,0.0465 0.0556,0.0673 0.0351,0.0354 0.0729,0.0693 0.0986,0.112 0.0219,0.0363 0.0341,0.0776 0.0431,0.11903 0.009,0.0414 0.0152,0.0835 0.0261,0.12445 0.024,0.0904 0.0705,0.17322 0.0999,0.26201 0.0251,0.0757 0.0377,0.15539 0.0675,0.22932 0.0308,0.0763 0.0795,0.14514 0.10291,0.22402 0.034,0.11444 0.0114,0.23689 -0.007,0.3549 -0.20798,1.36558 0.23349,2.77179 1.9e-4,4.13327 -0.0137,0.0801 -0.0298,0.16163 -0.0186,0.24215 0.0103,0.0738 0.0431,0.14228 0.0721,0.21096 0.029,0.0687 0.055,0.14134 0.0506,0.21576 -0.002,0.0372 -0.0122,0.0743 -0.0319,0.10596 -0.0197,0.0316 -0.0494,0.0575 -0.0846,0.0699 -0.0352,0.0123 -0.0758,0.0102 -0.1081,-0.008 -0.0162,-0.009 -0.0301,-0.0225 -0.0399,-0.0383 -0.01,-0.0158 -0.0154,-0.0343 -0.0157,-0.053 -2.4e-4,-0.0182 0.005,-0.0361 0.0106,-0.0532 0.006,-0.0172 0.0134,-0.0339 0.0187,-0.0513 0.005,-0.0174 0.008,-0.0358 0.006,-0.0538 -0.001,-0.009 -0.004,-0.0178 -0.009,-0.0257 -0.004,-0.008 -0.0106,-0.0149 -0.0182,-0.02 -0.009,-0.006 -0.0189,-0.009 -0.0293,-0.01 -0.0104,-8.7e-4 -0.0208,4.9e-4 -0.0309,0.003 -0.0243,0.006 -0.0461,0.0207 -0.0632,0.0391 -0.0171,0.0184 -0.0297,0.0407 -0.0381,0.0644 -0.017,0.0473 -0.0179,0.0986 -0.0175,0.1488 0.001,0.12721 0.01,0.25459 0.001,0.38152 -0.004,0.061 -0.0123,0.12203 -0.0305,0.18039 -0.0182,0.0583 -0.0467,0.11414 -0.0881,0.15914 -0.0496,0.0539 -0.11523,0.0902 -0.16915,0.13981 -0.0821,0.0754 -0.13356,0.17837 -0.17184,0.28304 -0.0383,0.10466 -0.0652,0.21342 -0.10782,0.31638 -0.0251,0.0606 -0.0556,0.11891 -0.0788,0.18025 -0.0232,0.0613 -0.0392,0.12683 -0.0335,0.19217 0.006,0.0665 0.0335,0.13015 0.0347,0.1969 0.001,0.056 -0.0177,0.11228 -0.0525,0.15615 -0.0348,0.0439 -0.0856,0.0749 -0.1407,0.0851 -0.0293,0.005 -0.0594,0.005 -0.0891,0.008 -0.0297,0.003 -0.06,0.0106 -0.0835,0.029 -0.0264,0.0207 -0.0413,0.0535 -0.0456,0.0866 -0.004,0.0332 8.8e-4,0.0669 0.009,0.0994 0.008,0.0325 0.0189,0.0643 0.0261,0.097 0.007,0.0327 0.0106,0.0669 0.004,0.0996 -0.0101,0.047 -0.0409,0.0871 -0.0754,0.12063 -0.0345,0.0336 -0.0734,0.0625 -0.10624,0.0976 -0.0554,0.0593 -0.0914,0.13483 -0.11283,0.21311 -0.0215,0.0783 -0.0291,0.15968 -0.0332,0.24074 -0.007,0.13036 -0.005,0.2614 0.0119,0.39089 0.005,0.0415 0.012,0.0829 0.0131,0.12471 0.001,0.0418 -0.004,0.0845 -0.0204,0.12274 -0.0195,0.0445 -0.054,0.0805 -0.0873,0.11586 -0.0333,0.0354 -0.067,0.0724 -0.0842,0.11786 -0.0143,0.0376 -0.0163,0.079 -0.0123,0.11901 0.004,0.04 0.014,0.0792 0.0233,0.11836 0.24406,1.02985 0.0138,2.10505 -2.7e-4,3.16333 -0.001,0.0796 -2.5e-4,0.16226 0.0336,0.23436 0.0216,0.0461 0.0557,0.0853 0.093,0.11996 0.0373,0.0346 0.0782,0.0652 0.11683,0.0984 0.14041,0.1206 0.25016,0.27554 0.32322,0.4456 0.0217,0.0504 0.0402,0.10216 0.0635,0.15181 0.0233,0.0497 0.0519,0.0976 0.0908,0.13624 0.0695,0.069 0.16548,0.1025 0.25372,0.14503 0.0441,0.0213 0.0873,0.0454 0.1243,0.0775 0.037,0.0321 0.0678,0.0726 0.0825,0.11935 0.012,0.0381 0.0129,0.0787 0.0136,0.11871 7.6e-4,0.04 0.002,0.0806 0.0134,0.11875 0.0152,0.0492 0.0478,0.0914 0.0856,0.12635 0.0377,0.035 0.0808,0.0636 0.12241,0.0939 0.46498,0.33765 0.74787,0.8656 1.13411,1.29108 0.0728,0.0802 0.15192,0.1611 0.18283,0.26486 0.0154,0.0517 0.0178,0.10653 0.0324,0.15848 0.007,0.026 0.0177,0.0513 0.0335,0.0732 0.0158,0.0219 0.0371,0.0402 0.0624,0.0497 0.0284,0.0106 0.0596,0.01 0.0899,0.0104 0.0152,4.5e-4 0.0304,0.001 0.0452,0.005 0.0148,0.003 0.0293,0.009 0.0415,0.0179 0.0154,0.0114 0.0266,0.028 0.0332,0.046 0.007,0.018 0.009,0.0374 0.008,0.0566 -0.001,0.0383 -0.0138,0.0752 -0.0222,0.11263 -0.025,0.11049 -0.0145,0.23072 0.04,0.33002 0.0272,0.0496 0.0652,0.0936 0.11127,0.12652 0.0461,0.0329 0.10033,0.0547 0.1566,0.0611 0.0324,0.004 0.0651,0.002 0.0977,0.003 0.0326,3.6e-4 0.0657,0.002 0.0966,0.0127 0.0443,0.0146 0.0821,0.0454 0.11044,0.0825 0.0283,0.037 0.0478,0.0802 0.0628,0.12434 0.03,0.0883 0.0437,0.183 0.088,0.26506 0.0416,0.0769 0.10743,0.13762 0.15847,0.20865 0.10277,0.14303 0.14205,0.32266 0.23571,0.47182 0.0483,0.0769 0.11062,0.14497 0.15251,0.22558 0.0242,0.0466 0.0419,0.0978 0.077,0.13699 0.0267,0.0299 0.062,0.0507 0.098,0.0683 0.036,0.0175 0.0735,0.0323 0.10814,0.0524 0.0811,0.047 0.14297,0.12096 0.1973,0.19737 0.0543,0.0764 0.10324,0.15726 0.1669,0.22609 0.0508,0.055 0.11018,0.10127 0.1653,0.15196 0.0551,0.0507 0.10699,0.10722 0.13758,0.17556 0.0329,0.0735 0.0391,0.15557 0.0494,0.2354 0.005,0.0382 0.011,0.0764 0.0233,0.11293 0.0123,0.0365 0.0312,0.0713 0.0589,0.0981 0.0241,0.0233 0.0539,0.0395 0.083,0.0561 0.0291,0.0166 0.0584,0.0341 0.0806,0.0593 0.0111,0.0126 0.0203,0.0269 0.0259,0.0427 0.006,0.0158 0.008,0.033 0.005,0.0495 -0.003,0.0165 -0.0114,0.0321 -0.024,0.0431 -0.0127,0.011 -0.0298,0.017 -0.0464,0.0153 -0.0185,-0.002 -0.0348,-0.0127 -0.0492,-0.0244 -0.0144,-0.0118 -0.0279,-0.025 -0.0445,-0.0333 -0.0232,-0.0117 -0.0512,-0.0126 -0.0757,-0.004 -0.0245,0.009 -0.0454,0.0263 -0.0592,0.0483 -0.0138,0.022 -0.0206,0.048 -0.0211,0.074 -4.2e-4,0.0259 0.005,0.0518 0.0155,0.0757 0.0201,0.0479 0.0562,0.0872 0.0947,0.12203 0.0385,0.0348 0.0802,0.0662 0.11582,0.10402 0.0558,0.0592 0.0949,0.13239 0.12476,0.20807 0.0299,0.0757 0.0511,0.15445 0.0753,0.23212 0.12617,0.4046 0.33428,0.77808 0.4971,1.16937 0.0658,0.15815 0.12486,0.32199 0.13733,0.49284 0.007,0.0947 -6.4e-4,0.18985 -0.005,0.28474 -0.0282,0.60716 0.0727,1.21839 -8.5e-4,1.82174 -0.009,0.0711 -0.0197,0.14224 -0.0186,0.21385 0.001,0.0716 0.0154,0.14472 0.0538,0.20519 0.041,0.0646 0.10565,0.10964 0.16569,0.15705 0.03,0.0237 0.0594,0.0485 0.0846,0.0773 0.0252,0.0288 0.0462,0.0618 0.0576,0.0983 0.0107,0.0344 0.0126,0.0711 0.0113,0.10712 -0.001,0.0361 -0.006,0.0719 -0.007,0.10798 -0.009,0.19486 0.0649,0.38325 0.14358,0.56173 0.0787,0.17848 0.16497,0.35858 0.1837,0.55274 0.008,0.0781 0.004,0.15958 0.0357,0.23161 0.0175,0.0402 0.0448,0.0753 0.0715,0.11002 0.0268,0.0348 0.0536,0.0703 0.0698,0.11103 0.0234,0.0587 0.0231,0.124 0.0184,0.18703 -0.005,0.063 -0.0133,0.12645 -0.005,0.18916 0.009,0.0733 0.0405,0.14172 0.0719,0.20858 0.0314,0.0669 0.0636,0.13468 0.075,0.20767 0.008,0.0527 0.005,0.10635 0.004,0.15965 -0.001,0.0533 -4.9e-4,0.10748 0.0147,0.15858 0.0246,0.0826 0.0849,0.14988 0.15007,0.20626 0.0652,0.0564 0.13727,0.10515 0.19696,0.16735 0.0673,0.0701 0.11751,0.15666 0.14392,0.25017 0.0214,0.0758 0.0272,0.15519 0.0453,0.23188 0.0345,0.1465 0.11487,0.28167 0.22615,0.38303 0.0598,0.0544 0.12783,0.0991 0.18871,0.1523 0.0609,0.0532 0.11584,0.11757 0.13809,0.1953 0.0114,0.04 0.0138,0.0819 0.0185,0.12324 0.005,0.0413 0.0123,0.0833 0.0329,0.11949 0.018,0.0315 0.045,0.0571 0.0747,0.078 0.0297,0.0209 0.062,0.0376 0.0939,0.0549 0.0846,0.0458 0.16853,0.0982 0.22707,0.17448 0.0416,0.0542 0.0685,0.1182 0.092,0.18237 0.0236,0.0642 0.0445,0.12965 0.076,0.19031 0.0875,0.16829 0.24913,0.28614 0.35095,0.44615 0.0773,0.12151 0.11824,0.26446 0.20385,0.38028 0.0463,0.0626 0.10426,0.11538 0.15744,0.17222 0.0532,0.0568 0.10275,0.11981 0.12671,0.19387 0.0165,0.051 0.0202,0.10537 0.035,0.15692 0.007,0.0258 0.0176,0.051 0.0329,0.073 0.0153,0.022 0.0358,0.0409 0.0605,0.0515 0.0296,0.0128 0.0629,0.0131 0.0952,0.0142 0.0323,0.001 0.0659,0.004 0.0937,0.0201 0.0283,0.0167 0.0471,0.0463 0.0575,0.0774 0.0104,0.0312 0.0132,0.0643 0.0159,0.097 0.003,0.0327 0.005,0.0659 0.0159,0.097 0.0104,0.0312 0.0292,0.0607 0.0574,0.0775 0.0267,0.0158 0.0588,0.0189 0.0897,0.0213 0.0309,0.002 0.063,0.005 0.0901,0.0202 0.0283,0.0158 0.0481,0.044 0.0599,0.0742 0.0118,0.0302 0.0165,0.0626 0.0207,0.0948 0.004,0.0321 0.008,0.0646 0.0191,0.0951 0.0108,0.0306 0.029,0.0596 0.0562,0.0772 0.0293,0.019 0.0656,0.0232 0.10044,0.0249 0.0349,0.002 0.0707,0.002 0.10334,0.0139 0.0225,0.008 0.0427,0.0225 0.0597,0.0394 0.017,0.017 0.031,0.0368 0.0428,0.0577 0.0236,0.0419 0.0387,0.0879 0.0584,0.13175 0.0224,0.0499 0.0506,0.0969 0.0756,0.14548 0.025,0.0486 0.047,0.0996 0.0555,0.15358 0.006,0.0387 0.005,0.0781 0.006,0.11723 0.001,0.0392 0.004,0.0789 0.0187,0.1154 0.0172,0.0442 0.0491,0.0809 0.0823,0.11486 0.0331,0.0339 0.0683,0.0665 0.0944,0.10612 0.0356,0.0542 0.0521,0.11826 0.0728,0.17967 0.0208,0.0614 0.0483,0.1238 0.0989,0.16434 0.0431,0.0346 0.0982,0.0495 0.15088,0.0664 0.0263,0.008 0.0525,0.0177 0.077,0.0306 0.0245,0.0128 0.0473,0.0295 0.0646,0.051 0.0218,0.027 0.0342,0.0609 0.0388,0.0953 0.005,0.0344 0.002,0.0695 -0.004,0.10362 -0.0124,0.0683 -0.0382,0.13401 -0.0458,0.20303 -0.005,0.0495 -0.001,0.10037 0.0151,0.14744 0.0163,0.0471 0.0449,0.0902 0.0837,0.12141 0.0419,0.0337 0.0936,0.0523 0.14445,0.0697 0.0509,0.0174 0.10283,0.0346 0.14642,0.066 0.0419,0.0302 0.0742,0.0726 0.0966,0.11919 0.0224,0.0466 0.0352,0.0973 0.0424,0.14846 0.0171,0.12155 0.003,0.24502 -0.008,0.36725 -0.0852,0.92778 -0.0142,1.86174 1.9e-4,2.79332 0.001,0.0811 0.002,0.1638 -0.022,0.24135 -0.0185,0.0601 -0.0509,0.11475 -0.0811,0.1699 -0.0302,0.0552 -0.0588,0.11261 -0.0684,0.17475 -0.005,0.0309 -0.005,0.0624 -0.009,0.0934 -0.005,0.0309 -0.0144,0.0623 -0.0357,0.0852 -0.0177,0.019 -0.0418,0.0307 -0.0657,0.0411 -0.0238,0.0104 -0.0484,0.0202 -0.0685,0.0367 -0.0234,0.0191 -0.0393,0.0465 -0.0472,0.0757 -0.008,0.0292 -0.008,0.0601 -0.003,0.0899 0.01,0.0596 0.0391,0.11389 0.065,0.16849 0.20564,0.43401 0.21508,0.93525 0.16509,1.41291 -0.05,0.47765 -0.15532,0.95029 -0.16528,1.43045 -0.002,0.0811 -4.7e-4,0.16342 0.022,0.24136 0.0184,0.064 0.0505,0.12294 0.0811,0.18208 0.0305,0.0591 0.06,0.11989 0.0725,0.18528 0.0166,0.0871 0.002,0.1767 -0.007,0.2649 -0.0304,0.28573 -0.005,0.57403 -0.001,0.86134 5.9e-4,0.0405 7.7e-4,0.081 0.006,0.12117 0.005,0.0401 0.0159,0.08 0.0362,0.11506 0.02,0.0345 0.0486,0.0633 0.0795,0.0885 0.0309,0.0252 0.0643,0.0471 0.0964,0.0709 0.032,0.0238 0.063,0.0496 0.0874,0.0811 0.0244,0.0315 0.0422,0.0692 0.0449,0.10902 0.002,0.0337 -0.006,0.0672 -0.0149,0.0998 -0.009,0.0326 -0.0182,0.0657 -0.0178,0.0995 4.9e-4,0.047 0.0198,0.0919 0.0433,0.13264 0.0235,0.0408 0.0515,0.079 0.072,0.12128 0.0349,0.0721 0.0468,0.15269 0.0646,0.23077 0.0109,0.048 0.0246,0.0961 0.0501,0.13824 0.0255,0.0421 0.0642,0.0781 0.11161,0.0912 0.031,0.009 0.0638,0.007 0.096,0.008 0.0322,8e-4 0.0657,0.004 0.0929,0.0219 0.0151,0.01 0.0275,0.0232 0.0366,0.0386 0.009,0.0154 0.0149,0.0327 0.0179,0.0503 0.006,0.0353 8.6e-4,0.0716 -0.008,0.10634 -0.009,0.0347 -0.0207,0.0686 -0.029,0.10338 -0.008,0.0348 -0.0127,0.0713 -0.006,0.1064 0.0103,0.0511 0.044,0.0948 0.0833,0.1289 0.0394,0.0341 0.0848,0.0604 0.12749,0.0903 0.18753,0.13121 0.3172,0.32716 0.46067,0.50549 0.059,0.0734 0.12212,0.14624 0.15531,0.23435 0.01,0.0256 0.0166,0.0521 0.0258,0.0778 0.009,0.0257 0.0209,0.051 0.0386,0.0718 0.0276,0.0323 0.068,0.0514 0.0961,0.0832 0.0175,0.0197 0.0296,0.0435 0.0442,0.0655 0.0146,0.0219 0.033,0.0429 0.0576,0.0524 0.0188,0.007 0.0397,0.007 0.0596,0.003 0.0198,-0.004 0.0388,-0.0108 0.0578,-0.0173 0.0191,-0.006 0.0385,-0.0125 0.0586,-0.0138 0.0201,-0.001 0.0411,0.002 0.0577,0.0138 0.0175,0.0121 0.0287,0.032 0.033,0.0528 0.004,0.0208 0.002,0.0426 -0.003,0.0632 -0.01,0.0414 -0.0312,0.0797 -0.0374,0.12183 -0.006,0.0435 0.004,0.0882 0.0223,0.12824 0.0181,0.0401 0.0435,0.0763 0.0687,0.11239 0.0629,0.09 0.12686,0.18496 0.14214,0.29374 0.01,0.0707 -0.002,0.14287 0.006,0.2138 0.004,0.0355 0.0129,0.0708 0.0309,0.10169 0.0179,0.0309 0.0453,0.057 0.0789,0.069 0.0281,0.0101 0.0587,0.01 0.0885,0.0113 0.0298,0.001 0.0609,0.005 0.0859,0.0213 0.0177,0.0115 0.0313,0.0288 0.0403,0.0479 0.009,0.0191 0.0136,0.0401 0.0158,0.0611 0.004,0.0421 -0.001,0.0846 0.002,0.12676 0.007,0.0823 0.0459,0.15843 0.0919,0.22693 0.0495,0.0736 0.10802,0.14217 0.14352,0.22343 0.0336,0.077 0.0449,0.16173 0.0697,0.24203 0.0124,0.0402 0.0284,0.0795 0.0515,0.11462 0.0231,0.0351 0.0537,0.0659 0.091,0.0853 0.0339,0.0176 0.0722,0.0255 0.10547,0.0443 0.0166,0.009 0.032,0.0216 0.0426,0.0374 0.0107,0.0158 0.0164,0.0355 0.0131,0.0543 -0.002,0.0113 -0.007,0.0221 -0.0144,0.0309 -0.007,0.009 -0.017,0.0157 -0.0276,0.02 -0.0213,0.009 -0.0462,0.007 -0.0669,-0.003 -0.0206,-0.0102 -0.0369,-0.0282 -0.0466,-0.049 -0.01,-0.0208 -0.013,-0.0444 -0.0113,-0.0673 0.002,-0.0307 0.014,-0.0613 0.036,-0.0829 0.0137,-0.0134 0.0309,-0.0229 0.0493,-0.0281 0.0184,-0.005 0.038,-0.006 0.0569,-0.003 0.0378,0.006 0.0723,0.0262 0.0998,0.0528 0.0551,0.0531 0.0827,0.12756 0.1205,0.19405 0.0451,0.0793 0.10664,0.15029 0.13578,0.2367 0.0288,0.0855 0.0233,0.17846 0.012,0.26795 -0.0113,0.0895 -0.0279,0.17938 -0.0202,0.26924 0.003,0.0293 0.008,0.0587 0.0183,0.0862 0.0106,0.0275 0.0268,0.0532 0.049,0.0725 0.0192,0.0166 0.0422,0.0279 0.0645,0.0401 0.0223,0.0121 0.0445,0.0256 0.0606,0.0452 0.0182,0.0221 0.0274,0.0508 0.0292,0.0794 0.002,0.0286 -0.003,0.0573 -0.0106,0.085 -0.0151,0.0553 -0.0404,0.10872 -0.0432,0.166 -0.003,0.0596 0.0207,0.12015 0.0635,0.16182 0.0365,0.0356 0.0851,0.0571 0.12057,0.0937 0.0365,0.0378 0.0566,0.0909 0.0542,0.14334 -0.002,0.0525 -0.0272,0.10353 -0.067,0.13783"
       id="path874"
       inkscape:connector-curvature="0"
       inkscape:path-effect="#path-effect876;#path-effect878"
       inkscape:original-d="m 158.70703,163.37012 c 0.64187,1.46398 0.15139,0.0599 0.33571,1.53134 0.0249,0.19974 0.13313,0.3764 0.16784,0.57425 0.006,0.0431 -0.008,0.7392 0,0.76568 0.0249,0.0855 0.13238,0.1107 0.16785,0.19142 0.0249,0.0571 0,0.12768 0,0.19142 0,0.12768 0,0.25522 0,0.38283 0,0.31904 0,0.63806 0,0.95709 0,0.12769 -0.0502,0.26869 0,0.38284 0.0707,0.16141 0.24793,0.23267 0.3357,0.38283 0.031,0.0531 0,0.12768 0,0.19142 0,0.25522 0,0.51045 0,0.76568 0,0.19141 -0.0408,0.38854 0,0.57424 0.0192,0.0876 0.1428,0.10576 0.16784,0.19142 0.0354,0.12105 0,0.25523 0,0.38285 0,0.12753 0,0.25521 0,0.38283 0,0.12768 -0.0219,0.2577 0,0.38283 0.0348,0.19786 0.12498,0.37851 0.16786,0.57427 0.0272,0.12382 -0.0354,0.26177 0,0.38283 0.0396,0.1354 0.1283,0.24748 0.16785,0.38283 0.0177,0.0605 0,0.12769 0,0.19142 0,0.12768 0,0.25523 0,0.38285 0,0.0638 -0.0249,0.13432 0,0.19141 0.0354,0.0807 0.1428,0.10576 0.16786,0.19142 0.38408,1.31407 -0.6427,-0.8916 0.16784,0.95708 0.0902,0.20578 0.26077,0.36066 0.33569,0.57426 0.0416,0.11842 0,0.25523 0,0.38284 0.0561,0.19141 0.0887,0.39378 0.16785,0.57425 0.14598,0.33277 0.34169,0.63407 0.50356,0.95709 0.0621,0.12383 0.13752,0.24442 0.16783,0.38284 0.027,0.12382 -0.0308,0.26013 0,0.38284 0.38722,1.54554 0.18426,0.42021 0.6714,1.53135 0.0792,0.18047 0.13872,0.37522 0.16786,0.57425 0.10774,0.73682 -0.18872,0.52668 0.16784,1.33993 0.0707,0.16141 0.27692,0.21527 0.33569,0.38283 0.0624,0.17774 -0.0863,0.41011 0,0.57426 0.10382,0.19727 0.36091,0.22017 0.50355,0.38284 0.0396,0.0451 -0.0177,0.13092 0,0.19141 0.0396,0.1354 0.0928,0.26869 0.16786,0.38283 0.0949,0.14436 0.24074,0.23846 0.3357,0.38285 0.50877,0.7736 0.0266,0.0909 0.16785,0.57425 0.40526,1.38653 -0.0484,-0.30179 0.33569,0.57425 0.0249,0.0571 -0.0249,0.13432 0,0.19142 0.0354,0.0807 0.13253,0.1107 0.16786,0.19141 0.0249,0.0571 -0.0396,0.14637 0,0.19143 0.0885,0.10082 0.2356,0.10576 0.3357,0.19142 0.18989,0.16242 0.33569,0.38283 0.50354,0.57426 0.11182,0.12753 0.20402,0.28273 0.33569,0.38282 0.0465,0.0354 0.12829,-0.0451 0.16784,0 0.0396,0.0451 -0.0502,0.16289 0,0.19143 0.10004,0.0571 0.23564,-0.0571 0.3357,0 0.10004,0.0571 -0.0792,0.29259 0,0.38283 0.0396,0.0451 0.1283,-0.0451 0.16786,0 0.0396,0.0451 -0.0177,0.13093 0,0.19142 0.0396,0.1354 0.1283,0.24748 0.16785,0.38283 0.0177,0.0605 -0.0249,0.13433 0,0.19142 0.0354,0.0807 0.13238,0.1107 0.16786,0.19142 0.0249,0.0571 0,0.12768 0,0.19143 0,0.0638 0,0.12768 0,0.19141 0,0.38284 0,0.76567 0,1.1485 0,0.82949 0,1.65897 0,2.48844 0,0.19142 0,0.38284 0,0.57427 0,0.0639 0.0177,0.13092 0,0.19141 -0.40528,1.38653 0.0484,-0.30179 -0.33571,0.57425 -0.0502,0.1141 0.0354,0.26178 0,0.38283 -0.20282,0.69395 -0.0796,0.13618 -0.3357,0.57427 -0.0694,0.11873 -0.11183,0.25523 -0.16786,0.38283 -0.0561,0.12768 -0.1283,0.24748 -0.16784,0.38283 -0.10337,0.35359 0.25612,0.0908 -0.16785,0.57427 -0.0396,0.0451 -0.1428,-0.0571 -0.16784,0 -0.05,0.11409 0.0354,0.26177 0,0.38283 -0.0249,0.0857 -0.11183,0.12768 -0.16785,0.19142 -0.0561,0.12768 -0.13751,0.24442 -0.16786,0.38283 -0.0271,0.12382 0,0.25523 0,0.38285 0,0.0638 0,0.12753 0,0.19141 0,0.0639 0.0249,0.13432 0,0.19142 -0.0354,0.0807 -0.13253,0.1107 -0.16783,0.19142 -0.0249,0.0571 0,0.12768 0,0.19141 0,0.0638 0,0.12768 0,0.19142 0,0.51044 0,1.02091 0,1.53134 0,0.38285 0,0.76568 0,1.14852 0,0.12768 0,0.25521 0,0.38283 0,0.0638 -0.0249,0.13432 0,0.19141 0.0354,0.0807 0.11183,0.12769 0.16783,0.19144 0.11183,0.12768 0.24076,0.23844 0.33571,0.38281 0.0751,0.1141 0.0795,0.28197 0.16784,0.38285 0.14265,0.16269 0.36091,0.22017 0.50355,0.38283 0.0396,0.0451 -0.0249,0.13433 0,0.19142 0.0354,0.0807 0.11183,0.12768 0.16784,0.19143 0.11183,0.12768 0.22381,0.25521 0.33571,0.38283 0.16786,0.19142 0.33569,0.38284 0.50355,0.57425 0.11182,0.12769 0.2238,0.25523 0.3357,0.38285 0.0561,0.0638 0.12392,0.11626 0.16785,0.19142 0.0694,0.11873 0.0795,0.28193 0.16784,0.38283 0.0396,0.0451 0.1283,-0.0451 0.16786,0 0.0396,0.0451 0,0.12768 0,0.19142 0.11183,0.19141 0.19305,0.41158 0.33569,0.57424 0.0396,0.0451 0.11787,-0.0286 0.16785,0 0.19241,0.10978 0.23347,0.3994 0.33569,0.57425 0.044,0.075 0.12406,0.11642 0.16786,0.19143 0.0694,0.11873 0.0985,0.26412 0.16784,0.38284 0.044,0.075 0.13238,0.1107 0.16784,0.19141 0.0249,0.0571 -0.0396,0.14637 0,0.19142 0.0396,0.0451 0.11788,-0.0286 0.16785,0 0.0707,0.0403 0.11183,0.12768 0.16786,0.19143 0.0561,0.0638 0.11183,0.12768 0.16784,0.1914 0.11183,0.12769 0.22381,0.25524 0.33571,0.38285 0.0561,0.0638 0.13253,0.1107 0.16786,0.19142 0.0249,0.0571 -0.0177,0.13092 0,0.19141 0.47547,1.08452 -0.0626,-0.28535 0.16784,0.76567 0.0304,0.13849 0.11183,0.25524 0.16785,0.38285 0.0561,0.12768 0.11182,0.25521 0.16784,0.38283 0.19349,0.44135 0.39733,0.8554 0.50355,1.33993 0.0136,0.0619 0,0.12768 0,0.19141 0,0.12769 0,0.25523 0,0.38284 0,0.44665 0,0.8933 0,1.33994 0,0.0638 0,0.12768 0,0.19142 0,0.12768 -0.0354,0.26177 0,0.38283 0.0502,0.1712 0.26492,0.22141 0.33569,0.38283 0.0249,0.0571 -0.0136,0.12954 0,0.19142 0.0858,0.39149 0.24989,0.75702 0.33571,1.14851 0.0136,0.0619 -0.0249,0.13432 0,0.19142 0.0354,0.0807 0.1428,0.10576 0.16784,0.19141 0.0354,0.12105 -0.0271,0.25904 0,0.38284 0.0304,0.13849 0.13752,0.24443 0.16784,0.38283 0.0271,0.12382 -0.0502,0.2687 0,0.38285 0.0707,0.16141 0.22381,0.25522 0.33571,0.38283 0.0561,0.0639 0.13238,0.1107 0.16786,0.19143 0.0249,0.0571 0,0.12768 0,0.1914 0.0561,0.12768 0.0985,0.26412 0.16784,0.38285 0.044,0.075 0.11183,0.12768 0.16785,0.19141 0.11182,0.12769 0.24792,0.23267 0.33569,0.38284 0.031,0.0531 -0.0396,0.14636 0,0.19141 0.0885,0.10082 0.24725,0.0906 0.3357,0.19142 0.0886,0.10082 0.0928,0.26869 0.16786,0.38283 0.0949,0.14436 0.24073,0.23848 0.33569,0.38285 0.0751,0.1141 0.0985,0.26412 0.16785,0.38283 0.0878,0.15023 0.24792,0.23267 0.3357,0.38285 0.0694,0.11873 0.0795,0.28194 0.16786,0.38282 0.0396,0.0451 0.1283,-0.0451 0.16783,0 0.0885,0.10082 0.0795,0.28196 0.16786,0.38285 0.0396,0.0451 0.11183,0 0.16785,0 0.0561,0.12768 0.0795,0.28195 0.16784,0.38283 0.0396,0.0451 0.11183,0 0.16784,0 0.0561,0.0638 0.12407,0.11626 0.16785,0.19141 0.0561,0.12769 0.11183,0.25523 0.16786,0.38284 0,0.0638 -0.0249,0.13432 0,0.19143 0.0354,0.0807 0.12407,0.11641 0.16784,0.19141 0.0694,0.11873 0.0795,0.28194 0.16786,0.38284 0.0886,0.10082 0.27973,0.0638 0.33571,0.19141 0.0751,0.17121 -0.0751,0.40306 0,0.57425 0.0561,0.12768 0.23158,0.11225 0.33569,0.19143 0.0659,0.05 0.13253,0.1107 0.16784,0.19142 0.0249,0.0571 0,0.12768 0,0.19142 0,0.0638 0,0.12768 0,0.19141 0,0.25523 0,0.51046 0,0.76567 0,0.57426 0,1.14851 0,1.72277 0,0.12769 0,0.25522 0,0.38284 0,0.0638 0.0177,0.13092 0,0.19141 -0.0396,0.13541 -0.1283,0.24748 -0.16784,0.38284 -0.0177,0.0605 0.0396,0.14636 0,0.19141 -0.0396,0.0451 -0.1283,-0.0451 -0.16786,0 -0.0396,0.0451 0,0.12768 0,0.19143 0,0.12769 0,0.25521 0,0.38284 0,0.76566 0,1.53134 0,2.29701 0,0.12768 0,0.25522 0,0.38284 0,0.0638 -0.0177,0.13093 0,0.19142 0.0396,0.1354 0.1283,0.24748 0.16786,0.38283 0.0177,0.0605 0,0.12769 0,0.19142 0,0.25523 0,0.51045 0,0.76568 0,0.0638 0,0.12768 0,0.19141 0,0.0638 -0.0249,0.13433 0,0.19142 0.0707,0.16142 0.26492,0.22142 0.3357,0.38283 0.0896,0.20434 -0.0896,0.17853 0,0.38284 0.0354,0.0807 0.13238,0.1107 0.16785,0.19143 0.0249,0.0571 -0.0249,0.13432 0,0.19141 0.0354,0.0807 0.097,0.151 0.16784,0.19142 0.0502,0.0286 0.14281,-0.0571 0.16785,0 0.0502,0.1141 -0.0354,0.26177 0,0.38283 0.0249,0.0857 0.11182,0.12769 0.16784,0.19142 0.11183,0.12768 0.2238,0.25523 0.33571,0.38285 0.11182,0.12768 0.24792,0.23267 0.33568,0.38283 0.031,0.0531 -0.0396,0.14636 0,0.19142 0.0396,0.0451 0.1283,-0.0451 0.16786,0 0.0396,0.0451 -0.0502,0.16286 0,0.19141 0.10004,0.0571 0.23562,-0.0571 0.33571,0 0.0606,0.0346 -0.0477,0.27391 0,0.38283 0.0354,0.0807 0.13238,0.1107 0.16783,0.19142 0.0792,0.18049 0.0697,0.40638 0.16786,0.57426 0.031,0.0531 0.1283,-0.0451 0.16784,0 0.0396,0.0451 -0.0249,0.13433 0,0.19142 0.0354,0.0807 0.13253,0.1107 0.16786,0.19142 0.0249,0.0571 -0.0249,0.13432 0,0.19141 0.0354,0.0808 0.12407,0.11642 0.16785,0.19142 0.0694,0.11873 0.0985,0.26413 0.16784,0.38285 0.044,0.075 0.22381,0.12768 0.16785,0.19141 -0.0561,0.0638 -0.24697,-0.19141 -0.16785,-0.19141 0.12513,0 0.2316,0.11224 0.33569,0.19141 0.0659,0.05 0.13253,0.1107 0.16786,0.1914 0.0121,0.0276 0,0.5131 0,0.57427 0,0.0639 -0.0396,0.14636 0,0.19141 0.0396,0.0451 0.14281,-0.0571 0.16785,0 0.0502,0.1141 0,0.25523 0,0.38285 0,0.0639 -0.0396,0.14637 0,0.19142 0.0396,0.0451 0.12829,-0.0451 0.16786,0 0.0396,0.0451 0,0.12768 0,0.19142 0,0.0638 0,0.12768 0,0.19141" />
  </g>
</svg>
