<?xml version="1.0" encoding="UTF-8" standalone="no"?>
<!-- Created with Inkscape (http://www.inkscape.org/) -->

<svg
   xmlns:dc="http://purl.org/dc/elements/1.1/"
   xmlns:cc="http://creativecommons.org/ns#"
   xmlns:rdf="http://www.w3.org/1999/02/22-rdf-syntax-ns#"
   xmlns:svg="http://www.w3.org/2000/svg"
   xmlns="http://www.w3.org/2000/svg"
   xmlns:sodipodi="http://sodipodi.sourceforge.net/DTD/sodipodi-0.dtd"
   xmlns:inkscape="http://www.inkscape.org/namespaces/inkscape"
   width="297mm"
   height="210mm"
   viewBox="0 0 297 210"
   version="1.1"
   id="svg8"
   inkscape:version="0.92.2 (5c3e80d, 2017-08-06)"
   sodipodi:docname="noche.svg">
  <defs
     id="defs2" />
  <sodipodi:namedview
     id="base"
     pagecolor="#ffffff"
     bordercolor="#666666"
     borderopacity="1.0"
     inkscape:pageopacity="0.0"
     inkscape:pageshadow="2"
     inkscape:zoom="0.75483649"
     inkscape:cx="559.23482"
     inkscape:cy="585.27659"
     inkscape:document-units="mm"
     inkscape:current-layer="layer1"
     showgrid="false"
     inkscape:window-width="1366"
     inkscape:window-height="705"
     inkscape:window-x="-8"
     inkscape:window-y="-8"
     inkscape:window-maximized="1"
     showguides="false" />
  <metadata
     id="metadata5">
    <rdf:RDF>
      <cc:Work
         rdf:about="">
        <dc:format>image/svg+xml</dc:format>
        <dc:type
           rdf:resource="http://purl.org/dc/dcmitype/StillImage" />
        <dc:title></dc:title>
      </cc:Work>
    </rdf:RDF>
  </metadata>
  <g
     inkscape:label="Capa 1"
     inkscape:groupmode="layer"
     id="layer1"
     transform="translate(0,-87)">
    <ellipse
       style="opacity:1;fill:none;fill-opacity:1;fill-rule:nonzero;stroke:none;stroke-width:0.26499999;stroke-linecap:round;stroke-linejoin:round;stroke-miterlimit:4;stroke-dasharray:none;stroke-dashoffset:0;stroke-opacity:1;paint-order:markers fill stroke"
       id="path1058"
       cx="142.95544"
       cy="193.65872"
       rx="101.12682"
       ry="92.022949" />
    <path
       style="opacity:1;fill:#c8beb7;fill-opacity:1;fill-rule:nonzero;stroke:none;stroke-width:0.26499999;stroke-linecap:round;stroke-linejoin:round;stroke-miterlimit:4;stroke-dasharray:none;stroke-dashoffset:0;stroke-opacity:1;paint-order:markers fill stroke"
       d="m 0.4956944,238.16384 v -59.60206 l 1.3203569,0.1594 c 1.2670668,0.15297 1.3949469,-0.0607 3.1684605,-5.29337 2.5894233,-7.64001 4.5923423,-12.50489 7.8111482,-18.97243 4.297557,-8.63509 5.338665,-8.86626 3.439279,-0.76368 -0.691144,2.94835 -1.404608,6.52275 -1.585477,7.94312 -0.359984,2.82696 0.07455,5.76691 0.787397,5.32739 0.247916,-0.15286 0.31879,0.0652 0.157497,0.48449 -0.198139,0.51512 0.132845,0.92404 1.020433,1.2607 3.428669,1.3005 25.64724,3.07477 26.918562,2.14959 0.993569,-0.72305 2.768791,-4.71704 5.679866,-12.77888 1.571983,-4.3534 3.092223,-7.99311 3.378308,-8.08825 1.038366,-0.3453 3.858631,6.32413 9.282218,21.95083 l 3.61296,10.40984 5.967866,-5.94848 c 4.783059,-4.76752 6.024089,-6.29292 6.251063,-7.68345 2.511657,-15.38707 4.280036,-26.86113 4.286114,-27.81028 0.01202,-1.87733 0.746394,-2.74772 1.67184,-1.98148 0.418785,0.34674 1.029362,0.46523 1.356841,0.26331 0.341863,-0.21078 0.465693,-0.15771 0.29079,0.12462 -0.398803,0.64375 3.315635,4.25886 3.864435,3.7611 0.231562,-0.21002 0.249951,-0.0865 0.04085,0.27447 -0.456936,0.78888 1.614088,3.18003 2.357357,2.72175 0.295672,-0.18231 0.346619,-0.0593 0.124156,0.29983 -0.459318,0.74143 1.639035,3.11908 2.360248,2.67441 0.287598,-0.17733 0.347916,-0.0614 0.141442,0.27192 -0.463119,0.74757 2.600329,4.64347 3.308116,4.20707 0.319738,-0.19714 0.38403,-0.0911 0.162044,0.26721 -0.459525,0.74177 0.639172,2.1407 1.341279,1.7078 0.307193,-0.18941 0.367867,-0.0777 0.149363,0.27503 -0.459526,0.74176 0.639166,2.14069 1.341263,1.7078 0.3072,-0.18941 0.36787,-0.0777 0.14937,0.27502 -0.45952,0.74177 0.63917,2.1407 1.34128,1.7078 0.30719,-0.1894 0.36787,-0.0777 0.14936,0.27503 -0.45953,0.74176 0.63917,2.1407 1.34128,1.7078 0.30153,-0.18592 0.36858,-0.0788 0.16072,0.25669 -0.4661,0.75239 1.60853,3.65419 2.30538,3.22454 0.31944,-0.19696 0.3917,-0.0979 0.17902,0.24541 -0.4661,0.75239 1.60854,3.65419 2.30538,3.22454 0.31944,-0.19696 0.39171,-0.0979 0.17902,0.2454 -0.46609,0.75239 1.60854,3.65419 2.30539,3.22454 0.31944,-0.19696 0.3917,-0.0979 0.17901,0.24541 -0.46609,0.75239 1.60855,3.65419 2.30539,3.22454 0.31691,-0.19541 0.39193,-0.0983 0.18371,0.23785 -0.41231,0.66554 2.54998,5.17823 3.15449,4.80551 0.22543,-0.139 0.37923,0.13525 0.34176,0.60943 -0.0377,0.47684 0.22597,0.80128 0.58991,0.72594 0.36192,-0.0749 0.51759,0.0905 0.34592,0.36762 -0.38519,0.62177 2.62624,5.09147 3.19434,4.74119 0.22543,-0.13899 0.37922,0.13525 0.34176,0.60943 -0.0375,0.47419 0.18507,0.81514 0.49452,0.75767 0.30946,-0.0575 0.53305,0.27713 0.49688,0.74356 -0.0362,0.46643 0.23036,0.78675 0.59227,0.71184 0.36192,-0.0749 0.52088,0.0852 0.35325,0.35578 -0.16763,0.27059 0.90153,2.28953 2.37591,4.48652 1.96825,2.93292 2.80746,3.82644 3.15763,3.36202 0.26231,-0.34788 3.02776,-5.13201 6.14544,-10.6314 4.067,-7.17393 5.90809,-9.98088 6.51653,-9.93516 0.46642,0.0351 0.73758,0.24202 0.60259,0.45992 -0.3885,0.62712 1.82155,3.41193 2.41658,3.04505 0.32146,-0.19821 0.39151,-0.0976 0.17518,0.25161 -0.46778,0.75509 3.10259,5.63108 3.80579,5.19751 0.31364,-0.19339 0.38425,-0.0918 0.1731,0.24906 -0.4661,0.75238 1.60853,3.65419 2.30538,3.22453 0.31943,-0.19695 0.3917,-0.0979 0.17902,0.24541 -0.4661,0.75239 1.60853,3.65419 2.30538,3.22454 0.31944,-0.19696 0.3917,-0.0979 0.17902,0.24541 -0.4661,0.75238 1.60854,3.65419 2.30539,3.22454 0.31802,-0.19609 0.39183,-0.0981 0.18166,0.24115 -0.19471,0.31428 -0.0308,1.03177 0.36421,1.59441 0.6879,0.97979 0.96299,0.73968 6.51641,-5.68787 3.189,-3.69097 5.9837,-6.82523 6.21044,-6.96504 0.22674,-0.1398 1.91696,0.42646 3.75603,1.25837 1.83907,0.8319 3.66487,1.38963 4.05731,1.23939 0.39244,-0.15024 0.59713,-0.0853 0.45487,0.14438 -0.30631,0.49443 0.55276,0.9045 8.40558,4.01233 8.66647,3.42985 8.25182,3.4014 10.61075,0.72786 1.09899,-1.24556 3.631,-4.98153 5.6267,-8.30216 3.08897,-5.13967 5.75973,-8.45168 17.9598,-22.27188 7.88218,-8.92892 14.51201,-16.23439 14.73295,-16.23439 0.5012,0 0.16456,-1.3913 5.21765,21.56323 2.34067,10.6329 4.30715,19.49017 4.36994,19.68282 0.0627,0.19264 3.0009,-0.86911 6.52913,-2.35945 5.78666,-2.4443 6.49628,-2.63629 7.24509,-1.96022 0.45657,0.41221 1.01553,0.58169 1.24213,0.37661 0.22659,-0.20507 0.24245,-0.08 0.0352,0.27801 -0.45479,0.78562 1.1195,2.68628 1.85127,2.23509 0.29994,-0.18494 0.35445,-0.0661 0.13336,0.29078 -0.4574,0.73834 1.14276,2.62639 1.85417,2.18775 0.29994,-0.18493 0.35445,-0.0661 0.13336,0.29078 -0.4574,0.73834 1.14276,2.62639 1.85417,2.18776 0.29993,-0.18494 0.35443,-0.0661 0.13334,0.29077 -0.4574,0.73835 1.14278,2.62639 1.85417,2.18776 0.29996,-0.18494 0.35445,-0.0661 0.13337,0.29077 -0.4574,0.73835 1.14274,2.6264 1.85416,2.18776 0.29993,-0.18494 0.35443,-0.0661 0.13336,0.29078 -0.45741,0.73834 1.14276,2.62639 1.85416,2.18775 0.29995,-0.18494 0.35445,-0.0661 0.13335,0.29078 -0.45739,0.73834 1.14276,2.62639 1.85419,2.18775 0.29993,-0.18493 0.35443,-0.0661 0.13334,0.29078 -0.42616,0.6879 1.11943,2.64078 1.77169,2.2386 0.23365,-0.14405 0.28382,0.14005 0.11149,0.63132 -0.28041,0.79947 -0.23046,0.81519 0.47561,0.14968 0.43387,-0.40896 5.10905,-6.63754 10.38928,-13.84129 5.28023,-7.20376 9.87608,-13.18941 10.21303,-13.30146 0.48332,-0.16072 0.61263,12.29859 0.61263,59.02122 l 0.35052,60.97754 -8.57119,-0.0669 c -7.16778,1.90855 -49.05726,-0.88222 -98.11181,-0.59345 -49.05455,0.28877 -111.941014,0.66809 -139.747702,0.84292 L 0.49564629,297.7659 Z"
       id="path1380"
       inkscape:connector-curvature="0"
       sodipodi:nodetypes="ccccssscccsscscscsccsccccccccccccccccccccccccccccccccccccsccccccccccccccccsccscsssccccccccccccccccccscccscsccsscc" />
    <path
       style="fill:#ac9d93;stroke:none;stroke-width:0.26458332px;stroke-linecap:butt;stroke-linejoin:miter;stroke-opacity:1"
       d="m 234.96487,146.80094 -13.38408,37.17798 12.39266,5.94848 -34.69945,33.21233 -21.81108,12.88837 65.43325,-3.46994 9.41843,6.93989 45.10929,-2.47853 0.18043,-59.5999 -22.48724,25.39615 -18.83683,-20.32397 -9.91413,3.46995 -11.89696,-42.13505 z"
       id="path1388"
       inkscape:connector-curvature="0"
       sodipodi:nodetypes="cccccccccccccc" />
    <path
       style="fill:#ac9d93;stroke:none;stroke-width:0.26458332px;stroke-linecap:butt;stroke-linejoin:miter;stroke-opacity:1"
       d="m 83.423142,139.26717 22.783638,63.79417 -10.515528,25.58777 -23.484665,7.71138 78.515893,-2.1031 C 132.24547,201.19465 112.27287,168.38118 82.722108,137.16407 Z"
       id="path1390"
       inkscape:connector-curvature="0"
       sodipodi:nodetypes="ccccccc" />
    <path
       style="fill:#ac9d93;stroke:none;stroke-width:0.26458332px;stroke-linecap:butt;stroke-linejoin:miter;stroke-opacity:1"
       d="m 51.876576,150.48372 c 2.356661,30.94497 4.667908,61.87632 -2.103105,90.08298 l 22.433116,-4.20621 -6.719884,-54.00996 C 60.547564,170.07563 51.83676,142.83592 51.876576,150.48372 Z"
       id="path1392"
       inkscape:connector-curvature="0"
       sodipodi:nodetypes="ccccc" />
    <path
       style="fill:#ac9d93;stroke:none;stroke-width:0.26458332px;stroke-linecap:butt;stroke-linejoin:miter;stroke-opacity:1"
       d="M 16.474318,148.0301 C 15.773283,152.23631 0.49569438,238.16384 0.49569438,238.16384 V 178.56178 Z"
       id="path1394"
       inkscape:connector-curvature="0" />
    <path
       style="fill:#ac9d93;stroke:none;stroke-width:0.26458332px;stroke-linecap:butt;stroke-linejoin:miter;stroke-opacity:1"
       d="M 0.49569438,238.16384 49.773472,240.5667 35.402258,225.84497 11.567074,224.79342 Z"
       id="path1396"
       inkscape:connector-curvature="0" />
    <path
       style="fill:#6c5d53;stroke:none;stroke-width:0.26458332px;stroke-linecap:butt;stroke-linejoin:miter;stroke-opacity:1"
       d="m 35.402258,225.84497 16.474318,-75.36125 c 2.806739,32.53374 3.428343,66.46559 -2.103104,90.08298 z"
       id="path1398"
       inkscape:connector-curvature="0"
       sodipodi:nodetypes="cccc" />
    <path
       style="fill:#241f1c;stroke:#000000;stroke-width:0.26458332px;stroke-linecap:butt;stroke-linejoin:miter;stroke-opacity:1"
       d="m 124.08316,249.32964 74.66021,-1.05156 -6.65983,8.76294 61.69106,2.80414 -38.55691,15.07225 23.48466,3.50517 -139.856441,7.01035 c 0,0 6.659831,-8.41242 14.721731,-8.41242 8.0619,0 12.26811,0 12.26811,0 0,0 -56.783822,-10.86604 -51.175541,-10.86604 5.608277,0 58.185891,0.70104 52.928131,-1.75259 -5.25776,-2.45362 -35.051744,-9.81448 -29.443466,-10.51552 5.608276,-0.70103 25.938286,-4.55672 25.938286,-4.55672 z"
       id="path1400"
       inkscape:connector-curvature="0" />
    <path
       style="fill:#ac9393;stroke:none;stroke-width:0.26458332px;stroke-linecap:butt;stroke-linejoin:miter;stroke-opacity:1"
       d="m 150.72248,234.25739 c -6.62447,-6.95301 -5.5123,-11.58502 15.77329,-10.16501 31.25171,-3.1156 33.28642,0.51412 17.17535,8.06191 z"
       id="path1402"
       inkscape:connector-curvature="0"
       sodipodi:nodetypes="cccc" />
    <ellipse
       style="opacity:1;fill:#ac9393;fill-opacity:1;fill-rule:nonzero;stroke:none;stroke-width:0.26499999;stroke-linecap:round;stroke-linejoin:round;stroke-miterlimit:4;stroke-dasharray:none;stroke-dashoffset:0;stroke-opacity:1;paint-order:markers fill stroke"
       id="path1404"
       cx="38.907433"
       cy="256.69049"
       rx="21.732079"
       ry="3.1546566" />
    <ellipse
       style="opacity:1;fill:#ac9393;fill-opacity:1;fill-rule:nonzero;stroke:none;stroke-width:0.26499999;stroke-linecap:round;stroke-linejoin:round;stroke-miterlimit:4;stroke-dasharray:none;stroke-dashoffset:0;stroke-opacity:1;paint-order:markers fill stroke"
       id="path1406"
       cx="272.87781"
       cy="249.15437"
       rx="12.092851"
       ry="1.5773283" />
    <ellipse
       style="opacity:1;fill:#ac9393;fill-opacity:1;fill-rule:nonzero;stroke:none;stroke-width:0.26499999;stroke-linecap:round;stroke-linejoin:round;stroke-miterlimit:4;stroke-dasharray:none;stroke-dashoffset:0;stroke-opacity:1;paint-order:markers fill stroke"
       id="path1408"
       cx="275.33142"
       cy="276.31949"
       rx="10.690781"
       ry="0.70103484" />
    <ellipse
       style="opacity:1;fill:#ac9393;fill-opacity:1;fill-rule:nonzero;stroke:none;stroke-width:0.26499999;stroke-linecap:round;stroke-linejoin:round;stroke-miterlimit:4;stroke-dasharray:none;stroke-dashoffset:0;stroke-opacity:1;paint-order:markers fill stroke"
       id="path1410"
       cx="19.804234"
       cy="291.0412"
       rx="19.453716"
       ry="2.4536219" />
    <path
       sodipodi:type="star"
       style="opacity:1;fill:#ffd42a;fill-opacity:1;fill-rule:nonzero;stroke:none;stroke-width:0.26499999;stroke-linecap:round;stroke-linejoin:round;stroke-miterlimit:4;stroke-dasharray:none;stroke-dashoffset:0;stroke-opacity:1;paint-order:markers fill stroke"
       id="path1412"
       sodipodi:sides="5"
       sodipodi:cx="104.8047"
       sodipodi:cy="127.70009"
       sodipodi:r1="9.4053688"
       sodipodi:r2="5.6432214"
       sodipodi:arg1="1.1071487"
       sodipodi:arg2="1.7354672"
       inkscape:flatsided="false"
       inkscape:rounded="0.11"
       inkscape:randomized="0"
       d="m 109.01091,136.11251 c -0.57728,0.28864 -4.4946,-2.73974 -5.13129,-2.84554 -0.63669,-0.1058 -5.322907,1.49287 -5.775812,1.03304 -0.452904,-0.45983 1.216734,-5.12124 1.12061,-5.75946 -0.09612,-0.63823 -3.064677,-4.60107 -2.767305,-5.1739 0.297373,-0.57284 5.246577,-0.42537 5.823867,-0.71401 0.57728,-0.28864 3.42883,-4.33649 4.06552,-4.23069 0.63669,0.1058 2.02583,4.85835 2.47874,5.31818 0.4529,0.45984 5.18381,1.92097 5.27994,2.5592 0.0961,0.63822 -3.99455,3.42799 -4.29192,4.00082 -0.29738,0.57284 -0.22507,5.52371 -0.80235,5.81236 z"
       inkscape:transform-center-x="-0.14230062"
       inkscape:transform-center-y="0.046721898" />
    <path
       sodipodi:type="star"
       style="opacity:1;fill:#ffd42a;fill-opacity:1;fill-rule:nonzero;stroke:none;stroke-width:0.26499999;stroke-linecap:round;stroke-linejoin:round;stroke-miterlimit:4;stroke-dasharray:none;stroke-dashoffset:0;stroke-opacity:1;paint-order:markers fill stroke"
       id="path1412-9"
       sodipodi:sides="5"
       sodipodi:cx="22.667336"
       sodipodi:cy="105.69116"
       sodipodi:r1="9.4053688"
       sodipodi:r2="5.6432214"
       sodipodi:arg1="1.1071487"
       sodipodi:arg2="1.7354672"
       inkscape:flatsided="false"
       inkscape:rounded="0.11"
       inkscape:randomized="0"
       d="m 26.873544,114.10358 c -0.577282,0.28864 -4.494598,-2.73973 -5.131289,-2.84554 -0.63669,-0.1058 -5.32291,1.49288 -5.775814,1.03304 -0.452904,-0.45983 1.216734,-5.12124 1.12061,-5.75946 -0.09612,-0.63822 -3.064677,-4.60106 -2.767305,-5.1739 0.297372,-0.57283 5.246581,-0.42537 5.823864,-0.71401 0.577283,-0.28864 3.428835,-4.336487 4.065526,-4.230684 0.636691,0.105802 2.025832,4.858354 2.478736,5.318184 0.452905,0.45983 5.183814,1.92097 5.279938,2.55919 0.09612,0.63822 -3.994548,3.42799 -4.291921,4.00083 -0.297372,0.57283 -0.225062,5.52371 -0.802345,5.81235 z"
       inkscape:transform-center-x="-0.14230062"
       inkscape:transform-center-y="0.046721898" />
    <path
       sodipodi:type="star"
       style="opacity:1;fill:#ffd42a;fill-opacity:1;fill-rule:nonzero;stroke:none;stroke-width:0.26499999;stroke-linecap:round;stroke-linejoin:round;stroke-miterlimit:4;stroke-dasharray:none;stroke-dashoffset:0;stroke-opacity:1;paint-order:markers fill stroke"
       id="path1412-2"
       sodipodi:sides="5"
       sodipodi:cx="270.83367"
       sodipodi:cy="174.7431"
       sodipodi:r1="9.4053688"
       sodipodi:r2="5.6432214"
       sodipodi:arg1="1.1071487"
       sodipodi:arg2="1.7354672"
       inkscape:flatsided="false"
       inkscape:rounded="0.11"
       inkscape:randomized="0"
       d="m 275.03989,183.15552 c -0.57728,0.28864 -4.4946,-2.73973 -5.13129,-2.84554 -0.63669,-0.1058 -5.32291,1.49288 -5.77582,1.03305 -0.4529,-0.45984 1.21674,-5.12125 1.12061,-5.75947 -0.0961,-0.63822 -3.06467,-4.60106 -2.7673,-5.1739 0.29737,-0.57283 5.24658,-0.42537 5.82386,-0.71401 0.57729,-0.28864 3.42884,-4.33649 4.06553,-4.23068 0.63669,0.1058 2.02583,4.85835 2.47874,5.31818 0.4529,0.45983 5.18381,1.92097 5.27993,2.55919 0.0961,0.63822 -3.99454,3.42799 -4.29192,4.00083 -0.29737,0.57283 -0.22506,5.52371 -0.80234,5.81235 z"
       inkscape:transform-center-x="-0.14230062"
       inkscape:transform-center-y="0.046721898" />
    <path
       sodipodi:type="star"
       style="opacity:1;fill:#ffd42a;fill-opacity:1;fill-rule:nonzero;stroke:none;stroke-width:0.26499999;stroke-linecap:round;stroke-linejoin:round;stroke-miterlimit:4;stroke-dasharray:none;stroke-dashoffset:0;stroke-opacity:1;paint-order:markers fill stroke"
       id="path1412-4"
       sodipodi:sides="5"
       sodipodi:cx="160.07017"
       sodipodi:cy="167.0317"
       sodipodi:r1="9.4053688"
       sodipodi:r2="5.6432214"
       sodipodi:arg1="1.1071487"
       sodipodi:arg2="1.7354672"
       inkscape:flatsided="false"
       inkscape:rounded="0.11"
       inkscape:randomized="0"
       d="m 164.27638,175.44411 c -0.57728,0.28864 -4.49459,-2.73973 -5.13128,-2.84554 -0.6367,-0.1058 -5.32291,1.49288 -5.77582,1.03304 -0.4529,-0.45983 1.21673,-5.12124 1.12061,-5.75946 -0.0961,-0.63822 -3.06468,-4.60106 -2.7673,-5.1739 0.29737,-0.57283 5.24658,-0.42537 5.82386,-0.71401 0.57728,-0.28864 3.42883,-4.33649 4.06553,-4.23068 0.63669,0.1058 2.02583,4.85835 2.47873,5.31818 0.45291,0.45983 5.18382,1.92097 5.27994,2.55919 0.0961,0.63822 -3.99455,3.42799 -4.29192,4.00083 -0.29737,0.57283 -0.22506,5.52371 -0.80235,5.81235 z"
       inkscape:transform-center-x="-0.14230062"
       inkscape:transform-center-y="0.046721898" />
    <path
       sodipodi:type="star"
       style="opacity:1;fill:#ffd42a;fill-opacity:1;fill-rule:nonzero;stroke:none;stroke-width:0.26499999;stroke-linecap:round;stroke-linejoin:round;stroke-miterlimit:4;stroke-dasharray:none;stroke-dashoffset:0;stroke-opacity:1;paint-order:markers fill stroke"
       id="path1412-3"
       sodipodi:sides="5"
       sodipodi:cx="172.33827"
       sodipodi:cy="112.00046"
       sodipodi:r1="9.4053688"
       sodipodi:r2="5.6432214"
       sodipodi:arg1="1.1071487"
       sodipodi:arg2="1.7354672"
       inkscape:flatsided="false"
       inkscape:rounded="0.11"
       inkscape:randomized="0"
       d="m 176.54448,120.41288 c -0.57728,0.28864 -4.4946,-2.73974 -5.13129,-2.84554 -0.63669,-0.1058 -5.32291,1.49287 -5.77581,1.03304 -0.45291,-0.45983 1.21673,-5.12124 1.12061,-5.75946 -0.0961,-0.63823 -3.06468,-4.60107 -2.76731,-5.1739 0.29737,-0.57284 5.24658,-0.42537 5.82387,-0.71401 0.57728,-0.28864 3.42883,-4.33649 4.06552,-4.23069 0.63669,0.1058 2.02583,4.85835 2.47874,5.31818 0.4529,0.45984 5.18381,1.92097 5.27994,2.5592 0.0961,0.63822 -3.99455,3.42799 -4.29192,4.00082 -0.29738,0.57284 -0.22507,5.52371 -0.80235,5.81236 z"
       inkscape:transform-center-x="-0.14230062"
       inkscape:transform-center-y="0.046721898" />
  </g>
</svg>
