<?xml version="1.0" encoding="UTF-8" standalone="no"?>
<!-- Created with Inkscape (http://www.inkscape.org/) -->

<svg
   xmlns:dc="http://purl.org/dc/elements/1.1/"
   xmlns:cc="http://creativecommons.org/ns#"
   xmlns:rdf="http://www.w3.org/1999/02/22-rdf-syntax-ns#"
   xmlns:svg="http://www.w3.org/2000/svg"
   xmlns="http://www.w3.org/2000/svg"
   xmlns:sodipodi="http://sodipodi.sourceforge.net/DTD/sodipodi-0.dtd"
   xmlns:inkscape="http://www.inkscape.org/namespaces/inkscape"
   width="297mm"
   height="210mm"
   viewBox="0 0 297 210"
   version="1.1"
   id="svg8"
   inkscape:version="0.92.2 (5c3e80d, 2017-08-06)"
   sodipodi:docname="pollo.svg">
  <defs
     id="defs2">
    <inkscape:path-effect
       effect="bspline"
       id="path-effect1063"
       is_visible="true"
       weight="33.333333"
       steps="2"
       helper_size="0"
       apply_no_weight="true"
       apply_with_weight="true"
       only_selected="false" />
    <inkscape:path-effect
       effect="bspline"
       id="path-effect1054"
       is_visible="true"
       weight="33.333333"
       steps="2"
       helper_size="0"
       apply_no_weight="true"
       apply_with_weight="true"
       only_selected="false" />
    <inkscape:path-effect
       effect="bspline"
       id="path-effect1035"
       is_visible="true"
       weight="33.333333"
       steps="2"
       helper_size="0"
       apply_no_weight="true"
       apply_with_weight="true"
       only_selected="false" />
    <inkscape:path-effect
       effect="bspline"
       id="path-effect1023"
       is_visible="true"
       weight="33.333333"
       steps="2"
       helper_size="0"
       apply_no_weight="true"
       apply_with_weight="true"
       only_selected="false" />
    <inkscape:path-effect
       effect="bspline"
       id="path-effect1015"
       is_visible="true"
       weight="33.333333"
       steps="2"
       helper_size="0"
       apply_no_weight="true"
       apply_with_weight="true"
       only_selected="false" />
    <inkscape:path-effect
       effect="bspline"
       id="path-effect1011"
       is_visible="true"
       weight="33.333333"
       steps="2"
       helper_size="0"
       apply_no_weight="true"
       apply_with_weight="true"
       only_selected="false" />
    <inkscape:path-effect
       effect="simplify"
       id="path-effect1009"
       is_visible="true"
       steps="1"
       threshold="9.90099e-005"
       smooth_angles="360"
       helper_size="0"
       simplify_individual_paths="false"
       simplify_just_coalesce="false"
       simplifyindividualpaths="false"
       simplifyJustCoalesce="false" />
    <inkscape:path-effect
       effect="bspline"
       id="path-effect985"
       is_visible="true"
       weight="33.333333"
       steps="2"
       helper_size="0"
       apply_no_weight="true"
       apply_with_weight="true"
       only_selected="false" />
    <inkscape:path-effect
       effect="simplify"
       id="path-effect983"
       is_visible="true"
       steps="1"
       threshold="9.90099e-005"
       smooth_angles="360"
       helper_size="0"
       simplify_individual_paths="false"
       simplify_just_coalesce="false"
       simplifyindividualpaths="false"
       simplifyJustCoalesce="false" />
    <inkscape:path-effect
       effect="spiro"
       id="path-effect965"
       is_visible="true" />
    <inkscape:path-effect
       effect="simplify"
       id="path-effect963"
       is_visible="true"
       steps="1"
       threshold="9.90099e-005"
       smooth_angles="360"
       helper_size="0"
       simplify_individual_paths="false"
       simplify_just_coalesce="false"
       simplifyindividualpaths="false"
       simplifyJustCoalesce="false" />
    <inkscape:path-effect
       effect="spiro"
       id="path-effect915"
       is_visible="true" />
    <inkscape:path-effect
       effect="simplify"
       id="path-effect913"
       is_visible="true"
       steps="1"
       threshold="9.90099e-005"
       smooth_angles="360"
       helper_size="0"
       simplify_individual_paths="false"
       simplify_just_coalesce="false"
       simplifyindividualpaths="false"
       simplifyJustCoalesce="false" />
    <inkscape:path-effect
       effect="spiro"
       id="path-effect907"
       is_visible="true" />
    <inkscape:path-effect
       effect="simplify"
       id="path-effect905"
       is_visible="true"
       steps="1"
       threshold="9.90099e-005"
       smooth_angles="360"
       helper_size="0"
       simplify_individual_paths="false"
       simplify_just_coalesce="false"
       simplifyindividualpaths="false"
       simplifyJustCoalesce="false" />
    <inkscape:path-effect
       effect="spiro"
       id="path-effect899"
       is_visible="true" />
    <inkscape:path-effect
       effect="simplify"
       id="path-effect897"
       is_visible="true"
       steps="1"
       threshold="9.90099e-005"
       smooth_angles="360"
       helper_size="0"
       simplify_individual_paths="false"
       simplify_just_coalesce="false"
       simplifyindividualpaths="false"
       simplifyJustCoalesce="false" />
    <inkscape:path-effect
       effect="spiro"
       id="path-effect887"
       is_visible="true" />
    <inkscape:path-effect
       effect="simplify"
       id="path-effect885"
       is_visible="true"
       steps="1"
       threshold="9.90099e-005"
       smooth_angles="360"
       helper_size="0"
       simplify_individual_paths="false"
       simplify_just_coalesce="false"
       simplifyindividualpaths="false"
       simplifyJustCoalesce="false" />
    <inkscape:path-effect
       effect="spiro"
       id="path-effect881"
       is_visible="true" />
    <inkscape:path-effect
       effect="simplify"
       id="path-effect879"
       is_visible="true"
       steps="1"
       threshold="0.0002"
       smooth_angles="360"
       helper_size="0"
       simplify_individual_paths="false"
       simplify_just_coalesce="false"
       simplifyindividualpaths="false"
       simplifyJustCoalesce="false" />
  </defs>
  <sodipodi:namedview
     id="base"
     pagecolor="#ffffff"
     bordercolor="#666666"
     borderopacity="1.0"
     inkscape:pageopacity="0.0"
     inkscape:pageshadow="2"
     inkscape:zoom="0.49450749"
     inkscape:cx="577.87351"
     inkscape:cy="293.4408"
     inkscape:document-units="mm"
     inkscape:current-layer="layer1"
     showgrid="false"
     inkscape:window-width="1366"
     inkscape:window-height="705"
     inkscape:window-x="-8"
     inkscape:window-y="-8"
     inkscape:window-maximized="1"
     inkscape:measure-start="0,0"
     inkscape:measure-end="0,0" />
  <metadata
     id="metadata5">
    <rdf:RDF>
      <cc:Work
         rdf:about="">
        <dc:format>image/svg+xml</dc:format>
        <dc:type
           rdf:resource="http://purl.org/dc/dcmitype/StillImage" />
        <dc:title></dc:title>
      </cc:Work>
    </rdf:RDF>
  </metadata>
  <g
     inkscape:label="Capa 1"
     inkscape:groupmode="layer"
     id="layer1"
     transform="translate(0,-87)">
    <path
       style="opacity:1;fill:#aa4400;fill-opacity:1;fill-rule:nonzero;stroke:none;stroke-width:0.26499999;stroke-linecap:round;stroke-linejoin:round;stroke-miterlimit:4;stroke-dasharray:none;stroke-dashoffset:0;stroke-opacity:1;paint-order:markers fill stroke"
       d="m 225.63281,162.80537 c -2.38661,0.35468 -4.64914,-1.56346 -5.05349,-4.2843 -0.40436,-2.72084 1.43237,-4.51381 3.58919,-5.56874 2.27403,-1.11225 4.23072,-1.25201 5.0535,4.28431 0.40435,2.72084 -1.20258,5.21404 -3.5892,5.56873 z"
       id="path1039"
       inkscape:connector-curvature="0"
       sodipodi:nodetypes="sssss" />
    <rect
       style="opacity:1;fill:#ff7f2a;fill-opacity:1;fill-rule:nonzero;stroke:none;stroke-width:0.26499999;stroke-linecap:round;stroke-linejoin:round;stroke-miterlimit:4;stroke-dasharray:none;stroke-dashoffset:0;stroke-opacity:1;paint-order:markers fill stroke"
       id="rect1001"
       width="16.05518"
       height="62.304428"
       x="196.46533"
       y="-101.98979"
       ry="2.9338117"
       transform="rotate(81.546903)" />
    <path
       style="opacity:1;fill:#aa4400;fill-opacity:1;fill-rule:nonzero;stroke:none;stroke-width:0.26499999;stroke-linecap:round;stroke-linejoin:round;stroke-miterlimit:4;stroke-dasharray:none;stroke-dashoffset:0;stroke-opacity:1;paint-order:markers fill stroke"
       d="m 174.90327,209.2478 c -47.29715,-5.2804 -48.06733,-7.42188 -47.32455,-28.30095 0.86112,-24.20493 27.89934,-42.19828 53.84865,-46.05472 25.94931,-3.85643 41.76588,7.39836 45.3205,31.31678 3.55462,23.91842 -25.8639,45.93946 -51.8446,43.03889 z"
       id="path995"
       inkscape:connector-curvature="0"
       sodipodi:nodetypes="sssss" />
    <path
       style="opacity:1;fill:#aa4400;fill-opacity:1;fill-rule:nonzero;stroke:none;stroke-width:0.26499999;stroke-linecap:round;stroke-linejoin:round;stroke-miterlimit:4;stroke-dasharray:none;stroke-dashoffset:0;stroke-opacity:1;paint-order:markers fill stroke"
       d="m 135.19555,177.19671 3.13261,21.07882 c 0.22699,1.52735 -0.8689,3.19471 -2.49222,3.18821 -5.79153,-0.0232 -10.7428,-6.22705 -18.47705,-1.94749 -6.49582,3.5943 -0.37094,-3.17219 -0.37366,-4.7179 -0.0231,-13.08343 9.83785,-10.40087 -4.58259,-14.21429 -1.55826,-0.41207 15.12652,-3.78894 16.67298,-3.34007 4.92317,1.42896 -5.30578,5.99091 2.80827,-2.37295 1.10983,-1.144 3.08467,0.79833 3.31166,2.32567 z"
       id="rect998"
       inkscape:connector-curvature="0"
       sodipodi:nodetypes="sssssssss" />
    <path
       style="opacity:1;fill:#ff7f2a;fill-opacity:1;fill-rule:nonzero;stroke:none;stroke-width:0.26499999;stroke-linecap:round;stroke-linejoin:round;stroke-miterlimit:4;stroke-dasharray:none;stroke-dashoffset:0;stroke-opacity:1;paint-order:markers fill stroke"
       d="m 66.04091,181.33799 a 8.5111787,11.096702 81.546903 0 0 -2.205551,0.15658 8.5111787,11.096702 81.546903 0 0 -9.724988,10.05003 8.5111787,11.096702 81.546903 0 0 3.76101,5.2679 8.4144611,11.911138 81.546903 0 0 -4.862751,8.09614 8.4144611,11.911138 81.546903 0 0 13.018844,6.57169 8.4144611,11.911138 81.546903 0 0 10.544575,-10.0738 8.4144611,11.911138 81.546903 0 0 -4.373893,-5.3883 8.5111787,11.096702 81.546903 0 0 3.864363,-7.73648 8.5111787,11.096702 81.546903 0 0 -10.021609,-6.94376 z"
       id="path1003"
       inkscape:connector-curvature="0" />
    <path
       style="opacity:1;fill:#552200;fill-opacity:1;fill-rule:nonzero;stroke:none;stroke-width:0.26499999;stroke-linecap:round;stroke-linejoin:round;stroke-miterlimit:4;stroke-dasharray:none;stroke-dashoffset:0;stroke-opacity:1;paint-order:markers fill stroke"
       d="m 126.9098,197.75881 c 2.73039,-1.11841 8.69617,-3.19186 8.92183,-3.10083 0.64185,0.25888 4.79504,-0.0285 8.73241,-0.60425 2.46705,-0.36057 4.52347,-0.56794 4.89434,-0.49311 0.84561,0.1706 3.00706,0.15593 5.69651,-0.0387 -2.70642,3.3154 -2.52911,4.29974 6.97776,0.87938 1.22728,0.38847 2.47358,0.6703 2.76957,0.62632 0.29599,-0.044 1.02234,0.0914 1.61412,0.30079 1.06333,0.37631 1.12205,0.37311 5.00356,-0.27153 3.26415,-0.54212 -0.29114,0.329 0,0 0.19268,-0.21773 -0.4038,0.14339 0,0 0.40381,-0.14342 0,0 6.41366,-2.32239 0.25444,-0.28642 -3.74457,7.3496 -1.76885,7.13981 2.95994,-0.3143 7.51518,-2.17608 9.9846,-1.81795 5.33856,2.7119 13.49916,2.60376 11.42838,-8.84674 4.50695,-2.59218 5.92255,-3.85999 6.04673,-5.41548 0.0345,-0.4329 0.58326,-1.37813 1.54508,-2.66161 1.76546,-2.35591 3.02416,-3.60791 5.38253,-5.35394 1.32695,-0.98241 1.96458,-1.63655 2.67932,-2.7487 1.25132,-1.9471 2.12154,-3.52714 2.32331,-4.21839 0.0943,-0.32315 0.46161,-0.72347 0.85524,-0.93215 0.37945,-0.20115 0.8435,-0.47331 1.03121,-0.60481 0.18772,-0.1315 0.74033,-0.36177 1.22802,-0.51172 0.48769,-0.15002 1.62643,-0.70834 2.53052,-1.24086 0.90409,-0.5325 1.99539,-1.092 2.42512,-1.24331 0.42973,-0.15131 1.09301,-0.58013 1.47397,-0.95294 0.38095,-0.37281 0.7686,-0.62434 0.86143,-0.55895 0.35487,0.24994 1.08784,6.53633 0.98539,8.45126 -0.70417,13.16189 -10.41702,25.73752 -25.48216,32.99285 -5.51896,2.65791 -10.18565,4.00178 -16.61675,4.78514 -5.19932,0.63331 -6.63666,0.59101 -15.53299,-0.45722 -20.35943,-2.39892 -28.77948,-4.05539 -34.46658,-6.78059 -0.71927,-0.34466 -2.14855,-0.93471 -3.1762,-1.31119 -4.66162,-1.70787 -5.49277,-2.0391 -5.51644,-2.19841 -0.0139,-0.0936 0.32601,-0.31394 0.75536,-0.48982 z"
       id="path1025"
       inkscape:connector-curvature="0"
       sodipodi:nodetypes="ccccccccccccscccccccccccsccssccccccc" />
    <path
       style="opacity:1;fill:#552200;fill-opacity:1;fill-rule:nonzero;stroke:none;stroke-width:0.26499999;stroke-linecap:round;stroke-linejoin:round;stroke-miterlimit:4;stroke-dasharray:none;stroke-dashoffset:0;stroke-opacity:1;paint-order:markers fill stroke"
       d="m 115.01858,198.73134 c 0.46447,-0.99435 0.68224,-1.22159 1.48172,-1.54617 0.51548,-0.20927 1.10273,-0.49858 1.30501,-0.64291 0.20227,-0.14432 1.02953,-0.41526 1.83834,-0.60209 1.52092,-0.35132 3.39938,-0.26585 4.65331,0.21175 0.32188,0.1226 1.13768,0.4296 1.81289,0.68222 0.67522,0.25263 1.2386,0.53286 1.25195,0.62274 0.0134,0.0899 -0.21868,0.26093 -0.51568,0.3801 -0.32723,0.13133 -0.48163,0.31593 -0.3919,0.46859 0.097,0.16513 -0.33709,0.14088 -1.26019,-0.0703 -1.07101,-0.24504 -1.90276,-0.26857 -3.47296,-0.0982 -1.89434,0.2055 -2.25784,0.31472 -4.40573,1.32377 -3.02056,1.41901 -3.2642,1.34164 -2.29676,-0.72948 z"
       id="path1037"
       inkscape:connector-curvature="0" />
    <ellipse
       style="opacity:1;fill:#d45500;fill-opacity:1;fill-rule:nonzero;stroke:none;stroke-width:0.26499999;stroke-linecap:round;stroke-linejoin:round;stroke-miterlimit:4;stroke-dasharray:none;stroke-dashoffset:0;stroke-opacity:1;paint-order:markers fill stroke"
       id="path1044"
       cx="158.90811"
       cy="187.58347"
       rx="4.2803531"
       ry="1.6051325" />
    <ellipse
       style="opacity:1;fill:#d45500;fill-opacity:1;fill-rule:nonzero;stroke:none;stroke-width:0.26499999;stroke-linecap:round;stroke-linejoin:round;stroke-miterlimit:4;stroke-dasharray:none;stroke-dashoffset:0;stroke-opacity:1;paint-order:markers fill stroke"
       id="path1046"
       cx="202.24669"
       cy="165.78043"
       rx="4.0128312"
       ry="1.7388934" />
    <ellipse
       style="opacity:1;fill:#d45500;fill-opacity:1;fill-rule:nonzero;stroke:none;stroke-width:0.26499999;stroke-linecap:round;stroke-linejoin:round;stroke-miterlimit:4;stroke-dasharray:none;stroke-dashoffset:0;stroke-opacity:1;paint-order:markers fill stroke"
       id="path1048"
       cx="211.34242"
       cy="173.67235"
       rx="4.8153973"
       ry="1.6051325" />
    <ellipse
       style="opacity:1;fill:#d45500;fill-opacity:1;fill-rule:nonzero;stroke:none;stroke-width:0.26499999;stroke-linecap:round;stroke-linejoin:round;stroke-miterlimit:4;stroke-dasharray:none;stroke-dashoffset:0;stroke-opacity:1;paint-order:markers fill stroke"
       id="path1050"
       cx="209.46977"
       cy="149.99663"
       rx="5.0829191"
       ry="2.0064156" />
    <path
       style="opacity:1;fill:#ff6600;fill-opacity:1;fill-rule:nonzero;stroke:none;stroke-width:0.26499999;stroke-linecap:round;stroke-linejoin:round;stroke-miterlimit:4;stroke-dasharray:none;stroke-dashoffset:0;stroke-opacity:1;paint-order:markers fill stroke"
       d="m 126.02324,182.40552 c -3.58475,-0.2125 -5.75798,0.39056 -7.11228,0.0258 l -6.66633,-1.79547 c -0.50554,-0.36893 8.48228,-2.21214 14.42887,-3.21045 l 1.31906,-0.22144 0.46231,-2.14017 c 1.07931,-4.99652 3.49453,-10.14791 6.96119,-14.84748 3.54477,-4.80545 10.21792,-10.69216 16.45575,-14.51642 2.91157,-1.78501 8.39166,-4.56941 8.59435,-4.36673 0.2395,0.2395 -0.49318,0.9516 -1.71707,1.66885 -0.64571,0.37841 -1.08084,0.80426 -0.9832,0.96224 0.10384,0.16803 0.0475,0.2045 -0.13846,0.0896 -0.38074,-0.23532 -2.51268,1.38918 -2.29191,1.74639 0.0852,0.13787 0.053,0.21759 -0.0717,0.17716 -0.39105,-0.12687 -2.2799,2.15604 -2.06781,2.4992 0.11514,0.1863 0.0835,0.24874 -0.076,0.15015 -0.3495,-0.216 -1.19431,0.70477 -1.09146,1.18961 0.0429,0.20233 -0.0644,0.34045 -0.23857,0.30693 -0.45394,-0.0874 -2.03439,1.99376 -1.80095,2.37148 0.11724,0.1897 0.0783,0.2422 -0.0986,0.13288 -0.16083,-0.0994 -0.39539,0.003 -0.52125,0.22818 -0.12586,0.2249 -1.00605,0.92408 -1.95597,1.55372 -0.94993,0.62965 -1.69407,1.29981 -1.65364,1.48926 0.0404,0.18945 -0.0551,0.26494 -0.21236,0.16777 -0.37481,-0.23165 -1.10918,0.38403 -0.88695,0.7436 0.0979,0.15845 0.0433,0.1989 -0.12676,0.0938 -0.44804,-0.2769 -2.53331,1.12764 -2.35686,1.58747 0.0804,0.20946 0.0199,0.35218 -0.13433,0.31716 -0.15426,-0.035 -0.66156,0.39864 -1.12734,0.96368 -0.73907,0.89657 -0.87187,1.30523 -1.04326,3.21026 -0.25651,2.85129 -0.29283,3.0895 -0.46286,3.03559 -0.27562,-0.0874 -2.67775,2.67673 -2.48965,2.86482 0.10441,0.10442 0.007,0.11975 -0.21612,0.0341 -0.39459,-0.15142 -1.50554,0.77608 -1.59469,1.33136 -0.0236,0.14713 -0.16874,0.23161 -0.32248,0.18772 -0.41806,-0.11935 -1.84105,1.34446 -1.6899,1.73837 0.0721,0.18778 0.005,0.31277 -0.14881,0.27775 -0.54393,-0.12376 -1.27569,2.28476 -1.2911,4.24956 -0.0153,1.95716 -0.65284,3.95704 -1.48025,4.64373 -0.2208,0.18325 -0.34389,0.42633 -0.27352,0.54018 0.0704,0.11386 -0.0814,0.19051 -0.33735,0.17033 -0.25591,-0.0202 -0.43519,0.11381 -0.3984,0.29773 0.0368,0.18392 0.0368,0.31184 0,0.28426 -0.0368,-0.0276 -1.45131,-0.1322 -3.14339,-0.23251 z"
       id="path1058"
       inkscape:connector-curvature="0"
       sodipodi:nodetypes="sscscssscccccccccccccscccccccscccccsccscccss" />
    <path
       style="opacity:1;fill:#d45500;fill-opacity:1;fill-rule:nonzero;stroke:none;stroke-width:0.26499999;stroke-linecap:round;stroke-linejoin:round;stroke-miterlimit:4;stroke-dasharray:none;stroke-dashoffset:0;stroke-opacity:1;paint-order:markers fill stroke"
       d="m 60.772447,211.37573 c -3.323664,-0.60148 -6.016474,-2.37845 -7.158908,-4.7241 -0.406453,-0.83453 -0.491117,-1.16673 -0.546957,-2.1461 -0.03634,-0.63731 0.0011,-1.47202 0.08323,-1.85492 0.362792,-1.69163 1.654493,-3.55489 3.381381,-4.87758 1.033838,-0.79185 1.27822,-0.89537 1.395047,-0.59092 0.0694,0.18086 -0.882248,1.20962 -1.712764,1.85154 -0.253786,0.19616 -0.628142,0.6974 -0.831901,1.11387 -0.360807,0.73746 -0.369017,0.80492 -0.314769,2.58609 0.05094,1.67251 0.08701,1.8895 0.421857,2.53788 0.242551,0.46966 0.575051,0.85348 0.984967,1.13697 0.340344,0.23538 0.984858,0.73429 1.43225,1.10868 1.680181,1.40602 1.788086,1.44875 3.797816,1.50402 1.585976,0.0436 1.810457,0.0219 2.054506,-0.19844 0.315473,-0.28486 1.081648,-1.41337 1.324252,-1.9505 0.125876,-0.2787 0.556726,-0.55932 1.814264,-1.18166 1.640385,-0.81181 2.322846,-1.36008 2.322846,-1.86612 0,-0.13716 0.06019,-0.28657 0.133763,-0.33204 0.07357,-0.0455 0.134667,-0.42522 0.135776,-0.8439 0.0011,-0.41868 0.08875,-1.002 0.194768,-1.29628 0.106016,-0.29427 0.1954,-0.76076 0.198628,-1.03664 l 0.0059,-0.50161 h 6.286413 6.28641 l 0.849318,-0.40128 c 0.467127,-0.22071 0.999283,-0.40129 1.182574,-0.40129 0.393755,0 3.274496,-0.83138 3.735511,-1.07806 0.518306,-0.27735 1.613183,-1.06684 2.242389,-1.61696 0.321937,-0.28147 0.893765,-0.66295 1.27073,-0.84773 0.969328,-0.47516 2.048055,-1.07141 2.26676,-1.25292 0.539856,-0.44804 1.589058,-0.51893 9.802926,-0.66229 3.68751,-0.0644 5.56008,-0.14483 5.68483,-0.24431 0.10233,-0.0816 0.42201,-0.19092 0.71041,-0.24298 0.94335,-0.17028 2.91947,-1.13526 3.43618,-1.67795 0.70648,-0.74199 1.55004,-1.07126 2.74451,-1.07126 1.10116,0 1.05914,-0.053 0.85537,1.07896 -0.072,0.39975 -0.18128,1.45167 -0.24294,2.33761 -0.11144,1.60146 -0.11592,1.61755 -0.77204,2.77466 -0.36298,0.64012 -0.69676,1.16426 -0.74173,1.16474 -0.4489,0.005 -38.857447,5.78317 -38.922948,5.85572 -0.04843,0.0536 -0.163745,0.3383 -0.256246,0.63257 -1.096648,3.48885 -5.063686,6.36706 -9.947174,7.21699 -1.452618,0.25282 -4.183227,0.25162 -5.587177,-0.002 z"
       id="path1067"
       inkscape:connector-curvature="0" />
    <text
       xml:space="preserve"
       style="font-style:normal;font-weight:normal;font-size:10.58333302px;line-height:1.25;font-family:sans-serif;letter-spacing:0px;word-spacing:0px;fill:#000000;fill-opacity:1;stroke:none;stroke-width:0.26458332"
       x="124.13023"
       y="233.86479"
       id="text1071"><tspan
         sodipodi:role="line"
         id="tspan1069"
         x="124.13023"
         y="233.86479"
         style="font-style:normal;font-variant:normal;font-weight:normal;font-stretch:normal;font-size:16.93333244px;font-family:'Showcard Gothic';-inkscape-font-specification:'Showcard Gothic';stroke-width:0.26458332">Pollo</tspan></text>
  </g>
</svg>
