<?xml version="1.0" encoding="UTF-8" standalone="no"?>
<!-- Created with Inkscape (http://www.inkscape.org/) -->

<svg
   xmlns:dc="http://purl.org/dc/elements/1.1/"
   xmlns:cc="http://creativecommons.org/ns#"
   xmlns:rdf="http://www.w3.org/1999/02/22-rdf-syntax-ns#"
   xmlns:svg="http://www.w3.org/2000/svg"
   xmlns="http://www.w3.org/2000/svg"
   xmlns:xlink="http://www.w3.org/1999/xlink"
   xmlns:sodipodi="http://sodipodi.sourceforge.net/DTD/sodipodi-0.dtd"
   xmlns:inkscape="http://www.inkscape.org/namespaces/inkscape"
   width="297mm"
   height="210mm"
   viewBox="0 0 297 210"
   version="1.1"
   id="svg8"
   inkscape:version="0.92.2 (5c3e80d, 2017-08-06)"
   sodipodi:docname="s.svg">
  <defs
     id="defs2">
    <linearGradient
       inkscape:collect="always"
       id="linearGradient1368">
      <stop
         style="stop-color:#22280b;stop-opacity:1;"
         offset="0"
         id="stop1364" />
      <stop
         style="stop-color:#22280b;stop-opacity:0;"
         offset="1"
         id="stop1366" />
    </linearGradient>
    <linearGradient
       inkscape:collect="always"
       id="linearGradient1352">
      <stop
         style="stop-color:#22280b;stop-opacity:1;"
         offset="0"
         id="stop1348" />
      <stop
         style="stop-color:#22280b;stop-opacity:0;"
         offset="1"
         id="stop1350" />
    </linearGradient>
    <linearGradient
       inkscape:collect="always"
       id="linearGradient1344">
      <stop
         style="stop-color:#22280b;stop-opacity:1;"
         offset="0"
         id="stop1340" />
      <stop
         style="stop-color:#22280b;stop-opacity:0;"
         offset="1"
         id="stop1342" />
    </linearGradient>
    <linearGradient
       inkscape:collect="always"
       id="linearGradient1336">
      <stop
         style="stop-color:#22280b;stop-opacity:1;"
         offset="0"
         id="stop1332" />
      <stop
         style="stop-color:#22280b;stop-opacity:0;"
         offset="1"
         id="stop1334" />
    </linearGradient>
    <linearGradient
       inkscape:collect="always"
       xlink:href="#linearGradient1336"
       id="linearGradient1338"
       x1="114.86603"
       y1="250.70448"
       x2="171.43076"
       y2="250.70448"
       gradientUnits="userSpaceOnUse"
       gradientTransform="translate(-8.4270101,-7.4355972)" />
    <linearGradient
       inkscape:collect="always"
       xlink:href="#linearGradient1344"
       id="linearGradient1346"
       x1="640.91898"
       y1="598.43889"
       x2="686.57641"
       y2="598.43889"
       gradientUnits="userSpaceOnUse"
       gradientTransform="matrix(0.26458333,0,0,0.26458333,-8.4270101,79.564403)" />
    <linearGradient
       inkscape:collect="always"
       xlink:href="#linearGradient1368"
       id="linearGradient1372"
       x1="115.50041"
       y1="203.95207"
       x2="142.33665"
       y2="203.95207"
       gradientUnits="userSpaceOnUse"
       gradientTransform="translate(-8.4270101,-7.4355972)" />
    <linearGradient
       inkscape:collect="always"
       xlink:href="#linearGradient1352"
       id="linearGradient1376"
       x1="142.24838"
       y1="200.2578"
       x2="179.56525"
       y2="200.2578"
       gradientUnits="userSpaceOnUse"
       gradientTransform="translate(-8.4270101,-7.4355972)" />
  </defs>
  <sodipodi:namedview
     id="base"
     pagecolor="#ffffff"
     bordercolor="#666666"
     borderopacity="1.0"
     inkscape:pageopacity="0.0"
     inkscape:pageshadow="2"
     inkscape:zoom="0.53375"
     inkscape:cx="764.22018"
     inkscape:cy="332.07559"
     inkscape:document-units="mm"
     inkscape:current-layer="layer1"
     showgrid="false"
     inkscape:window-width="1366"
     inkscape:window-height="705"
     inkscape:window-x="-8"
     inkscape:window-y="-8"
     inkscape:window-maximized="1"
     showguides="false" />
  <metadata
     id="metadata5">
    <rdf:RDF>
      <cc:Work
         rdf:about="">
        <dc:format>image/svg+xml</dc:format>
        <dc:type
           rdf:resource="http://purl.org/dc/dcmitype/StillImage" />
        <dc:title></dc:title>
      </cc:Work>
    </rdf:RDF>
  </metadata>
  <g
     inkscape:label="Capa 1"
     inkscape:groupmode="layer"
     id="layer1"
     transform="translate(0,-87)">
    <path
       style="fill:none;stroke:none;stroke-width:0.26458332px;stroke-linecap:butt;stroke-linejoin:miter;stroke-opacity:1"
       d="m 92.13482,116.17424 53.34003,-21.443097 30.59817,25.731717 -11.57769,13.25574 -28.53071,-18.32411 -32.25212,13.64561 12.81815,17.15448 40.52188,10.13673 8.26978,16.76461 -31.42514,24.95197 c 0,0 -48.378169,-11.30636 -46.724215,-11.69623 1.653957,-0.38988 9.096755,-15.98486 9.096755,-15.98486 l 29.35769,6.23799 14.88559,-6.62787 -31.83862,-8.96711 -25.222811,-41.3267 z"
       id="path1044"
       inkscape:connector-curvature="0" />
    <path
       style="fill:#ff6600;stroke:none;stroke-width:0.26458332px;stroke-linecap:butt;stroke-linejoin:miter;stroke-opacity:1"
       d="m 96.26971,170.3668 10.13047,-2.72912 27.9346,5.33094 -8.70738,3.63617 z"
       id="path1046"
       inkscape:connector-curvature="0"
       sodipodi:nodetypes="ccccc" />
    <path
       style="fill:#ff6600;stroke:none;stroke-width:0.26458332px;stroke-linecap:butt;stroke-linejoin:miter;stroke-opacity:1"
       d="m 157.05253,156.33131 7.02932,-5.2633 7.23605,15.20511 -5.99559,6.8228 z"
       id="path1048"
       inkscape:connector-curvature="0" />
    <path
       style="fill:#ff6600;stroke:none;stroke-width:0.26458332px;stroke-linecap:butt;stroke-linejoin:miter;stroke-opacity:1"
       d="m 116.53065,146.19458 8.68326,-4.28862 38.86794,9.16205 -7.02932,5.2633 z"
       id="path1050"
       inkscape:connector-curvature="0" />
    <path
       style="fill:#ff6600;stroke:none;stroke-width:0.26458332px;stroke-linecap:butt;stroke-linejoin:miter;stroke-opacity:1"
       d="m 111.98228,125.53123 13.23163,16.37473 -8.68326,4.28862 c -4.61456,-4.52169 -8.5464,-11.43293 -12.81815,-17.15448 z"
       id="path1052"
       inkscape:connector-curvature="0"
       sodipodi:nodetypes="ccccc" />
    <path
       style="fill:#ff7f2a;stroke:none;stroke-width:0.26458332px;stroke-linecap:butt;stroke-linejoin:miter;stroke-opacity:1"
       d="m 164.44816,133.63041 9.55741,-4.59031 10.33722,-12.47598 -8.26977,3.89874 z"
       id="path1054"
       inkscape:connector-curvature="0"
       sodipodi:nodetypes="ccccc" />
    <path
       style="fill:#ff7f2a;stroke:none;stroke-width:0.26458332px;stroke-linecap:butt;stroke-linejoin:miter;stroke-opacity:1"
       d="m 184.34279,116.56412 -29.77119,-25.536786 -9.09675,3.703809 30.59817,25.731717 z"
       id="path1056"
       inkscape:connector-curvature="0" />
    <path
       style="opacity:1;fill:#ffb380;fill-opacity:1;fill-rule:nonzero;stroke:none;stroke-width:0.26499999;stroke-linecap:round;stroke-linejoin:round;stroke-miterlimit:4;stroke-dasharray:none;stroke-dashoffset:0;stroke-opacity:1;paint-order:markers fill stroke"
       d="m 119.9604,194.77952 c -19.01574,-4.55556 -31.794014,-7.78925 -32.166782,-8.14017 -0.05003,-0.0471 0.295232,-0.61676 0.767241,-1.26593 1.120127,-1.54054 3.536441,-5.92137 5.844061,-10.5954 1.26811,-2.56853 1.97366,-3.73947 2.25547,-3.74319 0.22555,-0.003 6.69703,1.33178 14.38107,2.96614 7.68403,1.63436 14.14374,2.98458 14.3549,3.00048 0.21116,0.0159 3.3172,-1.28059 6.90232,-2.88112 3.58511,-1.60052 7.00462,-3.1196 7.59892,-3.37574 0.5943,-0.25613 1.03446,-0.51179 0.97813,-0.56812 -0.0563,-0.0563 -7.2413,-2.11137 -15.96661,-4.56676 -8.7253,-2.45539 -15.99316,-4.5933 -16.15078,-4.7509 -0.41379,-0.41373 -25.00922,-40.77159 -24.901101,-40.85942 0.04979,-0.0405 7.34287,-2.9841 16.206841,-6.54145 8.86398,-3.55735 22.6969,-9.11064 30.73982,-12.34064 14.4235,-5.792427 14.63045,-5.866447 15.13211,-5.412877 0.27975,0.25292 6.87518,5.802167 14.65654,12.331657 7.78135,6.52949 14.35378,12.06792 14.60541,12.30763 0.44256,0.4216 0.27458,0.64556 -5.14615,6.86126 l -5.60365,6.42544 -0.75907,-0.4538 c -0.41748,-0.2496 -6.82628,-4.35267 -14.24177,-9.11796 l -13.4827,-8.66416 -13.21379,5.57915 c -7.26759,3.06853 -14.56863,6.14727 -16.22454,6.84164 -1.65591,0.69437 -3.01227,1.34731 -3.01412,1.45097 -0.002,0.10367 2.81792,3.97258 6.26618,8.59758 3.44826,4.62499 6.29937,8.47669 6.33581,8.55931 0.0364,0.0826 9.20087,2.45163 20.36542,5.26443 11.16455,2.81281 20.31459,5.13214 20.33343,5.15406 0.0188,0.0219 1.87174,3.71734 4.11756,8.21203 l 4.08331,8.17216 -2.3952,1.93374 c -4.42028,3.56867 -28.85186,22.93563 -28.91061,22.91749 -0.0319,-0.01 -6.21839,-1.49375 -13.74767,-3.29753 z"
       id="path1138"
       inkscape:connector-curvature="0" />
    <path
       style="opacity:1;fill:#ff7f2a;fill-opacity:1;fill-rule:nonzero;stroke:none;stroke-width:0.26499999;stroke-linecap:round;stroke-linejoin:round;stroke-miterlimit:4;stroke-dasharray:none;stroke-dashoffset:0;stroke-opacity:1;paint-order:markers fill stroke"
       d="m 126.86221,196.46154 c -26.60533,-6.43663 -38.117111,-9.33916 -38.482341,-9.70276 -0.13101,-0.13043 0.18495,-0.85353 0.77367,-1.77059 1.36516,-2.12651 2.869241,-4.84992 4.957631,-8.97661 0.9713,-1.91932 1.95587,-3.72147 2.18792,-4.00477 l 0.42191,-0.5151 4.18286,0.85227 c 2.30057,0.46875 8.7225,1.80815 14.27094,2.97645 8.71337,1.83472 10.20543,2.08845 10.94925,1.86193 2.10011,-0.63956 14.64002,-6.36827 14.64002,-6.68812 0,-0.24257 -4.64344,-1.67474 -15.87027,-4.89483 l -15.87027,-4.55194 -0.89606,-1.35328 c -1.08763,-1.64261 -13.17583,-21.40144 -19.391461,-31.6964 -2.57677,-4.26793 -4.41165,-7.55193 -4.28787,-7.67428 0.21363,-0.21117 46.694641,-18.95119 55.898591,-22.536967 2.61236,-1.01775 4.90596,-1.8158 5.09691,-1.77345 0.48909,0.10848 29.61869,24.625427 29.63287,24.940517 0.006,0.14215 -1.50248,2.02444 -3.35304,4.18286 -5.45404,6.36136 -7.26784,8.35768 -7.52474,8.28194 -0.13316,-0.0393 -6.5403,-4.1107 -14.2381,-9.04765 l -13.99601,-8.97627 -14.08567,5.93509 c -16.39433,6.90785 -17.91877,7.56526 -18.32709,7.90345 -0.37344,0.30929 -0.79811,-0.31613 6.53861,9.62947 3.87899,5.25832 5.98789,7.91289 6.41559,8.07557 0.71541,0.27213 12.23809,3.2439 28.44087,7.33509 5.95442,1.50349 11.02404,2.79342 11.26581,2.86651 0.2825,0.0854 1.88247,3.01761 4.4771,8.20503 l 4.03752,8.07215 -11.0957,8.8244 c -6.10263,4.85342 -13.0722,10.4022 -15.48794,12.33062 -2.41573,1.92842 -4.47525,3.49743 -4.57671,3.48668 -0.10146,-0.0108 -3.11862,-0.72941 -6.7048,-1.59701 z"
       id="path1140"
       inkscape:connector-curvature="0" />
    <path
       style="opacity:1;fill:#aa4400;fill-opacity:1;fill-rule:nonzero;stroke:none;stroke-width:0.26499999;stroke-linecap:round;stroke-linejoin:round;stroke-miterlimit:4;stroke-dasharray:none;stroke-dashoffset:0;stroke-opacity:1;paint-order:markers fill stroke"
       d="m 122.37056,195.34369 c -34.710331,-8.51144 -34.499868,-8.52941 -34.499868,-8.91899 0,-0.1313 1.538088,-2.56275 2.669187,-4.54746 1.131091,-1.98471 2.708731,-5.57308 3.612831,-7.33235 0.9041,-1.75926 1.92961,-3.92952 2.117,-4.17809 0.32614,-0.43261 1.95064,0.39047 13.33275,2.76284 15.16978,3.16183 14.72694,3.25808 15.92914,3.1249 1.75247,-0.19414 13.67655,-6.21798 14.36873,-6.54019 -0.69218,0.32221 -1.55804,-0.0634 -2.70024,-0.45088 -1.76225,-0.59788 -17.69658,-5.30231 -25.43272,-7.48835 l -2.74384,-0.72765 -1.6901,-2.73831 c -2.20596,-3.5741 -17.080554,-27.74375 -20.376894,-33.30966 -1.75074,-2.95614 -3.652037,-5.16932 -3.504977,-5.31639 0.31491,-0.3149 54.640401,-22.100117 58.372371,-23.411617 1.19627,-0.42039 3.50066,-1.63321 3.65092,-1.54035 0.73477,-0.0129 17.5529,14.695797 23.19539,19.477847 3.69232,3.12927 6.03154,5.14789 6.36734,5.4264 l 1.03544,0.82747 -5.19886,6.04227 c -4.46054,5.18418 -4.95787,5.90739 -6.02506,6.81667 -1.03074,0.87823 -0.806,-0.31928 -16.6484,-10.25406 l -12.23608,-7.67325 -16.19444,6.92744 c -14.86143,6.35722 -14.50931,5.85134 -14.49339,6.5183 0.0166,0.52826 5.46772,9.80687 8.78128,14.1291 l 2.47258,3.22525 2.56598,0.4966 c 2.47694,0.44245 9.68229,2.30352 19.56122,4.81551 14.7914,3.76111 18.04406,4.38907 18.39468,4.82462 0.2608,0.29471 3.47969,6.77686 4.52658,8.8442 3.80309,7.51014 2.4755,5.41703 3.7432,7.92041 l -12.94001,10.23399 c -16.94605,13.40229 -18.20309,14.74027 -18.48513,14.71798 -0.14001,-0.0111 -8.48174,-1.95755 -11.52661,-2.7042 z"
       id="path1142"
       inkscape:connector-curvature="0"
       sodipodi:nodetypes="cscccssccccsscccsccssscscsccscscscc" />
    <ellipse
       style="opacity:1;fill:none;fill-opacity:1;fill-rule:nonzero;stroke:none;stroke-width:0.26499999;stroke-linecap:round;stroke-linejoin:round;stroke-miterlimit:4;stroke-dasharray:none;stroke-dashoffset:0;stroke-opacity:1;paint-order:markers fill stroke"
       id="path1058"
       cx="142.95544"
       cy="193.65872"
       rx="101.12682"
       ry="92.022949" />
    <path
       style="opacity:1;fill:#44aa00;fill-opacity:1;fill-rule:nonzero;stroke:none;stroke-width:0.26499999;stroke-linecap:round;stroke-linejoin:round;stroke-miterlimit:4;stroke-dasharray:none;stroke-dashoffset:0;stroke-opacity:1;paint-order:markers fill stroke"
       d="m 57.798544,125.3133 c 0.195744,-0.5101 0.361627,-0.5101 0.361627,0 0,0.21911 -0.11576,0.39838 -0.257249,0.39838 -0.141488,0 -0.188457,-0.17927 -0.104378,-0.39838 z"
       id="path1297"
       inkscape:connector-curvature="0" />
    <path
       style="opacity:1;fill:url(#linearGradient1338);fill-opacity:1;fill-rule:nonzero;stroke:none;stroke-width:0.26499999;stroke-linecap:round;stroke-linejoin:round;stroke-miterlimit:4;stroke-dasharray:none;stroke-dashoffset:0;stroke-opacity:1;paint-order:markers fill stroke"
       d="m 107.0786,197.40867 c 17.9779,0.8903 36.25136,0.81357 54.75003,0 0.35399,-0.0156 1.89487,-0.24681 0.77152,0.32031 l -0.13194,90.82025 c -5.1e-4,0.35432 -0.28525,0.63957 -0.63958,0.63957 H 107.0786 c -0.35433,0 -0.63958,-0.28525 -0.63958,-0.63957 v -90.50098 c 0,-0.35433 0.28568,-0.65711 0.63958,-0.63958 z"
       id="rect1309"
       inkscape:connector-curvature="0"
       sodipodi:nodetypes="sscssssss" />
    <path
       style="opacity:1;fill:url(#linearGradient1346);fill-opacity:1;fill-rule:nonzero;stroke:none;stroke-width:0.26499999;stroke-linecap:round;stroke-linejoin:round;stroke-miterlimit:4;stroke-dasharray:none;stroke-dashoffset:0;stroke-opacity:1;paint-order:markers fill stroke"
       d="m 161.36089,242.65281 1.23926,-44.92383 4.16272,-5.06018 c 2.28952,-2.78312 4.30583,-5.11262 4.48074,-5.17664 0.53759,-0.19677 0.54951,2.27126 1.25706,41.7154 l 0.72899,40.63933 -2.71742,5.94986 c -2.00702,4.3944 -7.43801,12.5234 -8.04365,12.5234 -0.2331,0 -1.8985,-17.00082 -1.1077,-45.66734 z"
       id="path1313"
       inkscape:connector-curvature="0"
       sodipodi:nodetypes="scscscsss" />
    <path
       style="opacity:1;fill:url(#linearGradient1376);fill-opacity:1;fill-rule:nonzero;stroke:none;stroke-width:0.26499999;stroke-linecap:round;stroke-linejoin:round;stroke-miterlimit:4;stroke-dasharray:none;stroke-dashoffset:0;stroke-opacity:1;paint-order:markers fill stroke"
       d="m 134.45708,198.43561 c -2.28621,0.60823 2.16546,-2.89285 4.33451,-4.6424 l 4.47491,-3.44661 13.70726,-2.09746 c 13.17917,-2.01666 14.16448,-0.80893 14.16448,-0.0915 0,0.22688 -1.4065,0.92952 -3.93707,3.99598 l -4.60102,5.57536 -13.30418,0.18759 c -7.39863,0.10432 -15.46857,0.33847 -15.3988,0.13132 z"
       id="path1315"
       inkscape:connector-curvature="0"
       sodipodi:nodetypes="cccssscscc" />
    <path
       style="opacity:1;fill:url(#linearGradient1372);fill-opacity:1;fill-rule:nonzero;stroke:none;stroke-width:0.26499999;stroke-linecap:round;stroke-linejoin:round;stroke-miterlimit:4;stroke-dasharray:none;stroke-dashoffset:0;stroke-opacity:1;paint-order:markers fill stroke"
       d="m 107.0786,197.40867 c 0.12686,-0.25252 6.98684,-3.13626 9.61015,-3.49887 3.27165,0.86972 5.68181,1.43389 7.41678,1.71272 3.19042,1.05589 9.49586,2.24581 9.79164,2.42537 0.40437,0.34936 -9.10326,0.35414 -16.05092,0.91761 -7.98077,0.64726 -10.91416,-0.86315 -10.76765,-1.55683 z"
       id="path1319"
       inkscape:connector-curvature="0"
       sodipodi:nodetypes="ccccsc" />
  </g>
</svg>
